<?xml version="1.0" encoding="utf-8" standalone="no"?>
<!DOCTYPE svg PUBLIC "-//W3C//DTD SVG 1.1//EN"
  "http://www.w3.org/Graphics/SVG/1.1/DTD/svg11.dtd">
<svg xmlns:xlink="http://www.w3.org/1999/xlink" width="482.048906pt" height="300.193281pt" viewBox="0 0 482.048906 300.193281" xmlns="http://www.w3.org/2000/svg" version="1.1">
 <metadata>
  <rdf:RDF xmlns:dc="http://purl.org/dc/elements/1.1/" xmlns:cc="http://creativecommons.org/ns#" xmlns:rdf="http://www.w3.org/1999/02/22-rdf-syntax-ns#">
   <cc:Work>
    <dc:type rdf:resource="http://purl.org/dc/dcmitype/StillImage"/>
    <dc:date>2026-09-01T02:47:53.104496</dc:date>
    <dc:format>image/svg+xml</dc:format>
    <dc:creator>
     <cc:Agent>
      <dc:title>Matplotlib v3.10.0, https://matplotlib.org/</dc:title>
     </cc:Agent>
    </dc:creator>
   </cc:Work>
  </rdf:RDF>
 </metadata>
 <defs>
  <style type="text/css">*{stroke-linejoin: round; stroke-linecap: butt}</style>
 </defs>
 <g id="figure_1">
  <g id="patch_1">
   <path d="M 0 300.193281 
L 482.048906 300.193281 
L 482.048906 0 
L 0 0 
z
" style="fill: #ffffff"/>
  </g>
  <g id="axes_1">
   <g id="patch_2">
    <path d="M 36.478906 266.27375 
L 474.848906 266.27375 
L 474.848906 21.19375 
L 36.478906 21.19375 
z
" style="fill: #ffffff"/>
   </g>
   <g id="matplotlib.axis_1">
    <g id="xtick_1">
     <g id="line2d_1">
      <path d="M 56.404815 266.27375 
L 56.404815 21.19375 
" clip-path="url(#pd0056e81f1)" style="fill: none; stroke: #b0b0b0; stroke-opacity: 0.22; stroke-width: 0.8; stroke-linecap: square"/>
     </g>
     <g id="line2d_2">
      <defs>
       <path id="ma1418a78a6" d="M 0 0 
L 0 3.5 
" style="stroke: #000000; stroke-width: 0.8"/>
      </defs>
      <g>
       <use xlink:href="#ma1418a78a6" x="56.404815" y="266.27375" style="stroke: #000000; stroke-width: 0.8"/>
      </g>
     </g>
     <g id="text_1">
      <!-- 1× -->
      <g transform="translate(51.756378 278.869375) scale(0.07 -0.07)">
       <defs>
        <path id="MicrosoftYaHei-31" d="M 1781 0 
L 1781 4141 
Q 1638 3997 1295 3819 
Q 953 3641 663 3569 
L 663 4169 
Q 1047 4275 1484 4508 
Q 1922 4741 2156 4947 
L 2388 4947 
L 2388 0 
L 1781 0 
z
" transform="scale(0.015625)"/>
        <path id="MicrosoftYaHei-d7" d="M 3856 869 
L 3519 531 
L 2372 1678 
L 1231 531 
L 894 869 
L 2044 2009 
L 894 3156 
L 1231 3491 
L 2372 2344 
L 3522 3491 
L 3856 3153 
L 2709 2009 
L 3856 869 
z
" transform="scale(0.015625)"/>
       </defs>
       <use xlink:href="#MicrosoftYaHei-31"/>
       <use xlink:href="#MicrosoftYaHei-d7" transform="translate(58.642578 0)"/>
      </g>
     </g>
    </g>
    <g id="xtick_2">
     <g id="line2d_3">
      <path d="M 136.108452 266.27375 
L 136.108452 21.19375 
" clip-path="url(#pd0056e81f1)" style="fill: none; stroke: #b0b0b0; stroke-opacity: 0.22; stroke-width: 0.8; stroke-linecap: square"/>
     </g>
     <g id="line2d_4">
      <g>
       <use xlink:href="#ma1418a78a6" x="136.108452" y="266.27375" style="stroke: #000000; stroke-width: 0.8"/>
      </g>
     </g>
     <g id="text_2">
      <!-- 2× -->
      <g transform="translate(131.460014 278.869375) scale(0.07 -0.07)">
       <defs>
        <path id="MicrosoftYaHei-32" d="M 2666 3572 
Q 2666 3963 2419 4186 
Q 2172 4409 1747 4409 
Q 1447 4409 1140 4256 
Q 834 4103 569 3819 
L 569 4413 
Q 806 4659 1107 4790 
Q 1409 4922 1816 4922 
Q 2472 4922 2872 4570 
Q 3272 4219 3272 3619 
Q 3272 3084 3026 2693 
Q 2781 2303 2188 1894 
Q 1581 1475 1376 1294 
Q 1172 1113 1090 947 
Q 1009 781 1009 544 
L 3416 544 
L 3416 0 
L 372 0 
L 372 241 
Q 372 659 486 951 
Q 600 1244 862 1520 
Q 1125 1797 1681 2184 
Q 2250 2584 2458 2886 
Q 2666 3188 2666 3572 
z
" transform="scale(0.015625)"/>
       </defs>
       <use xlink:href="#MicrosoftYaHei-32"/>
       <use xlink:href="#MicrosoftYaHei-d7" transform="translate(58.642578 0)"/>
      </g>
     </g>
    </g>
    <g id="xtick_3">
     <g id="line2d_5">
      <path d="M 215.812088 266.27375 
L 215.812088 21.19375 
" clip-path="url(#pd0056e81f1)" style="fill: none; stroke: #b0b0b0; stroke-opacity: 0.22; stroke-width: 0.8; stroke-linecap: square"/>
     </g>
     <g id="line2d_6">
      <g>
       <use xlink:href="#ma1418a78a6" x="215.812088" y="266.27375" style="stroke: #000000; stroke-width: 0.8"/>
      </g>
     </g>
     <g id="text_3">
      <!-- 4× -->
      <g transform="translate(211.163651 278.869375) scale(0.07 -0.07)">
       <defs>
        <path id="MicrosoftYaHei-34" d="M 2906 4841 
L 2906 1644 
L 3631 1644 
L 3631 1138 
L 2906 1138 
L 2906 0 
L 2313 0 
L 2313 1138 
L 53 1138 
L 53 1616 
Q 656 2294 1265 3178 
Q 1875 4063 2272 4841 
L 2906 4841 
z
M 741 1644 
L 2313 1644 
L 2313 3950 
Q 1988 3366 1616 2817 
Q 1244 2269 741 1644 
z
" transform="scale(0.015625)"/>
       </defs>
       <use xlink:href="#MicrosoftYaHei-34"/>
       <use xlink:href="#MicrosoftYaHei-d7" transform="translate(58.642578 0)"/>
      </g>
     </g>
    </g>
    <g id="xtick_4">
     <g id="line2d_7">
      <path d="M 295.515724 266.27375 
L 295.515724 21.19375 
" clip-path="url(#pd0056e81f1)" style="fill: none; stroke: #b0b0b0; stroke-opacity: 0.22; stroke-width: 0.8; stroke-linecap: square"/>
     </g>
     <g id="line2d_8">
      <g>
       <use xlink:href="#ma1418a78a6" x="295.515724" y="266.27375" style="stroke: #000000; stroke-width: 0.8"/>
      </g>
     </g>
     <g id="text_4">
      <!-- 8× -->
      <g transform="translate(290.867287 278.869375) scale(0.07 -0.07)">
       <defs>
        <path id="MicrosoftYaHei-38" d="M 306 1350 
Q 306 1769 556 2122 
Q 806 2475 1200 2625 
Q 884 2803 700 3081 
Q 516 3359 516 3684 
Q 516 4028 692 4312 
Q 869 4597 1183 4759 
Q 1497 4922 1875 4922 
Q 2256 4922 2572 4761 
Q 2888 4600 3063 4315 
Q 3238 4031 3238 3684 
Q 3238 3366 3058 3086 
Q 2878 2806 2559 2625 
Q 2953 2472 3200 2119 
Q 3447 1766 3447 1350 
Q 3447 938 3250 611 
Q 3053 284 2690 103 
Q 2328 -78 1875 -78 
Q 1425 -78 1065 103 
Q 706 284 506 612 
Q 306 941 306 1350 
z
M 906 1378 
Q 906 947 1172 687 
Q 1438 428 1878 428 
Q 2309 428 2582 692 
Q 2856 956 2856 1378 
Q 2856 1778 2579 2051 
Q 2303 2325 1878 2325 
Q 1456 2325 1181 2058 
Q 906 1791 906 1378 
z
M 1081 3634 
Q 1081 3309 1312 3076 
Q 1544 2844 1878 2844 
Q 2206 2844 2445 3078 
Q 2684 3313 2684 3634 
Q 2684 3963 2454 4191 
Q 2225 4419 1878 4419 
Q 1534 4419 1307 4195 
Q 1081 3972 1081 3634 
z
" transform="scale(0.015625)"/>
       </defs>
       <use xlink:href="#MicrosoftYaHei-38"/>
       <use xlink:href="#MicrosoftYaHei-d7" transform="translate(58.642578 0)"/>
      </g>
     </g>
    </g>
    <g id="xtick_5">
     <g id="line2d_9">
      <path d="M 375.219361 266.27375 
L 375.219361 21.19375 
" clip-path="url(#pd0056e81f1)" style="fill: none; stroke: #b0b0b0; stroke-opacity: 0.22; stroke-width: 0.8; stroke-linecap: square"/>
     </g>
     <g id="line2d_10">
      <g>
       <use xlink:href="#ma1418a78a6" x="375.219361" y="266.27375" style="stroke: #000000; stroke-width: 0.8"/>
      </g>
     </g>
     <g id="text_5">
      <!-- 16× -->
      <g transform="translate(368.518501 278.869375) scale(0.07 -0.07)">
       <defs>
        <path id="MicrosoftYaHei-36" d="M 3181 4219 
Q 2803 4413 2391 4413 
Q 1763 4413 1381 3866 
Q 1000 3319 994 2372 
L 1009 2372 
Q 1353 3038 2106 3038 
Q 2734 3038 3109 2628 
Q 3484 2219 3484 1541 
Q 3484 831 3051 375 
Q 2619 -81 1947 -81 
Q 1209 -81 789 495 
Q 369 1072 369 2131 
Q 369 3413 920 4167 
Q 1472 4922 2372 4922 
Q 2888 4922 3181 4781 
L 3181 4219 
z
M 1031 1584 
Q 1031 1106 1286 765 
Q 1541 425 1963 425 
Q 2363 425 2613 719 
Q 2863 1013 2863 1475 
Q 2863 1975 2627 2253 
Q 2391 2531 1956 2531 
Q 1544 2531 1287 2250 
Q 1031 1969 1031 1584 
z
" transform="scale(0.015625)"/>
       </defs>
       <use xlink:href="#MicrosoftYaHei-31"/>
       <use xlink:href="#MicrosoftYaHei-36" transform="translate(58.642578 0)"/>
       <use xlink:href="#MicrosoftYaHei-d7" transform="translate(117.285156 0)"/>
      </g>
     </g>
    </g>
    <g id="xtick_6">
     <g id="line2d_11">
      <path d="M 454.922997 266.27375 
L 454.922997 21.19375 
" clip-path="url(#pd0056e81f1)" style="fill: none; stroke: #b0b0b0; stroke-opacity: 0.22; stroke-width: 0.8; stroke-linecap: square"/>
     </g>
     <g id="line2d_12">
      <g>
       <use xlink:href="#ma1418a78a6" x="454.922997" y="266.27375" style="stroke: #000000; stroke-width: 0.8"/>
      </g>
     </g>
     <g id="text_6">
      <!-- 32× -->
      <g transform="translate(448.222138 278.869375) scale(0.07 -0.07)">
       <defs>
        <path id="MicrosoftYaHei-33" d="M 447 809 
Q 944 425 1569 425 
Q 2069 425 2361 670 
Q 2653 916 2653 1328 
Q 2653 2247 1338 2247 
L 934 2247 
L 934 2753 
L 1319 2753 
Q 2484 2753 2484 3616 
Q 2484 4413 1594 4413 
Q 1084 4413 634 4069 
L 634 4647 
Q 1109 4922 1744 4922 
Q 2363 4922 2738 4598 
Q 3113 4275 3113 3759 
Q 3113 2809 2144 2538 
L 2144 2525 
Q 2669 2469 2973 2155 
Q 3278 1841 3278 1372 
Q 3278 719 2808 319 
Q 2338 -81 1556 -81 
Q 869 -81 447 175 
L 447 809 
z
" transform="scale(0.015625)"/>
       </defs>
       <use xlink:href="#MicrosoftYaHei-33"/>
       <use xlink:href="#MicrosoftYaHei-32" transform="translate(58.642578 0)"/>
       <use xlink:href="#MicrosoftYaHei-d7" transform="translate(117.285156 0)"/>
      </g>
     </g>
    </g>
    <g id="text_7">
     <!-- 训练数据量（相对倍数，对数坐标） -->
     <g transform="translate(191.663906 291.004531) scale(0.08 -0.08)">
      <defs>
       <path id="MicrosoftYaHei-8bad" d="M 2581 5178 
L 3056 5178 
L 3056 2722 
Q 3056 1272 2831 466 
Q 2613 -297 1981 -872 
Q 1769 -678 1550 -534 
Q 2156 -66 2375 647 
Q 2581 1353 2581 2678 
L 2581 5178 
z
M 5506 5184 
L 5981 5184 
L 5981 -772 
L 5506 -772 
L 5506 5184 
z
M 4038 4953 
L 4513 4953 
L 4513 -403 
L 4038 -403 
L 4038 4953 
z
M 2025 1372 
Q 2025 1059 2069 784 
Q 1438 247 913 -284 
L 625 116 
Q 838 316 838 691 
L 838 2803 
L 81 2803 
L 81 3253 
L 1313 3253 
L 1313 709 
Q 1650 1009 2025 1372 
z
M 875 5191 
Q 1438 4628 1850 4166 
L 1413 3797 
Q 1031 4303 500 4872 
L 875 5191 
z
" transform="scale(0.015625)"/>
       <path id="MicrosoftYaHei-7ec3" d="M 2363 3403 
L 3059 3403 
Q 3203 3781 3344 4197 
L 2213 4197 
L 2213 4622 
L 3488 4622 
Q 3603 4975 3719 5353 
L 4219 5253 
Q 4109 4931 4000 4622 
L 6000 4622 
L 6000 4197 
L 3847 4197 
Q 3700 3791 3553 3403 
L 4763 3403 
L 4763 2016 
L 6025 2016 
L 6025 1591 
L 4763 1591 
L 4763 3 
Q 4763 -734 4056 -734 
Q 3788 -734 3369 -728 
Q 3331 -516 3263 -241 
Q 3638 -284 3931 -284 
Q 4300 -284 4300 109 
L 4300 1591 
L 2475 1591 
L 2475 1997 
Q 2688 2450 2897 2978 
L 2363 2978 
L 2363 3403 
z
M 888 1566 
Q 1531 1659 2219 1778 
Q 2181 1547 2163 1297 
Q 1600 1216 319 1003 
L 219 1472 
Q 669 1969 1175 2794 
Q 666 2763 219 2722 
L 100 3147 
Q 700 3966 1294 5366 
L 1750 5178 
Q 1088 3878 644 3184 
Q 1078 3194 1419 3203 
Q 1669 3638 1931 4147 
L 2388 3916 
Q 1656 2659 888 1566 
z
M 3013 2016 
L 4300 2016 
L 4300 2978 
L 3394 2978 
Q 3203 2484 3013 2016 
z
M 94 122 
Q 1031 291 2219 559 
Q 2200 316 2206 78 
Q 1231 -103 219 -353 
L 94 122 
z
M 3194 1272 
L 3638 1066 
Q 3194 203 2700 -547 
Q 2500 -397 2275 -278 
Q 2813 459 3194 1272 
z
M 5094 1041 
L 5500 1278 
Q 5963 578 6381 -122 
L 5950 -391 
Q 5544 366 5094 1041 
z
" transform="scale(0.015625)"/>
       <path id="MicrosoftYaHei-6570" d="M 4175 5303 
L 4675 5228 
Q 4544 4622 4369 4097 
L 6281 4097 
L 6281 3672 
L 5888 3672 
Q 5731 1834 5088 753 
Q 5594 66 6375 -372 
Q 6175 -647 6038 -866 
Q 5275 -372 4769 309 
Q 4194 -403 3400 -928 
Q 3263 -747 3044 -534 
Q 3919 41 4463 772 
Q 3956 1647 3794 2791 
Q 3663 2559 3519 2359 
Q 3394 2541 3206 2759 
Q 3931 3803 4175 5303 
z
M 150 1697 
L 1100 1697 
Q 1238 1934 1369 2184 
L 1819 2041 
Q 1719 1866 1619 1697 
L 3150 1697 
L 3150 1291 
Q 2913 678 2431 216 
Q 2775 53 3131 -109 
L 2856 -541 
Q 2469 -322 2050 -103 
Q 1344 -609 269 -903 
Q 169 -703 56 -466 
Q 969 -259 1600 128 
Q 1063 403 475 691 
Q 675 978 863 1284 
L 150 1284 
L 150 1697 
z
M 219 3847 
L 1656 3847 
L 1656 5247 
L 2119 5247 
L 2119 3847 
L 3319 3847 
L 3319 3434 
L 2119 3434 
L 2119 3053 
L 2306 3266 
Q 2888 2841 3281 2516 
L 2981 2166 
Q 2638 2491 2119 2897 
L 2119 2184 
L 1656 2184 
L 1656 3059 
Q 1088 2466 331 2016 
Q 213 2197 63 2397 
Q 850 2822 1506 3434 
L 219 3434 
L 219 3847 
z
M 5388 3672 
L 4219 3672 
Q 4188 3591 4150 3516 
Q 4263 2191 4775 1247 
Q 5275 2159 5388 3672 
z
M 1088 834 
Q 1531 634 2000 416 
Q 2431 784 2675 1284 
L 1375 1284 
Q 1231 1053 1088 834 
z
M 3038 5091 
L 3425 4834 
Q 3081 4384 2738 4003 
Q 2594 4128 2400 4266 
Q 2725 4647 3038 5091 
z
M 381 4816 
L 738 5059 
Q 1019 4716 1319 4322 
L 931 4047 
Q 656 4453 381 4816 
z
" transform="scale(0.015625)"/>
       <path id="MicrosoftYaHei-636e" d="M 2900 1334 
L 4188 1334 
L 4188 2128 
L 2731 2128 
Q 2663 206 1844 -841 
Q 1694 -647 1506 -447 
Q 2288 516 2288 2509 
L 2288 4947 
L 5975 4947 
L 5975 3134 
L 5525 3134 
L 5525 3328 
L 2738 3328 
L 2738 2553 
L 4188 2553 
L 4188 3209 
L 4638 3209 
L 4638 2553 
L 6288 2553 
L 6288 2128 
L 4638 2128 
L 4638 1334 
L 5938 1334 
L 5938 -778 
L 5488 -778 
L 5488 -416 
L 3350 -416 
L 3350 -778 
L 2900 -778 
L 2900 1334 
z
M 100 1966 
Q 544 2088 963 2213 
L 963 3641 
L 175 3641 
L 175 4091 
L 963 4091 
L 963 5284 
L 1425 5284 
L 1425 4091 
L 2106 4091 
L 2106 3641 
L 1425 3641 
L 1425 2356 
Q 1722 2450 2006 2547 
Q 2013 2266 2044 2059 
Q 1722 1956 1425 1856 
L 1425 -34 
Q 1425 -741 806 -753 
Q 613 -759 231 -747 
Q 206 -497 156 -228 
Q 500 -266 681 -266 
Q 963 -266 963 53 
L 963 1703 
Q 534 1559 163 1428 
L 100 1966 
z
M 5525 4534 
L 2738 4534 
L 2738 3741 
L 5525 3741 
L 5525 4534 
z
M 5488 922 
L 3350 922 
L 3350 -9 
L 5488 -9 
L 5488 922 
z
" transform="scale(0.015625)"/>
       <path id="MicrosoftYaHei-91cf" d="M 113 -278 
L 2981 -278 
L 2981 78 
L 475 78 
L 475 403 
L 2981 403 
L 2981 759 
L 1494 759 
L 1494 597 
L 1069 597 
L 1069 2516 
L 5350 2516 
L 5350 597 
L 4925 597 
L 4925 759 
L 3419 759 
L 3419 403 
L 5931 403 
L 5931 78 
L 3419 78 
L 3419 -278 
L 6288 -278 
L 6288 -616 
L 113 -616 
L 113 -278 
z
M 1119 5072 
L 5306 5072 
L 5306 3284 
L 4881 3284 
L 4881 3453 
L 1544 3453 
L 1544 3284 
L 1119 3284 
L 1119 5072 
z
M 163 3153 
L 6263 3153 
L 6263 2816 
L 163 2816 
L 163 3153 
z
M 1544 3778 
L 4881 3778 
L 4881 4116 
L 1544 4116 
L 1544 3778 
z
M 4881 4747 
L 1544 4747 
L 1544 4416 
L 4881 4416 
L 4881 4747 
z
M 3419 1084 
L 4925 1084 
L 4925 1491 
L 3419 1491 
L 3419 1084 
z
M 1494 1084 
L 2981 1084 
L 2981 1491 
L 1494 1491 
L 1494 1084 
z
M 4925 2191 
L 3419 2191 
L 3419 1791 
L 4925 1791 
L 4925 2191 
z
M 1494 1791 
L 2981 1791 
L 2981 2191 
L 1494 2191 
L 1494 1791 
z
" transform="scale(0.015625)"/>
       <path id="MicrosoftYaHei-ff08" d="M 5288 -1100 
Q 4172 119 4172 1850 
Q 4172 3603 5288 4838 
L 5825 4838 
Q 4716 3572 4716 1856 
Q 4716 166 5819 -1100 
L 5288 -1100 
z
" transform="scale(0.015625)"/>
       <path id="MicrosoftYaHei-76f8" d="M 2738 4891 
L 6025 4891 
L 6025 -822 
L 5550 -822 
L 5550 -397 
L 3213 -397 
L 3213 -822 
L 2738 -822 
L 2738 4891 
z
M 94 1409 
Q 784 2372 1128 3622 
L 169 3622 
L 169 4041 
L 1138 4041 
L 1138 5284 
L 1594 5284 
L 1594 4041 
L 2506 4041 
L 2506 3622 
L 1594 3622 
L 1594 2534 
L 1844 2791 
Q 2275 2372 2638 1984 
L 2300 1653 
Q 1956 2059 1594 2444 
L 1594 -809 
L 1138 -809 
L 1138 2444 
Q 800 1516 319 866 
Q 225 1134 94 1409 
z
M 3213 28 
L 5550 28 
L 5550 1241 
L 3213 1241 
L 3213 28 
z
M 5550 4466 
L 3213 4466 
L 3213 3266 
L 5550 3266 
L 5550 4466 
z
M 3213 1653 
L 5550 1653 
L 5550 2853 
L 3213 2853 
L 3213 1653 
z
" transform="scale(0.015625)"/>
       <path id="MicrosoftYaHei-5bf9" d="M 694 3691 
Q 1234 2909 1741 2166 
Q 2113 3081 2213 4147 
L 250 4147 
L 250 4622 
L 2725 4622 
L 2725 4166 
Q 2553 2809 2059 1700 
Q 2569 953 3044 247 
L 2594 -53 
Q 2203 563 1803 1181 
Q 1247 163 388 -622 
Q 263 -428 81 -166 
Q 975 638 1500 1647 
Q 919 2538 319 3434 
L 694 3691 
z
M 2975 3941 
L 5056 3941 
L 5056 5278 
L 5563 5278 
L 5563 3941 
L 6325 3941 
L 6325 3466 
L 5563 3466 
L 5563 191 
Q 5563 -716 4669 -716 
Q 4388 -716 3744 -709 
Q 3713 -478 3644 -147 
Q 4263 -197 4588 -197 
Q 5056 -197 5056 278 
L 5056 3466 
L 2975 3466 
L 2975 3941 
z
M 3088 2684 
L 3494 2928 
Q 4000 2184 4388 1484 
L 3919 1216 
Q 3550 1922 3088 2684 
z
" transform="scale(0.015625)"/>
       <path id="MicrosoftYaHei-500d" d="M 2338 1709 
L 5750 1709 
L 5750 -816 
L 5275 -816 
L 5275 -409 
L 2813 -409 
L 2813 -816 
L 2338 -816 
L 2338 1709 
z
M 56 2278 
Q 919 3516 1394 5303 
L 1875 5166 
Q 1619 4331 1300 3603 
L 1300 -822 
L 838 -822 
L 838 2669 
Q 566 2178 263 1753 
Q 169 2016 56 2278 
z
M 5275 1278 
L 2813 1278 
L 2813 9 
L 5275 9 
L 5275 1278 
z
M 1775 2766 
L 4850 2766 
L 4506 2959 
Q 4875 3447 5125 3953 
L 5588 3728 
Q 5297 3253 4947 2766 
L 6313 2766 
L 6313 2328 
L 1775 2328 
L 1775 2766 
z
M 2006 4409 
L 3984 4409 
Q 3769 4778 3506 5141 
L 3925 5384 
Q 4206 5009 4444 4622 
L 4072 4409 
L 6094 4409 
L 6094 3972 
L 2006 3972 
L 2006 4409 
z
M 2525 3716 
L 2925 3959 
Q 3288 3459 3556 3041 
L 3131 2772 
Q 2825 3309 2525 3716 
z
" transform="scale(0.015625)"/>
       <path id="MicrosoftYaHei-ff0c" d="M 1931 775 
L 1403 -891 
L 966 -891 
L 1350 775 
L 1931 775 
z
" transform="scale(0.015625)"/>
       <path id="MicrosoftYaHei-5750" d="M 150 -53 
L 2950 -53 
L 2950 1134 
L 850 1134 
L 850 1609 
L 2950 1609 
L 2950 5291 
L 3450 5291 
L 3450 1609 
L 5550 1609 
L 5550 1134 
L 3450 1134 
L 3450 -53 
L 6275 -53 
L 6275 -528 
L 150 -528 
L 150 -53 
z
M 100 1934 
Q 1106 3084 1350 4772 
L 1850 4684 
Q 1763 4209 1631 3778 
Q 2088 3228 2694 2403 
L 2275 2053 
Q 1813 2784 1456 3278 
Q 1088 2322 475 1572 
Q 300 1778 100 1934 
z
M 3650 2266 
Q 4531 3253 4894 4772 
L 5375 4634 
Q 5219 4072 5000 3572 
Q 5663 2916 6269 2259 
L 5869 1891 
Q 5269 2647 4806 3141 
Q 4425 2422 3988 1897 
Q 3831 2084 3650 2266 
z
" transform="scale(0.015625)"/>
       <path id="MicrosoftYaHei-6807" d="M 75 1409 
Q 769 2478 1025 3647 
L 119 3647 
L 119 4072 
L 1069 4072 
L 1069 5297 
L 1506 5297 
L 1506 4072 
L 2356 4072 
L 2356 3647 
L 1506 3647 
L 1506 2541 
L 1775 2822 
Q 2175 2478 2481 2159 
L 2150 1816 
Q 1850 2156 1506 2503 
L 1506 -797 
L 1069 -797 
L 1069 2588 
Q 738 1513 281 859 
Q 194 1128 75 1409 
z
M 2350 3097 
L 6250 3097 
L 6250 2659 
L 4525 2659 
L 4525 47 
Q 4525 -734 3806 -734 
Q 3469 -741 2975 -728 
Q 2944 -503 2888 -209 
Q 3319 -259 3675 -259 
Q 4050 -259 4050 203 
L 4050 2659 
L 2350 2659 
L 2350 3097 
z
M 2638 4928 
L 5963 4928 
L 5963 4491 
L 2638 4491 
L 2638 4928 
z
M 4938 1853 
L 5381 2066 
Q 5975 928 6369 72 
L 5869 -147 
Q 5463 822 4938 1853 
z
M 2931 2066 
L 3400 1878 
Q 2888 734 2381 -153 
Q 2188 -41 1925 66 
Q 2425 872 2931 2066 
z
" transform="scale(0.015625)"/>
       <path id="MicrosoftYaHei-ff09" d="M 1113 -1100 
L 575 -1100 
Q 1684 163 1684 1888 
Q 1684 3581 581 4838 
L 1113 4838 
Q 2222 3628 2222 1888 
Q 2222 128 1113 -1100 
z
" transform="scale(0.015625)"/>
      </defs>
      <use xlink:href="#MicrosoftYaHei-8bad"/>
      <use xlink:href="#MicrosoftYaHei-7ec3" transform="translate(100 0)"/>
      <use xlink:href="#MicrosoftYaHei-6570" transform="translate(200 0)"/>
      <use xlink:href="#MicrosoftYaHei-636e" transform="translate(300 0)"/>
      <use xlink:href="#MicrosoftYaHei-91cf" transform="translate(400 0)"/>
      <use xlink:href="#MicrosoftYaHei-ff08" transform="translate(500 0)"/>
      <use xlink:href="#MicrosoftYaHei-76f8" transform="translate(600 0)"/>
      <use xlink:href="#MicrosoftYaHei-5bf9" transform="translate(700 0)"/>
      <use xlink:href="#MicrosoftYaHei-500d" transform="translate(800 0)"/>
      <use xlink:href="#MicrosoftYaHei-6570" transform="translate(900 0)"/>
      <use xlink:href="#MicrosoftYaHei-ff0c" transform="translate(1000 0)"/>
      <use xlink:href="#MicrosoftYaHei-5bf9" transform="translate(1100 0)"/>
      <use xlink:href="#MicrosoftYaHei-6570" transform="translate(1200 0)"/>
      <use xlink:href="#MicrosoftYaHei-5750" transform="translate(1300 0)"/>
      <use xlink:href="#MicrosoftYaHei-6807" transform="translate(1400 0)"/>
      <use xlink:href="#MicrosoftYaHei-ff09" transform="translate(1500 0)"/>
     </g>
    </g>
   </g>
   <g id="matplotlib.axis_2">
    <g id="ytick_1">
     <g id="line2d_13">
      <path d="M 36.478906 241.20875 
L 474.848906 241.20875 
" clip-path="url(#pd0056e81f1)" style="fill: none; stroke: #b0b0b0; stroke-opacity: 0.22; stroke-width: 0.8; stroke-linecap: square"/>
     </g>
     <g id="line2d_14">
      <defs>
       <path id="m5609f104d3" d="M 0 0 
L -3.5 0 
" style="stroke: #000000; stroke-width: 0.8"/>
      </defs>
      <g>
       <use xlink:href="#m5609f104d3" x="36.478906" y="241.20875" style="stroke: #000000; stroke-width: 0.8"/>
      </g>
     </g>
     <g id="text_8">
      <!-- 2.0 -->
      <g transform="translate(19.58375 244.006562) scale(0.07 -0.07)">
       <defs>
        <path id="MicrosoftYaHei-2e" d="M 372 322 
Q 372 491 487 606 
Q 603 722 775 722 
Q 950 722 1065 605 
Q 1181 488 1181 322 
Q 1181 159 1065 42 
Q 950 -75 772 -75 
Q 600 -75 486 42 
Q 372 159 372 322 
z
" transform="scale(0.015625)"/>
        <path id="MicrosoftYaHei-30" d="M 284 2325 
Q 284 3606 709 4264 
Q 1134 4922 1941 4922 
Q 3478 4922 3478 2441 
Q 3478 1216 3045 567 
Q 2613 -81 1831 -81 
Q 1094 -81 689 534 
Q 284 1150 284 2325 
z
M 909 2353 
Q 909 425 1888 425 
Q 2850 425 2850 2384 
Q 2850 4413 1906 4413 
Q 909 4413 909 2353 
z
" transform="scale(0.015625)"/>
       </defs>
       <use xlink:href="#MicrosoftYaHei-32"/>
       <use xlink:href="#MicrosoftYaHei-2e" transform="translate(58.642578 0)"/>
       <use xlink:href="#MicrosoftYaHei-30" transform="translate(82.714844 0)"/>
      </g>
     </g>
    </g>
    <g id="ytick_2">
     <g id="line2d_15">
      <path d="M 36.478906 213.35875 
L 474.848906 213.35875 
" clip-path="url(#pd0056e81f1)" style="fill: none; stroke: #b0b0b0; stroke-opacity: 0.22; stroke-width: 0.8; stroke-linecap: square"/>
     </g>
     <g id="line2d_16">
      <g>
       <use xlink:href="#m5609f104d3" x="36.478906" y="213.35875" style="stroke: #000000; stroke-width: 0.8"/>
      </g>
     </g>
     <g id="text_9">
      <!-- 2.2 -->
      <g transform="translate(19.58375 216.156562) scale(0.07 -0.07)">
       <use xlink:href="#MicrosoftYaHei-32"/>
       <use xlink:href="#MicrosoftYaHei-2e" transform="translate(58.642578 0)"/>
       <use xlink:href="#MicrosoftYaHei-32" transform="translate(82.714844 0)"/>
      </g>
     </g>
    </g>
    <g id="ytick_3">
     <g id="line2d_17">
      <path d="M 36.478906 185.50875 
L 474.848906 185.50875 
" clip-path="url(#pd0056e81f1)" style="fill: none; stroke: #b0b0b0; stroke-opacity: 0.22; stroke-width: 0.8; stroke-linecap: square"/>
     </g>
     <g id="line2d_18">
      <g>
       <use xlink:href="#m5609f104d3" x="36.478906" y="185.50875" style="stroke: #000000; stroke-width: 0.8"/>
      </g>
     </g>
     <g id="text_10">
      <!-- 2.4 -->
      <g transform="translate(19.58375 188.306562) scale(0.07 -0.07)">
       <use xlink:href="#MicrosoftYaHei-32"/>
       <use xlink:href="#MicrosoftYaHei-2e" transform="translate(58.642578 0)"/>
       <use xlink:href="#MicrosoftYaHei-34" transform="translate(82.714844 0)"/>
      </g>
     </g>
    </g>
    <g id="ytick_4">
     <g id="line2d_19">
      <path d="M 36.478906 157.65875 
L 474.848906 157.65875 
" clip-path="url(#pd0056e81f1)" style="fill: none; stroke: #b0b0b0; stroke-opacity: 0.22; stroke-width: 0.8; stroke-linecap: square"/>
     </g>
     <g id="line2d_20">
      <g>
       <use xlink:href="#m5609f104d3" x="36.478906" y="157.65875" style="stroke: #000000; stroke-width: 0.8"/>
      </g>
     </g>
     <g id="text_11">
      <!-- 2.6 -->
      <g transform="translate(19.58375 160.456562) scale(0.07 -0.07)">
       <use xlink:href="#MicrosoftYaHei-32"/>
       <use xlink:href="#MicrosoftYaHei-2e" transform="translate(58.642578 0)"/>
       <use xlink:href="#MicrosoftYaHei-36" transform="translate(82.714844 0)"/>
      </g>
     </g>
    </g>
    <g id="ytick_5">
     <g id="line2d_21">
      <path d="M 36.478906 129.80875 
L 474.848906 129.80875 
" clip-path="url(#pd0056e81f1)" style="fill: none; stroke: #b0b0b0; stroke-opacity: 0.22; stroke-width: 0.8; stroke-linecap: square"/>
     </g>
     <g id="line2d_22">
      <g>
       <use xlink:href="#m5609f104d3" x="36.478906" y="129.80875" style="stroke: #000000; stroke-width: 0.8"/>
      </g>
     </g>
     <g id="text_12">
      <!-- 2.8 -->
      <g transform="translate(19.58375 132.606562) scale(0.07 -0.07)">
       <use xlink:href="#MicrosoftYaHei-32"/>
       <use xlink:href="#MicrosoftYaHei-2e" transform="translate(58.642578 0)"/>
       <use xlink:href="#MicrosoftYaHei-38" transform="translate(82.714844 0)"/>
      </g>
     </g>
    </g>
    <g id="ytick_6">
     <g id="line2d_23">
      <path d="M 36.478906 101.95875 
L 474.848906 101.95875 
" clip-path="url(#pd0056e81f1)" style="fill: none; stroke: #b0b0b0; stroke-opacity: 0.22; stroke-width: 0.8; stroke-linecap: square"/>
     </g>
     <g id="line2d_24">
      <g>
       <use xlink:href="#m5609f104d3" x="36.478906" y="101.95875" style="stroke: #000000; stroke-width: 0.8"/>
      </g>
     </g>
     <g id="text_13">
      <!-- 3.0 -->
      <g transform="translate(19.58375 104.756562) scale(0.07 -0.07)">
       <use xlink:href="#MicrosoftYaHei-33"/>
       <use xlink:href="#MicrosoftYaHei-2e" transform="translate(58.642578 0)"/>
       <use xlink:href="#MicrosoftYaHei-30" transform="translate(82.714844 0)"/>
      </g>
     </g>
    </g>
    <g id="ytick_7">
     <g id="line2d_25">
      <path d="M 36.478906 74.10875 
L 474.848906 74.10875 
" clip-path="url(#pd0056e81f1)" style="fill: none; stroke: #b0b0b0; stroke-opacity: 0.22; stroke-width: 0.8; stroke-linecap: square"/>
     </g>
     <g id="line2d_26">
      <g>
       <use xlink:href="#m5609f104d3" x="36.478906" y="74.10875" style="stroke: #000000; stroke-width: 0.8"/>
      </g>
     </g>
     <g id="text_14">
      <!-- 3.2 -->
      <g transform="translate(19.58375 76.906562) scale(0.07 -0.07)">
       <use xlink:href="#MicrosoftYaHei-33"/>
       <use xlink:href="#MicrosoftYaHei-2e" transform="translate(58.642578 0)"/>
       <use xlink:href="#MicrosoftYaHei-32" transform="translate(82.714844 0)"/>
      </g>
     </g>
    </g>
    <g id="ytick_8">
     <g id="line2d_27">
      <path d="M 36.478906 46.25875 
L 474.848906 46.25875 
" clip-path="url(#pd0056e81f1)" style="fill: none; stroke: #b0b0b0; stroke-opacity: 0.22; stroke-width: 0.8; stroke-linecap: square"/>
     </g>
     <g id="line2d_28">
      <g>
       <use xlink:href="#m5609f104d3" x="36.478906" y="46.25875" style="stroke: #000000; stroke-width: 0.8"/>
      </g>
     </g>
     <g id="text_15">
      <!-- 3.4 -->
      <g transform="translate(19.58375 49.056562) scale(0.07 -0.07)">
       <use xlink:href="#MicrosoftYaHei-33"/>
       <use xlink:href="#MicrosoftYaHei-2e" transform="translate(58.642578 0)"/>
       <use xlink:href="#MicrosoftYaHei-34" transform="translate(82.714844 0)"/>
      </g>
     </g>
    </g>
    <g id="text_16">
     <!-- 交叉熵损失（nats） -->
     <g transform="translate(13.595 179.751875) rotate(-90) scale(0.08 -0.08)">
      <defs>
       <path id="MicrosoftYaHei-4ea4" d="M 4194 2641 
L 4675 2434 
Q 4209 1375 3566 713 
Q 4503 19 6225 -278 
Q 5994 -591 5850 -803 
Q 4184 -378 3194 375 
Q 2334 -297 463 -847 
Q 325 -628 150 -366 
Q 1909 78 2803 713 
Q 2184 1344 1738 2359 
L 2156 2597 
Q 2566 1669 3194 1041 
Q 3766 1609 4194 2641 
z
M 194 4384 
L 3122 4384 
Q 2975 4691 2700 5128 
L 3163 5353 
Q 3431 4978 3638 4566 
L 3288 4384 
L 6194 4384 
L 6194 3922 
L 194 3922 
L 194 4384 
z
M 2044 3634 
L 2444 3309 
Q 1569 2391 625 1666 
Q 469 1859 275 2066 
Q 1219 2734 2044 3634 
z
M 4288 3666 
Q 5431 2766 6075 2159 
Q 5900 1984 5700 1753 
Q 4994 2478 3944 3341 
L 4288 3666 
z
" transform="scale(0.015625)"/>
       <path id="MicrosoftYaHei-53c9" d="M 613 4809 
L 5438 4809 
L 5438 4341 
Q 4934 2241 3600 897 
Q 4516 238 6313 -228 
Q 6081 -516 5881 -784 
Q 4119 -169 3197 541 
Q 2181 -241 438 -809 
Q 288 -584 94 -322 
Q 1863 181 2803 881 
Q 1434 2169 1025 4353 
L 613 4353 
L 613 4809 
z
M 4894 4353 
L 1550 4353 
Q 1838 2469 3203 1225 
Q 4463 2425 4894 4353 
z
M 2531 3728 
L 2906 3984 
Q 3425 3353 3781 2884 
L 3356 2591 
Q 2719 3509 2531 3728 
z
" transform="scale(0.015625)"/>
       <path id="MicrosoftYaHei-71b5" d="M 4675 2878 
Q 5119 2466 5619 1959 
L 5619 2978 
L 2725 2978 
L 2725 -816 
L 2275 -816 
L 2275 -47 
L 1863 -303 
Q 1544 359 1206 997 
Q 975 -41 400 -784 
Q 256 -597 63 -403 
Q 850 628 919 2141 
Q 969 2903 975 5241 
L 1425 5241 
Q 1419 3603 1381 2691 
Q 1606 3234 1850 4016 
L 2269 3847 
Q 2031 3159 1719 2434 
L 1381 2578 
Q 1388 2178 1313 1634 
Q 1931 609 2275 -34 
L 2275 3378 
L 3331 3378 
Q 3194 3597 2925 3947 
L 3263 4178 
L 2069 4178 
L 2069 4591 
L 4044 4591 
Q 3913 4841 3725 5153 
L 4150 5353 
Q 4381 4984 4513 4722 
L 4238 4591 
L 6231 4591 
L 6231 4178 
L 4969 4178 
L 5381 3972 
Q 5169 3678 4938 3378 
L 6069 3378 
L 6069 -34 
Q 6069 -741 5394 -741 
Q 4963 -741 4681 -734 
Q 4663 -528 4581 -241 
Q 4963 -297 5319 -297 
Q 5619 -297 5619 47 
L 5619 1947 
L 5275 1653 
Q 4825 2159 4363 2616 
L 4675 2878 
z
M 3225 1778 
L 5119 1778 
L 5119 141 
L 3638 141 
L 3638 -116 
L 3225 -116 
L 3225 1778 
z
M 4706 503 
L 4706 1416 
L 3638 1416 
L 3638 503 
L 4706 503 
z
M 3775 3541 
L 3544 3378 
L 4456 3378 
Q 4719 3778 4938 4178 
L 3281 4178 
Q 3488 3928 3775 3541 
z
M 69 3847 
L 456 3972 
Q 656 3328 888 2541 
L 450 2372 
Q 225 3316 69 3847 
z
M 3581 2884 
L 3950 2622 
Q 3556 2128 3038 1616 
Q 2913 1772 2744 1947 
Q 3256 2397 3581 2884 
z
" transform="scale(0.015625)"/>
       <path id="MicrosoftYaHei-635f" d="M 2688 5041 
L 5756 5041 
L 5756 3134 
L 5300 3134 
L 5300 3316 
L 3144 3316 
L 3144 3147 
L 2688 3147 
L 2688 5041 
z
M 88 1947 
Q 544 2053 969 2159 
L 969 3622 
L 144 3622 
L 144 4072 
L 969 4072 
L 969 5278 
L 1431 5278 
L 1431 4072 
L 2250 4072 
L 2250 3622 
L 1431 3622 
L 1431 2284 
Q 1825 2391 2188 2497 
Q 2200 2222 2231 2028 
Q 1881 1934 1431 1803 
L 1431 -72 
Q 1431 -766 881 -778 
Q 588 -784 219 -772 
Q 194 -516 138 -278 
Q 525 -322 706 -322 
Q 969 -322 969 9 
L 969 1666 
Q 588 1553 150 1422 
L 88 1947 
z
M 2431 2734 
L 5994 2734 
L 5994 472 
L 5538 472 
L 5538 2316 
L 2888 2316 
L 2888 459 
L 2431 459 
L 2431 2734 
z
M 4456 2034 
Q 4456 1253 4331 791 
Q 5356 203 6288 -422 
L 5938 -841 
Q 5169 -241 4150 359 
Q 3619 -547 2081 -872 
Q 1988 -691 1794 -397 
Q 3569 -134 3875 953 
Q 3975 1297 3975 2034 
L 4456 2034 
z
M 5300 4622 
L 3144 4622 
L 3144 3734 
L 5300 3734 
L 5300 4622 
z
" transform="scale(0.015625)"/>
       <path id="MicrosoftYaHei-5931" d="M 100 -391 
Q 2419 394 2872 1872 
L 188 1872 
L 188 2347 
L 2966 2347 
Q 3003 2778 3022 3609 
L 1375 3609 
Q 1094 3094 738 2634 
Q 594 2766 344 2934 
Q 1088 3853 1444 5059 
L 1931 4909 
Q 1791 4481 1613 4084 
L 3034 4084 
Q 3041 4628 3044 5309 
L 3575 5309 
Q 3563 4638 3550 4084 
L 5888 4084 
L 5888 3609 
L 3538 3609 
Q 3519 2850 3497 2347 
L 6231 2347 
L 6231 1872 
L 3544 1872 
Q 4138 300 6319 -272 
Q 6119 -534 5944 -778 
Q 3844 -28 3250 1503 
Q 2756 72 488 -866 
Q 356 -697 100 -391 
z
" transform="scale(0.015625)"/>
       <path id="MicrosoftYaHei-6e" d="M 3469 0 
L 2859 0 
L 2859 1966 
Q 2859 3031 2081 3031 
Q 1678 3031 1418 2731 
Q 1159 2431 1159 1972 
L 1159 0 
L 547 0 
L 547 3456 
L 1159 3456 
L 1159 2884 
L 1172 2884 
Q 1563 3538 2306 3538 
Q 2875 3538 3172 3173 
Q 3469 2809 3469 2113 
L 3469 0 
z
" transform="scale(0.015625)"/>
       <path id="MicrosoftYaHei-61" d="M 628 3216 
Q 1144 3538 1819 3538 
Q 3069 3538 3069 2225 
L 3069 0 
L 2463 0 
L 2463 534 
L 2447 534 
Q 2088 -81 1388 -81 
Q 884 -81 587 191 
Q 291 463 291 925 
Q 291 1894 1438 2053 
L 2463 2197 
Q 2463 3044 1763 3044 
Q 1141 3044 628 2625 
L 628 3216 
z
M 1653 1625 
Q 1228 1569 1067 1412 
Q 906 1256 906 975 
Q 906 728 1081 572 
Q 1256 416 1544 416 
Q 1944 416 2203 697 
Q 2463 978 2463 1403 
L 2463 1734 
L 1653 1625 
z
" transform="scale(0.015625)"/>
       <path id="MicrosoftYaHei-74" d="M 2206 34 
Q 2006 -75 1666 -75 
Q 738 -75 738 953 
L 738 2950 
L 144 2950 
L 144 3456 
L 738 3456 
L 738 4288 
L 1347 4481 
L 1347 3456 
L 2206 3456 
L 2206 2950 
L 1347 2950 
L 1347 1063 
Q 1347 722 1462 575 
Q 1578 428 1847 428 
Q 2053 428 2206 544 
L 2206 34 
z
" transform="scale(0.015625)"/>
       <path id="MicrosoftYaHei-73" d="M 353 747 
Q 816 413 1350 413 
Q 2066 413 2066 881 
Q 2066 1081 1909 1211 
Q 1753 1341 1275 1519 
Q 700 1750 528 1976 
Q 356 2203 356 2525 
Q 356 2984 745 3261 
Q 1134 3538 1703 3538 
Q 2144 3538 2522 3384 
L 2522 2794 
Q 2134 3044 1644 3044 
Q 1350 3044 1165 2916 
Q 981 2788 981 2578 
Q 981 2372 1114 2256 
Q 1247 2141 1703 1959 
Q 2281 1744 2484 1512 
Q 2688 1281 2688 941 
Q 2688 466 2298 192 
Q 1909 -81 1291 -81 
Q 753 -81 353 122 
L 353 747 
z
" transform="scale(0.015625)"/>
      </defs>
      <use xlink:href="#MicrosoftYaHei-4ea4"/>
      <use xlink:href="#MicrosoftYaHei-53c9" transform="translate(100 0)"/>
      <use xlink:href="#MicrosoftYaHei-71b5" transform="translate(200 0)"/>
      <use xlink:href="#MicrosoftYaHei-635f" transform="translate(300 0)"/>
      <use xlink:href="#MicrosoftYaHei-5931" transform="translate(400 0)"/>
      <use xlink:href="#MicrosoftYaHei-ff08" transform="translate(500 0)"/>
      <use xlink:href="#MicrosoftYaHei-6e" transform="translate(600 0)"/>
      <use xlink:href="#MicrosoftYaHei-61" transform="translate(661.621094 0)"/>
      <use xlink:href="#MicrosoftYaHei-74" transform="translate(716.894531 0)"/>
      <use xlink:href="#MicrosoftYaHei-73" transform="translate(754.150391 0)"/>
      <use xlink:href="#MicrosoftYaHei-ff09" transform="translate(800.439453 0)"/>
     </g>
    </g>
   </g>
   <g id="line2d_29">
    <path d="M 56.404815 32.33375 
L 136.108452 76.89375 
L 215.812088 121.45375 
L 295.515724 166.01375 
L 375.219361 210.57375 
L 454.922997 255.13375 
" clip-path="url(#pd0056e81f1)" style="fill: none; stroke: #b31b1b; stroke-width: 2.2; stroke-linecap: square"/>
    <defs>
     <path id="mf7d1835a57" d="M 0 2.5 
C 0.663008 2.5 1.29895 2.236584 1.767767 1.767767 
C 2.236584 1.29895 2.5 0.663008 2.5 0 
C 2.5 -0.663008 2.236584 -1.29895 1.767767 -1.767767 
C 1.29895 -2.236584 0.663008 -2.5 0 -2.5 
C -0.663008 -2.5 -1.29895 -2.236584 -1.767767 -1.767767 
C -2.236584 -1.29895 -2.5 -0.663008 -2.5 0 
C -2.5 0.663008 -2.236584 1.29895 -1.767767 1.767767 
C -1.29895 2.236584 -0.663008 2.5 0 2.5 
z
" style="stroke: #b31b1b"/>
    </defs>
    <g clip-path="url(#pd0056e81f1)">
     <use xlink:href="#mf7d1835a57" x="56.404815" y="32.33375" style="fill: #b31b1b; stroke: #b31b1b"/>
     <use xlink:href="#mf7d1835a57" x="136.108452" y="76.89375" style="fill: #b31b1b; stroke: #b31b1b"/>
     <use xlink:href="#mf7d1835a57" x="215.812088" y="121.45375" style="fill: #b31b1b; stroke: #b31b1b"/>
     <use xlink:href="#mf7d1835a57" x="295.515724" y="166.01375" style="fill: #b31b1b; stroke: #b31b1b"/>
     <use xlink:href="#mf7d1835a57" x="375.219361" y="210.57375" style="fill: #b31b1b; stroke: #b31b1b"/>
     <use xlink:href="#mf7d1835a57" x="454.922997" y="255.13375" style="fill: #b31b1b; stroke: #b31b1b"/>
    </g>
   </g>
   <g id="patch_3">
    <path d="M 36.478906 266.27375 
L 36.478906 21.19375 
" style="fill: none; stroke: #000000; stroke-width: 0.8; stroke-linejoin: miter; stroke-linecap: square"/>
   </g>
   <g id="patch_4">
    <path d="M 474.848906 266.27375 
L 474.848906 21.19375 
" style="fill: none; stroke: #000000; stroke-width: 0.8; stroke-linejoin: miter; stroke-linecap: square"/>
   </g>
   <g id="patch_5">
    <path d="M 36.478906 266.27375 
L 474.848906 266.27375 
" style="fill: none; stroke: #000000; stroke-width: 0.8; stroke-linejoin: miter; stroke-linecap: square"/>
   </g>
   <g id="patch_6">
    <path d="M 36.478906 21.19375 
L 474.848906 21.19375 
" style="fill: none; stroke: #000000; stroke-width: 0.8; stroke-linejoin: miter; stroke-linecap: square"/>
   </g>
   <g id="text_17">
    <!-- 3.50 -->
    <g style="fill: #b31b1b" transform="translate(50.404815 26.76375) scale(0.06 -0.06)">
     <defs>
      <path id="MicrosoftYaHei-35" d="M 3294 1494 
Q 3294 784 2823 350 
Q 2353 -84 1559 -84 
Q 878 -84 544 119 
L 544 744 
Q 1034 425 1544 425 
Q 2050 425 2361 704 
Q 2672 984 2672 1447 
Q 2672 1909 2348 2167 
Q 2025 2425 1434 2425 
Q 978 2425 613 2384 
L 791 4841 
L 3053 4841 
L 3053 4303 
L 1306 4303 
L 1206 2931 
L 1647 2950 
Q 2416 2950 2855 2567 
Q 3294 2184 3294 1494 
z
" transform="scale(0.015625)"/>
     </defs>
     <use xlink:href="#MicrosoftYaHei-33"/>
     <use xlink:href="#MicrosoftYaHei-2e" transform="translate(58.642578 0)"/>
     <use xlink:href="#MicrosoftYaHei-35" transform="translate(82.714844 0)"/>
     <use xlink:href="#MicrosoftYaHei-30" transform="translate(141.357422 0)"/>
    </g>
   </g>
   <g id="text_18">
    <!-- 3.18 -->
    <g style="fill: #b31b1b" transform="translate(130.108452 71.32375) scale(0.06 -0.06)">
     <use xlink:href="#MicrosoftYaHei-33"/>
     <use xlink:href="#MicrosoftYaHei-2e" transform="translate(58.642578 0)"/>
     <use xlink:href="#MicrosoftYaHei-31" transform="translate(82.714844 0)"/>
     <use xlink:href="#MicrosoftYaHei-38" transform="translate(141.357422 0)"/>
    </g>
   </g>
   <g id="text_19">
    <!-- 2.86 -->
    <g style="fill: #b31b1b" transform="translate(209.812088 115.88375) scale(0.06 -0.06)">
     <use xlink:href="#MicrosoftYaHei-32"/>
     <use xlink:href="#MicrosoftYaHei-2e" transform="translate(58.642578 0)"/>
     <use xlink:href="#MicrosoftYaHei-38" transform="translate(82.714844 0)"/>
     <use xlink:href="#MicrosoftYaHei-36" transform="translate(141.357422 0)"/>
    </g>
   </g>
   <g id="text_20">
    <!-- 2.54 -->
    <g style="fill: #b31b1b" transform="translate(289.515724 160.44375) scale(0.06 -0.06)">
     <use xlink:href="#MicrosoftYaHei-32"/>
     <use xlink:href="#MicrosoftYaHei-2e" transform="translate(58.642578 0)"/>
     <use xlink:href="#MicrosoftYaHei-35" transform="translate(82.714844 0)"/>
     <use xlink:href="#MicrosoftYaHei-34" transform="translate(141.357422 0)"/>
    </g>
   </g>
   <g id="text_21">
    <!-- 2.22 -->
    <g style="fill: #b31b1b" transform="translate(369.219361 205.00375) scale(0.06 -0.06)">
     <use xlink:href="#MicrosoftYaHei-32"/>
     <use xlink:href="#MicrosoftYaHei-2e" transform="translate(58.642578 0)"/>
     <use xlink:href="#MicrosoftYaHei-32" transform="translate(82.714844 0)"/>
     <use xlink:href="#MicrosoftYaHei-32" transform="translate(141.357422 0)"/>
    </g>
   </g>
   <g id="text_22">
    <!-- 1.90 -->
    <g style="fill: #b31b1b" transform="translate(448.922997 249.56375) scale(0.06 -0.06)">
     <defs>
      <path id="MicrosoftYaHei-39" d="M 578 656 
Q 978 425 1441 425 
Q 2091 425 2448 937 
Q 2806 1450 2806 2394 
Q 2800 2388 2794 2394 
Q 2475 1788 1722 1788 
Q 1113 1788 713 2206 
Q 313 2625 313 3294 
Q 313 4006 750 4464 
Q 1188 4922 1884 4922 
Q 2606 4922 3012 4355 
Q 3419 3788 3419 2703 
Q 3419 1363 2894 641 
Q 2369 -81 1441 -81 
Q 931 -81 578 84 
L 578 656 
z
M 931 3372 
Q 931 2884 1181 2598 
Q 1431 2313 1872 2313 
Q 2253 2313 2512 2573 
Q 2772 2834 2772 3206 
Q 2772 3728 2514 4070 
Q 2256 4413 1834 4413 
Q 1444 4413 1187 4116 
Q 931 3819 931 3372 
z
" transform="scale(0.015625)"/>
     </defs>
     <use xlink:href="#MicrosoftYaHei-31"/>
     <use xlink:href="#MicrosoftYaHei-2e" transform="translate(58.642578 0)"/>
     <use xlink:href="#MicrosoftYaHei-39" transform="translate(82.714844 0)"/>
     <use xlink:href="#MicrosoftYaHei-30" transform="translate(141.357422 0)"/>
    </g>
   </g>
   <g id="text_23">
    <!-- GPT-3：固定模型，线性降损需指数级数据 -->
    <g transform="translate(160.158437 15.19375) scale(0.1 -0.1)">
     <defs>
      <path id="MicrosoftYaHei-Bold-47" d="M 4494 325 
Q 3784 -84 2750 -84 
Q 1594 -84 925 566 
Q 256 1216 256 2344 
Q 256 3488 992 4205 
Q 1728 4922 2931 4922 
Q 3706 4922 4284 4703 
L 4284 3725 
Q 3722 4053 2909 4053 
Q 2209 4053 1775 3597 
Q 1341 3141 1341 2394 
Q 1341 1634 1733 1209 
Q 2125 784 2803 784 
Q 3206 784 3463 909 
L 3463 1903 
L 2484 1903 
L 2484 2731 
L 4494 2731 
L 4494 325 
z
" transform="scale(0.015625)"/>
      <path id="MicrosoftYaHei-Bold-50" d="M 1591 1688 
L 1591 0 
L 559 0 
L 559 4841 
L 2225 4841 
Q 4031 4841 4031 3309 
Q 4031 2566 3486 2117 
Q 2941 1669 2122 1688 
L 1591 1688 
z
M 1591 4041 
L 1591 2478 
L 2038 2478 
Q 2947 2478 2947 3269 
Q 2947 4041 2047 4041 
L 1591 4041 
z
" transform="scale(0.015625)"/>
      <path id="MicrosoftYaHei-Bold-54" d="M 3900 3997 
L 2519 3997 
L 2519 0 
L 1484 0 
L 1484 3997 
L 106 3997 
L 106 4841 
L 3900 4841 
L 3900 3997 
z
" transform="scale(0.015625)"/>
      <path id="MicrosoftYaHei-Bold-2d" d="M 2328 1497 
L 481 1497 
L 481 2209 
L 2328 2209 
L 2328 1497 
z
" transform="scale(0.015625)"/>
      <path id="MicrosoftYaHei-Bold-33" d="M 494 1053 
Q 978 691 1625 691 
Q 2034 691 2275 872 
Q 2516 1053 2516 1388 
Q 2516 1731 2230 1912 
Q 1944 2094 1428 2094 
L 997 2094 
L 997 2872 
L 1394 2872 
Q 2369 2872 2369 3528 
Q 2369 4147 1622 4147 
Q 1134 4147 675 3828 
L 675 4663 
Q 1175 4922 1853 4922 
Q 2541 4922 2969 4605 
Q 3397 4288 3397 3725 
Q 3397 2775 2434 2531 
L 2434 2516 
Q 2941 2459 3244 2145 
Q 3547 1831 3547 1381 
Q 3547 691 3042 303 
Q 2538 -84 1697 -84 
Q 950 -84 494 163 
L 494 1053 
z
" transform="scale(0.015625)"/>
      <path id="MicrosoftYaHei-Bold-ff1a" d="M 1594 3506 
Q 1831 3506 2000 3354 
Q 2169 3203 2169 2981 
Q 2169 2766 2003 2614 
Q 1838 2463 1594 2463 
Q 1353 2463 1189 2616 
Q 1025 2769 1025 2981 
Q 1025 3200 1192 3353 
Q 1359 3506 1594 3506 
z
M 1594 959 
Q 1831 959 2000 806 
Q 2169 653 2169 434 
Q 2169 222 2000 69 
Q 1831 -84 1594 -84 
Q 1356 -84 1190 69 
Q 1025 222 1025 434 
Q 1025 653 1190 806 
Q 1356 959 1594 959 
z
" transform="scale(0.015625)"/>
      <path id="MicrosoftYaHei-Bold-56fa" d="M 356 -797 
L 356 5078 
L 6044 5078 
L 6044 -791 
L 5169 -791 
L 5169 -572 
L 1231 -572 
L 1231 -797 
L 356 -797 
z
M 5169 4353 
L 1231 4353 
L 1231 153 
L 5169 153 
L 5169 4353 
z
M 4738 2597 
L 4738 553 
L 1663 553 
L 1663 2597 
L 2763 2597 
L 2763 3072 
L 1400 3072 
L 1400 3784 
L 2763 3784 
L 2763 4184 
L 3638 4184 
L 3638 3784 
L 5000 3784 
L 5000 3072 
L 3638 3072 
L 3638 2597 
L 4738 2597 
z
M 2463 1253 
L 3938 1253 
L 3938 1897 
L 2463 1897 
L 2463 1253 
z
" transform="scale(0.015625)"/>
      <path id="MicrosoftYaHei-Bold-5b9a" d="M 2581 5128 
L 3538 5353 
Q 3666 5028 3806 4634 
L 6063 4634 
L 6063 3403 
L 5200 3403 
L 5200 3872 
L 1225 3872 
L 1225 3403 
L 363 3403 
L 363 4634 
L 2772 4634 
L 2581 5128 
z
M 5831 1741 
L 5831 972 
L 3744 972 
L 3744 125 
Q 4766 103 6313 147 
Q 6138 -372 6044 -697 
Q 3819 -697 2809 -630 
Q 1800 -563 1388 219 
Q 1069 -425 613 -859 
Q 331 -441 94 -134 
Q 875 659 1094 2122 
L 1931 2022 
Q 1850 1541 1728 1122 
Q 2047 300 2850 175 
L 2850 2416 
L 263 2416 
L 263 3184 
L 6156 3184 
L 6156 2416 
L 3744 2416 
L 3744 1741 
L 5831 1741 
z
" transform="scale(0.015625)"/>
      <path id="MicrosoftYaHei-Bold-6a21" d="M 6250 534 
L 4825 534 
Q 5419 84 6325 -53 
Q 6131 -403 5913 -859 
Q 4769 -522 4169 334 
Q 3694 -503 2406 -897 
Q 2206 -509 1925 -159 
Q 3013 66 3419 534 
L 2088 534 
L 2088 1141 
L 3719 1141 
Q 3756 1284 3769 1459 
L 2425 1459 
L 2425 2134 
L 1944 1659 
Q 1800 1878 1638 2109 
L 1638 -841 
L 863 -841 
L 863 1803 
Q 619 1141 275 547 
Q 213 978 75 1691 
Q 525 2453 788 3328 
L 138 3328 
L 138 4066 
L 863 4066 
L 863 5291 
L 1638 5291 
L 1638 4066 
L 2219 4066 
L 2219 3328 
L 1638 3328 
L 1638 2972 
Q 2081 2559 2425 2209 
L 2425 3703 
L 6025 3703 
L 6025 1459 
L 4556 1459 
Q 4544 1291 4519 1141 
L 6250 1141 
L 6250 534 
z
M 5250 2009 
L 5250 2353 
L 3200 2353 
L 3200 2009 
L 5250 2009 
z
M 5250 3147 
L 3200 3147 
L 3200 2816 
L 5250 2816 
L 5250 3147 
z
M 5413 3853 
L 4675 3853 
L 4675 4203 
L 3719 4203 
L 3719 3853 
L 2981 3853 
L 2981 4203 
L 2175 4203 
L 2175 4822 
L 2981 4822 
L 2981 5291 
L 3719 5291 
L 3719 4822 
L 4675 4822 
L 4675 5291 
L 5413 5291 
L 5413 4822 
L 6275 4822 
L 6275 4203 
L 5413 4203 
L 5413 3853 
z
" transform="scale(0.015625)"/>
      <path id="MicrosoftYaHei-Bold-578b" d="M 5963 5216 
L 5963 2547 
Q 5963 2141 5752 1928 
Q 5541 1716 5095 1700 
Q 4650 1684 4269 1684 
Q 4231 2059 4150 2447 
Q 4469 2428 4813 2428 
Q 5150 2428 5150 2709 
L 5150 5216 
L 5963 5216 
z
M 150 3491 
L 891 3491 
Q 900 3616 900 4341 
L 325 4341 
L 325 5066 
L 3625 5066 
L 3625 4341 
L 3113 4341 
L 3113 3491 
L 3750 3491 
L 3750 2766 
L 3113 2766 
L 3113 2091 
L 3656 2091 
L 3656 1441 
L 5781 1441 
L 5781 678 
L 3656 678 
L 3656 103 
L 6294 103 
L 6294 -647 
L 138 -647 
L 138 103 
L 2763 103 
L 2763 678 
L 650 678 
L 650 1441 
L 2763 1441 
L 2763 1766 
L 2350 1766 
L 2350 2766 
L 1559 2766 
Q 1375 2016 888 1522 
Q 675 1697 275 2009 
Q 584 2334 741 2766 
L 150 2766 
L 150 3491 
z
M 1663 3491 
L 2350 3491 
L 2350 4341 
L 1669 4341 
Q 1669 3753 1663 3491 
z
M 3900 4866 
L 4650 4866 
L 4650 2753 
L 3900 2753 
L 3900 4866 
z
" transform="scale(0.015625)"/>
      <path id="MicrosoftYaHei-Bold-ff0c" d="M 2075 831 
L 1569 -863 
L 831 -863 
L 1191 831 
L 2075 831 
z
" transform="scale(0.015625)"/>
      <path id="MicrosoftYaHei-Bold-7ebf" d="M 225 -528 
L 63 347 
Q 1188 491 2369 678 
Q 2353 481 2350 256 
Q 3069 481 3691 806 
Q 3550 1250 3466 1859 
L 2413 1734 
L 2306 2491 
L 3384 2619 
L 3347 3244 
L 2525 3159 
L 2488 3494 
Q 1859 2456 1356 1778 
Q 1919 1859 2294 1928 
Q 2263 1672 2231 1147 
Q 888 972 431 847 
L 200 1547 
Q 597 1922 1075 2641 
Q 738 2613 294 2566 
L 63 3278 
Q 581 3916 1194 5322 
L 1988 5009 
Q 1438 4034 1000 3353 
Q 1234 3356 1531 3372 
Q 1700 3663 1881 3991 
L 2466 3716 
L 2444 3922 
L 3303 4006 
L 3250 5303 
L 4094 5303 
Q 4103 4669 4128 4088 
L 5219 4194 
Q 4844 4469 4350 4778 
L 4756 5316 
Q 5263 5041 5769 4716 
L 5388 4213 
L 5988 4272 
L 6063 3522 
L 4169 3328 
L 4216 2716 
L 6156 2947 
L 6238 2197 
L 5484 2106 
L 6038 1666 
Q 5431 1003 4731 509 
Q 4991 100 5203 100 
Q 5316 100 5387 251 
Q 5459 403 5581 1047 
Q 6013 822 6313 684 
Q 6072 -288 5839 -564 
Q 5606 -841 5300 -841 
Q 4503 -841 4006 56 
Q 3259 -353 2419 -597 
Q 2325 -400 2200 -178 
Q 1084 -353 225 -528 
z
M 5413 2097 
L 4309 1963 
Q 4369 1603 4447 1266 
Q 4972 1638 5413 2097 
z
" transform="scale(0.015625)"/>
      <path id="MicrosoftYaHei-Bold-6027" d="M 2250 216 
L 3975 216 
L 3975 1378 
L 2563 1378 
L 2563 2191 
L 3975 2191 
L 3975 3303 
L 3213 3303 
Q 3075 2734 2913 2272 
Q 2538 2491 2175 2684 
Q 2563 3684 2738 4947 
L 3506 4891 
Q 3447 4484 3381 4116 
L 3975 4116 
L 3975 5316 
L 4825 5316 
L 4825 4116 
L 6125 4116 
L 6125 3303 
L 4825 3303 
L 4825 2191 
L 6100 2191 
L 6100 1378 
L 4825 1378 
L 4825 216 
L 6313 216 
L 6313 -597 
L 2250 -597 
L 2250 216 
z
M 1788 5316 
L 1788 4456 
Q 2125 4316 2494 4134 
L 2175 3453 
L 1788 3713 
L 1788 -841 
L 950 -841 
L 950 5316 
L 1788 5316 
z
M 269 4103 
L 800 4041 
Q 719 3009 619 2178 
Q 350 2284 106 2316 
Q 225 3284 269 4103 
z
" transform="scale(0.015625)"/>
      <path id="MicrosoftYaHei-Bold-964d" d="M 6050 4853 
L 6050 4147 
Q 5675 3588 5194 3216 
Q 5728 3059 6381 3009 
Q 6213 2647 6063 2259 
Q 5081 2441 4394 2750 
Q 3650 2425 2531 2222 
Q 2338 2703 2219 2916 
Q 3025 2994 3647 3194 
Q 3400 3381 3178 3606 
Q 2994 3406 2794 3216 
Q 2569 3528 2306 3828 
Q 3125 4528 3506 5328 
L 4350 5222 
Q 4244 5034 4131 4853 
L 6050 4853 
z
M 4419 3531 
Q 4866 3794 5144 4166 
L 3653 4166 
Q 3644 4156 3638 4147 
Q 3975 3784 4419 3531 
z
M 1869 2722 
Q 2344 2122 2344 1247 
Q 2344 725 2097 483 
Q 1850 241 1250 241 
Q 1213 666 1113 1084 
Q 1244 1053 1344 1053 
Q 1613 1053 1613 1403 
Q 1613 2053 1131 2647 
L 1588 4328 
L 1100 4328 
L 1100 -828 
L 369 -828 
L 369 5047 
L 2400 5047 
L 2400 4453 
L 1869 2722 
z
M 3263 753 
L 4075 753 
L 4075 1403 
L 2513 1403 
L 2513 2103 
L 4075 2103 
L 4075 2503 
L 4825 2503 
L 4825 2103 
L 6056 2103 
L 6056 1403 
L 4825 1403 
L 4825 753 
L 6219 753 
L 6219 53 
L 4825 53 
L 4825 -822 
L 4075 -822 
L 4075 53 
L 2438 53 
L 2438 734 
L 2769 1328 
L 3544 1328 
L 3263 753 
z
" transform="scale(0.015625)"/>
      <path id="MicrosoftYaHei-Bold-635f" d="M 200 4147 
L 863 4147 
L 863 5303 
L 1700 5303 
L 1700 4147 
L 2300 4147 
L 2300 3347 
L 1700 3347 
L 1700 2378 
L 2263 2466 
Q 2244 1984 2269 1647 
L 1700 1556 
L 1700 3 
Q 1700 -350 1554 -542 
Q 1409 -734 1143 -765 
Q 878 -797 300 -809 
Q 238 -403 94 16 
Q 425 -3 638 -3 
Q 863 -3 863 297 
L 863 1406 
L 200 1278 
L 94 2172 
Q 434 2206 863 2263 
L 863 3347 
L 200 3347 
L 200 4147 
z
M 2563 5116 
L 5888 5116 
L 5888 3184 
L 2563 3184 
L 2563 5116 
z
M 5088 4384 
L 3363 4384 
L 3363 3916 
L 5088 3916 
L 5088 4384 
z
M 2375 516 
L 2375 2866 
L 6075 2866 
L 6075 516 
L 5250 516 
L 5250 2122 
L 3200 2122 
L 3200 516 
L 2375 516 
z
M 3825 1928 
L 4650 1928 
Q 4634 1263 4513 797 
Q 5488 344 6350 -197 
Q 6100 -484 5813 -878 
Q 4850 -216 4231 147 
Q 3850 -472 2469 -853 
Q 2400 -684 2031 -103 
Q 3219 178 3488 541 
Q 3806 853 3825 1928 
z
" transform="scale(0.015625)"/>
      <path id="MicrosoftYaHei-Bold-9700" d="M 313 4253 
L 2819 4253 
L 2819 4516 
L 588 4516 
L 588 5109 
L 5813 5109 
L 5813 4516 
L 3581 4516 
L 3581 4253 
L 6088 4253 
L 6088 2966 
L 5400 2966 
L 5400 3678 
L 3581 3678 
L 3581 2316 
L 2819 2316 
L 2819 3678 
L 1000 3678 
L 1000 2966 
L 313 2966 
L 313 4253 
z
M 1163 3434 
L 2538 3434 
L 2538 3047 
L 1163 3047 
L 1163 3434 
z
M 3875 3434 
L 5238 3434 
L 5238 3047 
L 3875 3047 
L 3875 3434 
z
M 913 2797 
L 2538 2797 
L 2538 2403 
L 913 2403 
L 913 2797 
z
M 3875 2797 
L 5488 2797 
L 5488 2403 
L 3875 2403 
L 3875 2797 
z
M 1444 -797 
L 669 -797 
L 669 1191 
L 2466 1191 
L 2581 1553 
L 175 1553 
L 175 2141 
L 6225 2141 
L 6225 1553 
L 3322 1553 
L 3203 1191 
L 5750 1191 
L 5750 -134 
Q 5750 -834 5063 -834 
L 4438 -834 
Q 4394 -459 4331 -109 
Q 4569 -122 4763 -122 
Q 4981 -122 4981 141 
L 4981 616 
L 4306 616 
L 4306 -647 
L 3550 -647 
L 3550 616 
L 2875 616 
L 2875 -647 
L 2119 -647 
L 2119 616 
L 1444 616 
L 1444 -797 
z
" transform="scale(0.015625)"/>
      <path id="MicrosoftYaHei-Bold-6307" d="M 106 4297 
L 800 4297 
L 800 5316 
L 1594 5316 
L 1594 4297 
L 2194 4297 
L 2194 3522 
L 1594 3522 
L 1594 2550 
L 2200 2716 
Q 2194 2222 2206 1878 
Q 2097 1850 1594 1700 
L 1594 -28 
Q 1594 -375 1458 -559 
Q 1322 -744 1067 -772 
Q 813 -800 313 -809 
Q 250 -434 156 3 
Q 538 -6 669 8 
Q 800 22 800 228 
L 800 1463 
L 156 1272 
L 88 2191 
Q 434 2263 800 2350 
L 800 3522 
L 106 3522 
L 106 4297 
z
M 5506 4278 
Q 5881 4078 6281 3959 
Q 6125 3116 5862 2959 
Q 5600 2803 5219 2803 
L 3306 2803 
Q 2394 2803 2394 3747 
L 2394 5291 
L 3225 5291 
L 3225 4628 
Q 4591 4809 5919 5172 
L 6206 4428 
Q 4866 4131 3225 3941 
L 3225 3884 
Q 3225 3528 3644 3528 
L 5025 3528 
Q 5334 3528 5403 3712 
Q 5472 3897 5506 4278 
z
M 2463 -834 
L 2463 2428 
L 6025 2428 
L 6025 -822 
L 5200 -822 
L 5200 -509 
L 3288 -509 
L 3288 -834 
L 2463 -834 
z
M 5200 1716 
L 3288 1716 
L 3288 1303 
L 5200 1303 
L 5200 1716 
z
M 3288 203 
L 5200 203 
L 5200 616 
L 3288 616 
L 3288 203 
z
" transform="scale(0.015625)"/>
      <path id="MicrosoftYaHei-Bold-6570" d="M 238 4091 
L 725 4091 
Q 559 4425 281 4803 
L 844 5153 
Q 1038 4922 1369 4428 
L 806 4091 
L 1506 4091 
L 1506 5316 
L 2300 5316 
L 2300 4091 
L 2956 4091 
L 2438 4428 
Q 2750 4809 2963 5172 
L 3550 4822 
Q 3341 4466 3031 4091 
L 3394 4091 
L 3394 3453 
L 2300 3453 
L 2300 3016 
L 2513 3303 
Q 2903 3094 3253 2891 
Q 3766 3841 4138 5347 
L 4994 5266 
Q 4869 4781 4728 4341 
L 6294 4341 
L 6294 3578 
L 6041 3578 
Q 5906 1922 5338 856 
Q 5738 391 6319 53 
Q 6094 -203 5775 -778 
Q 5228 -413 4828 109 
Q 4313 -497 3631 -872 
Q 3378 -513 3072 -197 
L 2850 -566 
Q 2475 -350 2031 -128 
Q 1347 -584 394 -778 
Q 281 -434 63 -9 
Q 716 59 1213 253 
Q 781 444 300 641 
Q 513 950 681 1259 
L 169 1259 
L 169 1897 
L 991 1897 
Q 1094 2144 1169 2391 
L 1506 2359 
L 1506 2959 
Q 1044 2472 344 2053 
Q 213 2472 50 2803 
Q 672 3044 1172 3453 
L 238 3453 
L 238 4091 
z
M 4394 3400 
Q 4519 2359 4831 1659 
Q 5203 2478 5275 3578 
L 4463 3578 
Q 4431 3488 4394 3400 
z
M 2300 2216 
L 1984 2216 
Q 1913 2063 1825 1897 
L 3281 1897 
L 3281 1316 
Q 3038 806 2672 413 
L 3294 166 
L 3169 -38 
Q 3859 322 4347 894 
Q 4041 1522 3878 2300 
Q 3769 2103 3656 1922 
Q 3513 2172 3322 2438 
L 3138 2159 
Q 2750 2422 2300 2691 
L 2300 2216 
z
M 1300 934 
L 1950 691 
Q 2231 934 2413 1259 
L 1484 1259 
L 1300 934 
z
" transform="scale(0.015625)"/>
      <path id="MicrosoftYaHei-Bold-7ea7" d="M 94 391 
Q 1138 528 2094 703 
Q 2069 441 2056 197 
Q 2669 1359 2763 3203 
Q 2775 3509 2781 4209 
L 2338 4209 
L 2338 4978 
L 5688 4978 
L 5688 4259 
L 5206 3272 
L 6075 3272 
L 6075 2528 
Q 5850 1472 5256 659 
Q 5750 216 6319 -16 
Q 5963 -491 5769 -809 
Q 5181 -466 4706 41 
Q 4156 -478 3406 -878 
Q 3150 -453 2888 -116 
Q 3644 234 4163 728 
Q 3738 1366 3438 2191 
Q 3244 209 2319 -866 
Q 2050 -466 1781 -178 
L 244 -466 
L 94 391 
z
M 981 3403 
Q 1213 3409 1506 3422 
Q 1713 3778 1950 4203 
L 2644 3822 
Q 1850 2491 1325 1834 
Q 1856 1884 2288 1953 
Q 2238 1622 2225 1197 
Q 1031 1078 400 928 
L 194 1634 
Q 556 1947 1044 2691 
Q 588 2653 306 2616 
L 75 3328 
Q 556 3934 1131 5341 
L 1913 5028 
Q 1350 3991 981 3403 
z
M 3594 3766 
Q 4075 2178 4675 1316 
Q 5044 1853 5200 2516 
L 4288 2516 
L 4288 3272 
L 4725 4209 
L 3600 4209 
Q 3600 3991 3594 3766 
z
" transform="scale(0.015625)"/>
      <path id="MicrosoftYaHei-Bold-636e" d="M 6294 1916 
L 4869 1916 
L 4869 1391 
L 5919 1391 
L 5919 -853 
L 5181 -853 
L 5181 -541 
L 3788 -541 
L 3788 -853 
L 3050 -853 
L 3050 1391 
L 4081 1391 
L 4081 1916 
L 2988 1916 
Q 2875 203 2188 -803 
Q 1925 -459 1625 -166 
Q 2250 928 2250 2803 
L 2250 5084 
L 6031 5084 
L 6031 3128 
L 4869 3128 
L 4869 2572 
L 6294 2572 
L 6294 1916 
z
M 169 4147 
L 763 4147 
L 763 5253 
L 1519 5253 
L 1519 4147 
L 2056 4147 
L 2056 3347 
L 1519 3347 
L 1519 2472 
Q 1788 2528 2088 2603 
Q 2056 2103 2063 1791 
Q 1788 1722 1519 1653 
L 1519 -59 
Q 1519 -753 950 -772 
Q 619 -803 313 -791 
Q 250 -422 131 22 
Q 338 16 550 9 
Q 763 3 763 309 
L 763 1459 
Q 463 1378 163 1303 
L 94 2166 
Q 375 2222 763 2303 
L 763 3347 
L 169 3347 
L 169 4147 
z
M 5263 3784 
L 5263 4428 
L 3013 4428 
L 3013 3784 
L 5263 3784 
z
M 5181 734 
L 3788 734 
L 3788 116 
L 5181 116 
L 5181 734 
z
M 4081 2572 
L 4081 3128 
L 3013 3128 
L 3013 2572 
L 4081 2572 
z
" transform="scale(0.015625)"/>
     </defs>
     <use xlink:href="#MicrosoftYaHei-Bold-47"/>
     <use xlink:href="#MicrosoftYaHei-Bold-50" transform="translate(76.513672 0)"/>
     <use xlink:href="#MicrosoftYaHei-Bold-54" transform="translate(142.236328 0)"/>
     <use xlink:href="#MicrosoftYaHei-Bold-2d" transform="translate(204.785156 0)"/>
     <use xlink:href="#MicrosoftYaHei-Bold-33" transform="translate(248.4375 0)"/>
     <use xlink:href="#MicrosoftYaHei-Bold-ff1a" transform="translate(310.107422 0)"/>
     <use xlink:href="#MicrosoftYaHei-Bold-56fa" transform="translate(410.107422 0)"/>
     <use xlink:href="#MicrosoftYaHei-Bold-5b9a" transform="translate(510.107422 0)"/>
     <use xlink:href="#MicrosoftYaHei-Bold-6a21" transform="translate(610.107422 0)"/>
     <use xlink:href="#MicrosoftYaHei-Bold-578b" transform="translate(710.107422 0)"/>
     <use xlink:href="#MicrosoftYaHei-Bold-ff0c" transform="translate(810.107422 0)"/>
     <use xlink:href="#MicrosoftYaHei-Bold-7ebf" transform="translate(910.107422 0)"/>
     <use xlink:href="#MicrosoftYaHei-Bold-6027" transform="translate(1010.107422 0)"/>
     <use xlink:href="#MicrosoftYaHei-Bold-964d" transform="translate(1110.107422 0)"/>
     <use xlink:href="#MicrosoftYaHei-Bold-635f" transform="translate(1210.107422 0)"/>
     <use xlink:href="#MicrosoftYaHei-Bold-9700" transform="translate(1310.107422 0)"/>
     <use xlink:href="#MicrosoftYaHei-Bold-6307" transform="translate(1410.107422 0)"/>
     <use xlink:href="#MicrosoftYaHei-Bold-6570" transform="translate(1510.107422 0)"/>
     <use xlink:href="#MicrosoftYaHei-Bold-7ea7" transform="translate(1610.107422 0)"/>
     <use xlink:href="#MicrosoftYaHei-Bold-6570" transform="translate(1710.107422 0)"/>
     <use xlink:href="#MicrosoftYaHei-Bold-636e" transform="translate(1810.107422 0)"/>
    </g>
   </g>
  </g>
 </g>
 <defs>
  <clipPath id="pd0056e81f1">
   <rect x="36.478906" y="21.19375" width="438.37" height="245.08"/>
  </clipPath>
 </defs>
</svg>
