<?xml version="1.0" encoding="utf-8" standalone="no"?>
<!DOCTYPE svg PUBLIC "-//W3C//DTD SVG 1.1//EN"
  "http://www.w3.org/Graphics/SVG/1.1/DTD/svg11.dtd">
<svg xmlns:xlink="http://www.w3.org/1999/xlink" width="572.4pt" height="263.632375pt" viewBox="0 0 572.4 263.632375" xmlns="http://www.w3.org/2000/svg" version="1.1">
 <metadata>
  <rdf:RDF xmlns:dc="http://purl.org/dc/elements/1.1/" xmlns:cc="http://creativecommons.org/ns#" xmlns:rdf="http://www.w3.org/1999/02/22-rdf-syntax-ns#">
   <cc:Work>
    <dc:type rdf:resource="http://purl.org/dc/dcmitype/StillImage"/>
    <dc:date>2026-09-05T00:19:05.474588</dc:date>
    <dc:format>image/svg+xml</dc:format>
    <dc:creator>
     <cc:Agent>
      <dc:title>Matplotlib v3.10.0, https://matplotlib.org/</dc:title>
     </cc:Agent>
    </dc:creator>
   </cc:Work>
  </rdf:RDF>
 </metadata>
 <defs>
  <style type="text/css">*{stroke-linejoin: round; stroke-linecap: butt}</style>
 </defs>
 <g id="figure_1">
  <g id="patch_1">
   <path d="M 0 263.632375 
L 572.4 263.632375 
L 572.4 0 
L 0 0 
z
" style="fill: #ffffff"/>
  </g>
  <g id="axes_1">
   <g id="patch_2">
    <path d="M 23.94 122.015575 
L 96.48 122.015575 
Q 99.828 122.015575 99.828 118.840375 
L 99.828 71.212375 
Q 99.828 68.037175 96.48 68.037175 
L 23.94 68.037175 
Q 20.592 68.037175 20.592 71.212375 
L 20.592 118.840375 
Q 20.592 122.015575 23.94 122.015575 
z
" clip-path="url(#pd316404a10)" style="fill: #ffffff; stroke: #999999; stroke-width: 1.2; stroke-linejoin: miter"/>
   </g>
   <g id="patch_3">
    <path d="M 118.8 122.015575 
L 202.5 122.015575 
Q 205.848 122.015575 205.848 118.840375 
L 205.848 71.212375 
Q 205.848 68.037175 202.5 68.037175 
L 118.8 68.037175 
Q 115.452 68.037175 115.452 71.212375 
L 115.452 118.840375 
Q 115.452 122.015575 118.8 122.015575 
z
" clip-path="url(#pd316404a10)" style="fill: #ffebee; stroke: #b31b1b; stroke-width: 1.2; stroke-linejoin: miter"/>
   </g>
   <g id="patch_4">
    <path d="M 224.82 122.015575 
L 308.52 122.015575 
Q 311.868 122.015575 311.868 118.840375 
L 311.868 71.212375 
Q 311.868 68.037175 308.52 68.037175 
L 224.82 68.037175 
Q 221.472 68.037175 221.472 71.212375 
L 221.472 118.840375 
Q 221.472 122.015575 224.82 122.015575 
z
" clip-path="url(#pd316404a10)" style="fill: #ffffff; stroke: #999999; stroke-width: 1.2; stroke-linejoin: miter"/>
   </g>
   <g id="patch_5">
    <path d="M 71.37 201.395575 
L 205.29 201.395575 
Q 208.638 201.395575 208.638 198.220375 
L 208.638 150.592375 
Q 208.638 147.417175 205.29 147.417175 
L 71.37 147.417175 
Q 68.022 147.417175 68.022 150.592375 
L 68.022 198.220375 
Q 68.022 201.395575 71.37 201.395575 
z
" clip-path="url(#pd316404a10)" style="fill: #e3f2fd; stroke: #1565c0; stroke-width: 1.2; stroke-linejoin: miter"/>
   </g>
   <g id="patch_6">
    <path d="M 342 122.015575 
L 403.38 122.015575 
Q 406.728 122.015575 406.728 118.840375 
L 406.728 71.212375 
Q 406.728 68.037175 403.38 68.037175 
L 342 68.037175 
Q 338.652 68.037175 338.652 71.212375 
L 338.652 118.840375 
Q 338.652 122.015575 342 122.015575 
z
" clip-path="url(#pd316404a10)" style="fill: #ffffff; stroke: #999999; stroke-width: 1.2; stroke-linejoin: miter"/>
   </g>
   <g id="patch_7">
    <path d="M 425.7 122.015575 
L 520.56 122.015575 
Q 523.908 122.015575 523.908 118.840375 
L 523.908 71.212375 
Q 523.908 68.037175 520.56 68.037175 
L 425.7 68.037175 
Q 422.352 68.037175 422.352 71.212375 
L 422.352 118.840375 
Q 422.352 122.015575 425.7 122.015575 
z
" clip-path="url(#pd316404a10)" style="fill: #e8f5e9; stroke: #1b5e20; stroke-width: 1.2; stroke-linejoin: miter"/>
   </g>
   <g id="line2d_1">
    <path d="M 322.47 208.804375 
L 322.47 34.168375 
" clip-path="url(#pd316404a10)" style="fill: none; stroke-dasharray: 3.7,1.6; stroke-dashoffset: 0; stroke: #cccccc"/>
   </g>
   <g id="text_1">
    <!-- 训练态：用当前 batch 统计 -->
    <g style="fill: #b31b1b" transform="translate(82.533516 44.752375) scale(0.09 -0.09)">
     <defs>
      <path id="MicrosoftYaHei-Bold-8bad" d="M 956 5259 
Q 1475 4753 1925 4234 
L 1263 3684 
Q 769 4328 356 4747 
L 956 5259 
z
M 2450 5184 
L 3281 5184 
L 3281 2066 
Q 3281 209 2275 -884 
Q 1844 -528 1519 -328 
Q 2450 659 2450 2134 
L 2450 5184 
z
M 5238 5184 
L 6069 5184 
L 6069 -784 
L 5238 -784 
L 5238 5184 
z
M 3856 4953 
L 4663 4953 
L 4663 -416 
L 3856 -416 
L 3856 4953 
z
M 2019 1772 
Q 2050 1466 2175 916 
Q 1556 353 925 -341 
L 488 266 
Q 650 447 650 772 
L 650 2422 
L 125 2422 
L 125 3266 
L 1475 3266 
L 1475 1297 
Q 1769 1541 2019 1772 
z
" transform="scale(0.015625)"/>
      <path id="MicrosoftYaHei-Bold-7ec3" d="M 2400 3516 
L 2984 3516 
L 3159 4028 
L 2263 4028 
L 2263 4753 
L 3394 4753 
L 3575 5347 
L 4413 5291 
L 4238 4753 
L 6000 4753 
L 6000 4028 
L 3994 4028 
L 3809 3516 
L 4969 3516 
L 4969 2191 
L 6025 2191 
L 6025 1484 
L 4969 1484 
L 4969 297 
Q 4969 -131 4831 -397 
Q 4694 -663 4444 -758 
Q 4194 -853 3394 -853 
Q 3294 -309 3225 -34 
Q 3525 -72 3756 -72 
Q 4125 -72 4125 491 
L 4125 1484 
L 2513 1484 
L 2513 2291 
Q 2613 2525 2716 2791 
L 2400 2791 
L 2400 3516 
z
M 3306 2191 
L 4125 2191 
L 4125 2791 
L 3541 2791 
L 3306 2191 
z
M 1013 3372 
L 1419 3388 
L 1744 3966 
L 2413 3659 
L 1356 1797 
Q 1894 1872 2294 1941 
Q 2263 1684 2231 1159 
Q 931 984 475 866 
L 244 1566 
Q 531 1816 1009 2653 
L 306 2584 
L 75 3297 
Q 575 3966 1219 5341 
L 2000 5028 
Q 1450 4053 1013 3372 
z
M 75 372 
Q 1100 478 2288 672 
Q 2275 350 2272 116 
Q 2722 741 3000 1309 
L 3706 1003 
Q 3294 197 2738 -597 
Q 2469 -409 2078 -191 
L 238 -503 
L 75 372 
z
M 5000 978 
L 5619 1278 
Q 5994 584 6369 -197 
L 5713 -534 
Q 5356 316 5000 978 
z
" transform="scale(0.015625)"/>
      <path id="MicrosoftYaHei-Bold-6001" d="M 300 4628 
L 2656 4628 
Q 2719 4953 2700 5334 
L 3625 5334 
Q 3613 4947 3584 4628 
L 6100 4628 
L 6100 3878 
L 3981 3878 
Q 4788 3000 6313 2703 
Q 6063 2228 5869 1784 
Q 4159 2303 3206 3700 
Q 2500 2331 588 1703 
Q 356 2197 88 2616 
Q 1869 3028 2369 3878 
L 300 3878 
L 300 4628 
z
M 2919 3022 
Q 3356 2753 3950 2347 
L 3388 1784 
Q 2863 2222 2406 2528 
L 2919 3022 
z
M 2975 1941 
Q 3619 1559 4163 1166 
L 3644 566 
Q 3119 997 2506 1372 
L 2975 1941 
z
M 5494 1709 
Q 5969 997 6331 278 
L 5588 -128 
Q 5244 603 4775 1353 
L 5494 1709 
z
M 4350 872 
Q 4813 647 5213 497 
Q 5022 -278 4744 -509 
Q 4466 -741 3913 -741 
L 2500 -741 
Q 1563 -741 1563 184 
L 1563 1491 
L 2388 1491 
L 2388 391 
Q 2388 9 2775 9 
L 3713 9 
Q 4019 9 4147 143 
Q 4275 278 4350 872 
z
M 663 1466 
L 1438 1203 
Q 1119 253 863 -353 
L 81 -53 
Q 413 659 663 1466 
z
" transform="scale(0.015625)"/>
      <path id="MicrosoftYaHei-Bold-ff1a" d="M 1594 3506 
Q 1831 3506 2000 3354 
Q 2169 3203 2169 2981 
Q 2169 2766 2003 2614 
Q 1838 2463 1594 2463 
Q 1353 2463 1189 2616 
Q 1025 2769 1025 2981 
Q 1025 3200 1192 3353 
Q 1359 3506 1594 3506 
z
M 1594 959 
Q 1831 959 2000 806 
Q 2169 653 2169 434 
Q 2169 222 2000 69 
Q 1831 -84 1594 -84 
Q 1356 -84 1190 69 
Q 1025 222 1025 434 
Q 1025 653 1190 806 
Q 1356 959 1594 959 
z
" transform="scale(0.015625)"/>
      <path id="MicrosoftYaHei-Bold-7528" d="M 5925 134 
Q 5925 -263 5744 -480 
Q 5563 -697 5189 -736 
Q 4816 -775 4206 -766 
Q 4100 -284 3956 141 
Q 4600 103 4656 103 
Q 5050 103 5050 484 
L 5050 1053 
L 3750 1053 
L 3750 -697 
L 2869 -697 
L 2869 1053 
L 1516 1053 
Q 1419 -325 988 -872 
Q 588 -584 181 -347 
Q 688 341 669 2097 
L 669 5041 
L 5925 5041 
L 5925 134 
z
M 1544 3441 
L 2869 3441 
L 2869 4216 
L 1544 4216 
L 1544 3441 
z
M 5050 4216 
L 3750 4216 
L 3750 3441 
L 5050 3441 
L 5050 4216 
z
M 1544 1859 
L 2869 1859 
L 2869 2634 
L 1544 2634 
L 1544 1859 
z
M 3750 1859 
L 5050 1859 
L 5050 2634 
L 3750 2634 
L 3750 1859 
z
" transform="scale(0.015625)"/>
      <path id="MicrosoftYaHei-Bold-5f53" d="M 344 278 
L 4975 278 
L 4975 891 
L 625 891 
L 625 1666 
L 4975 1666 
L 4975 2278 
L 425 2278 
L 425 3053 
L 2725 3053 
L 2725 5353 
L 3650 5353 
L 3650 3053 
L 5900 3053 
L 5900 -866 
L 4975 -866 
L 4975 -497 
L 344 -497 
L 344 278 
z
M 1188 5097 
L 2413 3816 
L 1731 3216 
Q 1138 3953 588 4528 
L 1188 5097 
z
M 5200 5091 
L 5900 4503 
L 4613 3203 
L 3969 3778 
Q 4669 4453 5200 5091 
z
" transform="scale(0.015625)"/>
      <path id="MicrosoftYaHei-Bold-524d" d="M 4256 5359 
L 5275 5103 
Q 5094 4878 4897 4653 
L 6294 4653 
L 6294 3916 
L 100 3916 
L 100 4653 
L 1428 4653 
Q 1288 4881 1138 5103 
L 2075 5359 
Q 2316 4997 2528 4653 
L 3797 4653 
Q 4038 5003 4256 5359 
z
M 5106 3647 
L 5950 3647 
L 5950 191 
Q 5950 -231 5765 -465 
Q 5581 -700 5250 -745 
Q 4919 -791 4063 -791 
Q 4006 -428 3881 91 
Q 4450 66 4744 66 
Q 5106 66 5106 459 
L 5106 3647 
z
M 1306 -784 
L 456 -784 
L 456 3572 
L 3425 3572 
L 3425 103 
Q 3425 -303 3237 -518 
Q 3050 -734 2706 -761 
Q 2363 -788 1881 -791 
Q 1781 -253 1706 41 
Q 2181 16 2269 16 
Q 2575 16 2575 359 
L 2575 559 
L 1306 559 
L 1306 -784 
z
M 2575 2809 
L 1306 2809 
L 1306 2359 
L 2575 2359 
L 2575 2809 
z
M 1306 1234 
L 2575 1234 
L 2575 1684 
L 1306 1684 
L 1306 1234 
z
M 3869 3466 
L 4650 3466 
L 4650 491 
L 3869 491 
L 3869 3466 
z
" transform="scale(0.015625)"/>
      <path id="MicrosoftYaHei-Bold-20" transform="scale(0.015625)"/>
      <path id="MicrosoftYaHei-Bold-62" d="M 1469 416 
L 1469 0 
L 459 0 
L 459 5116 
L 1469 5116 
L 1469 2928 
L 1481 2928 
Q 1878 3541 2613 3541 
Q 3266 3541 3636 3084 
Q 4006 2628 4006 1825 
Q 4006 966 3581 441 
Q 3156 -84 2453 -84 
Q 1809 -84 1481 416 
L 1469 416 
z
M 1453 1494 
Q 1453 1153 1656 922 
Q 1859 691 2172 691 
Q 2550 691 2761 984 
Q 2972 1278 2972 1816 
Q 2972 2263 2780 2514 
Q 2588 2766 2231 2766 
Q 1894 2766 1673 2512 
Q 1453 2259 1453 1863 
L 1453 1494 
z
" transform="scale(0.015625)"/>
      <path id="MicrosoftYaHei-Bold-61" d="M 544 3247 
Q 778 3378 1170 3459 
Q 1563 3541 1841 3541 
Q 3291 3541 3291 2088 
L 3291 0 
L 2331 0 
L 2331 503 
L 2319 503 
Q 1966 -84 1284 -84 
Q 794 -84 498 195 
Q 203 475 203 956 
Q 203 1950 1388 2113 
L 2338 2241 
Q 2338 2844 1709 2844 
Q 1091 2844 544 2469 
L 544 3247 
z
M 1684 1566 
Q 1138 1494 1138 1072 
Q 1138 878 1270 759 
Q 1403 641 1628 641 
Q 1938 641 2138 859 
Q 2338 1078 2338 1403 
L 2338 1650 
L 1684 1566 
z
" transform="scale(0.015625)"/>
      <path id="MicrosoftYaHei-Bold-74" d="M 2494 41 
Q 2266 -84 1803 -84 
Q 703 -84 703 1072 
L 703 2703 
L 134 2703 
L 134 3456 
L 703 3456 
L 703 4216 
L 1706 4503 
L 1706 3456 
L 2494 3456 
L 2494 2703 
L 1706 2703 
L 1706 1247 
Q 1706 694 2144 694 
Q 2313 694 2494 794 
L 2494 41 
z
" transform="scale(0.015625)"/>
      <path id="MicrosoftYaHei-Bold-63" d="M 3050 128 
Q 2688 -84 2019 -84 
Q 1228 -84 740 397 
Q 253 878 253 1644 
Q 253 2525 778 3033 
Q 1303 3541 2178 3541 
Q 2769 3541 3053 3378 
L 3053 2513 
Q 2706 2766 2297 2766 
Q 1834 2766 1554 2484 
Q 1275 2203 1275 1713 
Q 1275 1238 1540 964 
Q 1806 691 2263 691 
Q 2666 691 3050 947 
L 3050 128 
z
" transform="scale(0.015625)"/>
      <path id="MicrosoftYaHei-Bold-68" d="M 3725 0 
L 2719 0 
L 2719 1969 
Q 2719 2766 2138 2766 
Q 1847 2766 1658 2544 
Q 1469 2322 1469 1969 
L 1469 0 
L 459 0 
L 459 5116 
L 1469 5116 
L 1469 2938 
L 1481 2938 
Q 1878 3541 2550 3541 
Q 3725 3541 3725 2122 
L 3725 0 
z
" transform="scale(0.015625)"/>
      <path id="MicrosoftYaHei-Bold-7edf" d="M 5569 1084 
Q 5944 897 6319 772 
Q 6234 -184 6023 -453 
Q 5813 -722 5356 -722 
L 4988 -722 
Q 4269 -722 4263 72 
L 4263 2066 
L 3756 2028 
Q 3722 656 3337 29 
Q 2953 -597 2406 -872 
Q 2144 -575 1788 -219 
Q 950 -303 213 -416 
L 144 416 
Q 763 459 2275 641 
Q 2259 406 2256 138 
Q 2938 591 2966 1950 
Q 2616 1909 2406 1866 
L 2181 2628 
Q 2675 2941 3250 3953 
L 2194 3953 
L 2194 4666 
L 3578 4666 
Q 3475 4916 3344 5191 
L 4275 5359 
Q 4444 5019 4597 4666 
L 6169 4666 
L 6169 3953 
L 4169 3953 
Q 3759 3316 3225 2697 
Q 4009 2725 4956 2781 
Q 4744 3103 4506 3434 
L 5131 3791 
Q 5794 2916 6269 2159 
L 5588 1747 
Q 5481 1938 5366 2131 
L 5063 2116 
L 5063 316 
Q 5063 72 5225 72 
L 5281 72 
Q 5428 72 5475 225 
Q 5522 378 5569 1084 
z
M 1256 1678 
L 2181 1784 
Q 2131 1397 2138 1072 
Q 1125 1022 431 897 
L 238 1591 
Q 597 1950 1113 2722 
Q 625 2688 306 2641 
L 81 3347 
Q 675 4159 1156 5359 
L 1975 5034 
Q 1519 4178 988 3422 
Q 1247 3425 1578 3444 
L 1863 3916 
L 2513 3566 
Q 1863 2541 1256 1678 
z
" transform="scale(0.015625)"/>
      <path id="MicrosoftYaHei-Bold-8ba1" d="M 1194 5334 
Q 1681 4678 2019 4172 
L 1219 3691 
Q 913 4241 463 4916 
L 1194 5334 
z
M 2175 3428 
L 3763 3428 
L 3763 5328 
L 4700 5328 
L 4700 3428 
L 6300 3428 
L 6300 2591 
L 4700 2591 
L 4700 -847 
L 3763 -847 
L 3763 2591 
L 2175 2591 
L 2175 3428 
z
M 2481 1341 
Q 2531 759 2588 416 
Q 1388 -366 1063 -722 
L 600 -109 
Q 756 78 756 416 
L 756 2422 
L 119 2422 
L 119 3234 
L 1588 3234 
L 1588 766 
Q 1844 916 2481 1341 
z
" transform="scale(0.015625)"/>
     </defs>
     <use xlink:href="#MicrosoftYaHei-Bold-8bad"/>
     <use xlink:href="#MicrosoftYaHei-Bold-7ec3" transform="translate(100 0)"/>
     <use xlink:href="#MicrosoftYaHei-Bold-6001" transform="translate(200 0)"/>
     <use xlink:href="#MicrosoftYaHei-Bold-ff1a" transform="translate(300 0)"/>
     <use xlink:href="#MicrosoftYaHei-Bold-7528" transform="translate(400 0)"/>
     <use xlink:href="#MicrosoftYaHei-Bold-5f53" transform="translate(500 0)"/>
     <use xlink:href="#MicrosoftYaHei-Bold-524d" transform="translate(600 0)"/>
     <use xlink:href="#MicrosoftYaHei-Bold-20" transform="translate(700 0)"/>
     <use xlink:href="#MicrosoftYaHei-Bold-62" transform="translate(729.785156 0)"/>
     <use xlink:href="#MicrosoftYaHei-Bold-61" transform="translate(795.261719 0)"/>
     <use xlink:href="#MicrosoftYaHei-Bold-74" transform="translate(853.025391 0)"/>
     <use xlink:href="#MicrosoftYaHei-Bold-63" transform="translate(893.931641 0)"/>
     <use xlink:href="#MicrosoftYaHei-Bold-68" transform="translate(945.591797 0)"/>
     <use xlink:href="#MicrosoftYaHei-Bold-20" transform="translate(1010.142578 0)"/>
     <use xlink:href="#MicrosoftYaHei-Bold-7edf" transform="translate(1039.927734 0)"/>
     <use xlink:href="#MicrosoftYaHei-Bold-8ba1" transform="translate(1139.927734 0)"/>
    </g>
   </g>
   <g id="text_2">
    <!-- 输入 x -->
    <g style="fill: #222222" transform="translate(50.400156 92.167094) scale(0.07 -0.07)">
     <defs>
      <path id="MicrosoftYaHei-8f93" d="M 625 2216 
L 1188 2216 
L 1188 3353 
L 1600 3353 
L 1600 2216 
L 2200 2216 
L 2200 1803 
L 1600 1803 
L 1600 947 
Q 1931 991 2275 1047 
Q 2244 809 2231 616 
Q 1913 572 1600 528 
L 1600 -866 
L 1188 -866 
L 1188 466 
Q 681 391 169 309 
L 100 766 
Q 638 822 1188 891 
L 1188 1803 
L 188 1803 
L 188 2234 
Q 425 2903 681 3934 
L 131 3934 
L 131 4334 
L 781 4334 
Q 888 4784 1000 5297 
L 1450 5197 
Q 1331 4741 1225 4334 
L 2356 4334 
L 2356 3934 
L 1119 3934 
Q 844 2922 625 2216 
z
M 2813 -853 
L 2413 -853 
L 2413 2828 
L 4075 2828 
L 4075 -247 
Q 4075 -797 3569 -797 
Q 3375 -797 3081 -791 
Q 3050 -653 2994 -403 
Q 3244 -422 3450 -422 
Q 3675 -422 3675 -172 
L 3675 553 
L 2813 553 
L 2813 -853 
z
M 4619 5253 
L 4513 5116 
Q 5244 4016 6344 3541 
Q 6131 3291 6019 3109 
Q 5594 3347 5231 3647 
L 5231 3334 
L 3063 3334 
L 3063 3609 
Q 2694 3303 2294 3047 
Q 2106 3291 1963 3428 
Q 3206 4153 3969 5253 
L 4619 5253 
z
M 5550 2941 
L 5975 2941 
L 5975 -103 
Q 5975 -797 5388 -803 
Q 5069 -809 4656 -791 
Q 4625 -559 4569 -322 
Q 4963 -372 5244 -372 
Q 5550 -372 5550 -47 
L 5550 2941 
z
M 4206 4791 
Q 3738 4203 3194 3728 
L 5131 3728 
Q 4600 4191 4206 4791 
z
M 4594 2641 
L 4994 2641 
L 4994 366 
L 4594 366 
L 4594 2641 
z
M 2813 903 
L 3675 903 
L 3675 1503 
L 2813 1503 
L 2813 903 
z
M 3675 2447 
L 2813 2447 
L 2813 1853 
L 3675 1853 
L 3675 2447 
z
" transform="scale(0.015625)"/>
      <path id="MicrosoftYaHei-5165" d="M 1831 4947 
L 2244 5241 
Q 2944 4809 3781 3028 
Q 4950 472 6319 -91 
L 5881 -641 
Q 4513 172 3350 2784 
Q 3256 2994 3166 3184 
Q 2441 700 469 -678 
Q 300 -428 88 -209 
Q 2116 1069 2819 3834 
Q 2328 4653 1831 4947 
z
" transform="scale(0.015625)"/>
      <path id="MicrosoftYaHei-20" transform="scale(0.015625)"/>
      <path id="MicrosoftYaHei-78" d="M 3163 3456 
L 2006 1716 
L 3147 0 
L 2434 0 
L 1775 1100 
Q 1722 1188 1625 1369 
L 1613 1369 
Q 1609 1350 1456 1100 
L 784 0 
L 81 0 
L 1256 1697 
L 134 3456 
L 847 3456 
L 1494 2300 
Q 1553 2194 1638 2025 
L 1650 2025 
L 2491 3456 
L 3163 3456 
z
" transform="scale(0.015625)"/>
     </defs>
     <use xlink:href="#MicrosoftYaHei-8f93"/>
     <use xlink:href="#MicrosoftYaHei-5165" transform="translate(100 0)"/>
     <use xlink:href="#MicrosoftYaHei-20" transform="translate(200 0)"/>
     <use xlink:href="#MicrosoftYaHei-78" transform="translate(229.589844 0)"/>
    </g>
    <!-- (当前 batch) -->
    <g style="fill: #222222" transform="translate(40.547656 101.741125) scale(0.07 -0.07)">
     <defs>
      <path id="MicrosoftYaHei-28" d="M 1531 -1100 
Q 478 100 478 1847 
Q 478 3594 1531 4841 
L 2072 4841 
Q 1016 3544 1016 1853 
Q 1016 166 2066 -1100 
L 1531 -1100 
z
" transform="scale(0.015625)"/>
      <path id="MicrosoftYaHei-5f53" d="M 344 -41 
L 5294 -41 
L 5294 1034 
L 725 1034 
L 725 1478 
L 5294 1478 
L 5294 2534 
L 525 2534 
L 525 2978 
L 2944 2978 
L 2944 5297 
L 3463 5297 
L 3463 2978 
L 5813 2978 
L 5813 -859 
L 5294 -859 
L 5294 -484 
L 344 -484 
L 344 -41 
z
M 5725 4653 
Q 5056 3897 4394 3291 
L 4019 3628 
Q 4656 4203 5300 4997 
L 5725 4653 
z
M 725 4678 
L 1075 4991 
Q 1750 4359 2331 3672 
L 1913 3316 
Q 1388 4003 725 4678 
z
" transform="scale(0.015625)"/>
      <path id="MicrosoftYaHei-524d" d="M 1038 -841 
L 563 -841 
L 563 3322 
L 3300 3322 
L 3300 -172 
Q 3300 -784 2669 -772 
Q 2406 -772 1950 -759 
Q 1913 -516 1856 -297 
Q 2238 -328 2563 -328 
Q 2825 -334 2825 -72 
L 2825 722 
L 1038 722 
L 1038 -841 
z
M 150 4372 
L 2169 4372 
Q 1963 4697 1644 5078 
L 2038 5347 
Q 2425 4916 2663 4578 
L 2353 4372 
L 4063 4372 
L 3813 4509 
Q 4144 4916 4388 5359 
L 4863 5084 
Q 4575 4691 4284 4372 
L 6263 4372 
L 6263 3934 
L 150 3934 
L 150 4372 
z
M 5331 3522 
L 5819 3522 
L 5819 28 
Q 5819 -741 5094 -747 
Q 4763 -753 4269 -741 
Q 4238 -484 4181 -216 
Q 4644 -266 4931 -266 
Q 5331 -266 5331 141 
L 5331 3522 
z
M 4044 3222 
L 4519 3222 
L 4519 409 
L 4044 409 
L 4044 3222 
z
M 2825 2897 
L 1038 2897 
L 1038 2228 
L 2825 2228 
L 2825 2897 
z
M 1038 1141 
L 2825 1141 
L 2825 1809 
L 1038 1809 
L 1038 1141 
z
" transform="scale(0.015625)"/>
      <path id="MicrosoftYaHei-62" d="M 1159 488 
L 1159 0 
L 547 0 
L 547 5116 
L 1159 5116 
L 1159 2859 
L 1172 2859 
Q 1578 3538 2359 3538 
Q 3009 3538 3392 3080 
Q 3775 2622 3775 1828 
Q 3775 953 3345 436 
Q 2916 -81 2200 -81 
Q 1525 -81 1172 488 
L 1159 488 
z
M 1156 1422 
Q 1156 1003 1428 714 
Q 1700 425 2109 425 
Q 2597 425 2872 800 
Q 3147 1175 3147 1838 
Q 3147 2384 2890 2707 
Q 2634 3031 2191 3031 
Q 1741 3031 1448 2709 
Q 1156 2388 1156 1891 
L 1156 1422 
z
" transform="scale(0.015625)"/>
      <path id="MicrosoftYaHei-61" d="M 628 3216 
Q 1144 3538 1819 3538 
Q 3069 3538 3069 2225 
L 3069 0 
L 2463 0 
L 2463 534 
L 2447 534 
Q 2088 -81 1388 -81 
Q 884 -81 587 191 
Q 291 463 291 925 
Q 291 1894 1438 2053 
L 2463 2197 
Q 2463 3044 1763 3044 
Q 1141 3044 628 2625 
L 628 3216 
z
M 1653 1625 
Q 1228 1569 1067 1412 
Q 906 1256 906 975 
Q 906 728 1081 572 
Q 1256 416 1544 416 
Q 1944 416 2203 697 
Q 2463 978 2463 1403 
L 2463 1734 
L 1653 1625 
z
" transform="scale(0.015625)"/>
      <path id="MicrosoftYaHei-74" d="M 2206 34 
Q 2006 -75 1666 -75 
Q 738 -75 738 953 
L 738 2950 
L 144 2950 
L 144 3456 
L 738 3456 
L 738 4288 
L 1347 4481 
L 1347 3456 
L 2206 3456 
L 2206 2950 
L 1347 2950 
L 1347 1063 
Q 1347 722 1462 575 
Q 1578 428 1847 428 
Q 2053 428 2206 544 
L 2206 34 
z
" transform="scale(0.015625)"/>
      <path id="MicrosoftYaHei-63" d="M 2934 156 
Q 2538 -81 1978 -81 
Q 1228 -81 772 400 
Q 316 881 316 1647 
Q 316 2497 808 3017 
Q 1300 3538 2125 3538 
Q 2600 3538 2938 3369 
L 2938 2763 
Q 2572 3031 2125 3031 
Q 1600 3031 1270 2667 
Q 941 2303 941 1697 
Q 941 1100 1252 762 
Q 1563 425 2091 425 
Q 2538 425 2934 719 
L 2934 156 
z
" transform="scale(0.015625)"/>
      <path id="MicrosoftYaHei-68" d="M 3466 0 
L 2856 0 
L 2856 1988 
Q 2856 3031 2081 3031 
Q 1684 3031 1421 2726 
Q 1159 2422 1159 1959 
L 1159 0 
L 547 0 
L 547 5116 
L 1159 5116 
L 1159 2888 
L 1172 2888 
Q 1569 3538 2300 3538 
Q 3466 3538 3466 2128 
L 3466 0 
z
" transform="scale(0.015625)"/>
      <path id="MicrosoftYaHei-29" d="M 78 -1100 
Q 1131 163 1131 1853 
Q 1131 3547 72 4841 
L 616 4841 
Q 1672 3603 1672 1847 
Q 1672 91 616 -1100 
L 78 -1100 
z
" transform="scale(0.015625)"/>
     </defs>
     <use xlink:href="#MicrosoftYaHei-28"/>
     <use xlink:href="#MicrosoftYaHei-5f53" transform="translate(33.398438 0)"/>
     <use xlink:href="#MicrosoftYaHei-524d" transform="translate(133.398438 0)"/>
     <use xlink:href="#MicrosoftYaHei-20" transform="translate(233.398438 0)"/>
     <use xlink:href="#MicrosoftYaHei-62" transform="translate(262.988281 0)"/>
     <use xlink:href="#MicrosoftYaHei-61" transform="translate(325.480469 0)"/>
     <use xlink:href="#MicrosoftYaHei-74" transform="translate(380.753906 0)"/>
     <use xlink:href="#MicrosoftYaHei-63" transform="translate(416.634766 0)"/>
     <use xlink:href="#MicrosoftYaHei-68" transform="translate(466.78125 0)"/>
     <use xlink:href="#MicrosoftYaHei-29" transform="translate(528.353516 0)"/>
    </g>
   </g>
   <g id="text_3">
    <!-- batch 均值/方差 -->
    <g style="fill: #222222" transform="translate(134.830938 92.167094) scale(0.07 -0.07)">
     <defs>
      <path id="MicrosoftYaHei-5747" d="M 2244 2803 
Q 2931 3953 3338 5322 
L 3838 5172 
Q 3691 4744 3531 4347 
L 6013 4347 
Q 5925 1053 5875 297 
Q 5831 -697 4806 -697 
Q 4188 -697 3706 -672 
Q 3669 -422 3606 -141 
L 3625 -141 
Q 4250 -209 4775 -209 
Q 5350 -209 5394 378 
Q 5456 1447 5513 3891 
L 3341 3891 
Q 3028 3172 2675 2572 
Q 2481 2691 2244 2803 
z
M 81 428 
Q 559 600 1006 769 
L 1006 3253 
L 169 3253 
L 169 3697 
L 1006 3697 
L 1006 5259 
L 1469 5259 
L 1469 3697 
L 2281 3697 
L 2281 3253 
L 1469 3253 
L 1469 947 
Q 1922 1125 2338 1303 
Q 2350 991 2369 784 
Q 1363 403 250 -53 
L 81 428 
z
M 2513 853 
Q 3769 1353 5119 1934 
Q 5150 1641 5188 1434 
Q 4031 947 2706 359 
L 2513 853 
z
M 3138 2909 
L 3481 3216 
Q 4025 2716 4531 2216 
L 4125 1859 
Q 3644 2409 3138 2909 
z
" transform="scale(0.015625)"/>
      <path id="MicrosoftYaHei-503c" d="M 1619 -216 
L 2250 -216 
L 2250 3653 
L 3725 3653 
L 3725 4222 
L 1913 4222 
L 1913 4647 
L 3725 4647 
L 3725 5309 
L 4200 5309 
L 4200 4647 
L 6169 4647 
L 6169 4222 
L 4200 4222 
L 4200 3653 
L 5713 3653 
L 5713 -216 
L 6306 -216 
L 6306 -641 
L 1619 -641 
L 1619 -216 
z
M 69 2247 
Q 906 3497 1369 5278 
L 1831 5141 
Q 1581 4334 1288 3628 
L 1288 -816 
L 831 -816 
L 831 2666 
Q 563 2166 263 1734 
Q 175 1997 69 2247 
z
M 2713 -216 
L 5250 -216 
L 5250 353 
L 2713 353 
L 2713 -216 
z
M 5250 3241 
L 2713 3241 
L 2713 2678 
L 5250 2678 
L 5250 3241 
z
M 2713 1716 
L 5250 1716 
L 5250 2278 
L 2713 2278 
L 2713 1716 
z
M 2713 753 
L 5250 753 
L 5250 1316 
L 2713 1316 
L 2713 753 
z
" transform="scale(0.015625)"/>
      <path id="MicrosoftYaHei-2f" d="M 2791 4841 
L 469 -803 
L -103 -803 
L 2219 4841 
L 2791 4841 
z
" transform="scale(0.015625)"/>
      <path id="MicrosoftYaHei-65b9" d="M 194 4241 
L 3194 4241 
Q 2878 4841 2700 5116 
L 3188 5347 
Q 3363 5078 3713 4472 
L 3256 4241 
L 6219 4241 
L 6219 3766 
L 2428 3766 
Q 2406 3197 2381 2797 
L 5400 2797 
Q 5325 1441 5238 441 
Q 5169 -691 4138 -691 
Q 3663 -691 2869 -641 
Q 2838 -403 2775 -66 
Q 3569 -172 4063 -172 
Q 4638 -172 4706 509 
Q 4781 1253 4838 2328 
L 2347 2328 
Q 2172 266 438 -872 
Q 269 -672 56 -447 
Q 1706 641 1825 2466 
Q 1869 2959 1897 3766 
L 194 3766 
L 194 4241 
z
" transform="scale(0.015625)"/>
      <path id="MicrosoftYaHei-5dee" d="M 1094 -172 
L 3419 -172 
L 3419 891 
L 1813 891 
L 1813 1088 
Q 1200 394 331 -197 
Q 206 3 31 247 
Q 1213 1028 1859 1984 
L 200 1984 
L 200 2409 
L 2119 2409 
Q 2275 2694 2409 3028 
L 638 3028 
L 638 3447 
L 2569 3447 
Q 2666 3728 2750 4041 
L 488 4041 
L 488 4466 
L 2075 4466 
Q 1813 4797 1513 5122 
L 1869 5397 
Q 2231 5047 2563 4672 
L 2278 4466 
L 4219 4466 
L 3975 4684 
Q 4344 5047 4631 5403 
L 5056 5122 
Q 4738 4772 4413 4466 
L 6050 4466 
L 6050 4041 
L 3291 4041 
Q 3206 3731 3109 3447 
L 5813 3447 
L 5813 3028 
L 2963 3028 
Q 2838 2700 2697 2409 
L 6294 2409 
L 6294 1984 
L 2469 1984 
Q 2259 1634 1997 1309 
L 5613 1309 
L 5613 891 
L 3925 891 
L 3925 -172 
L 6213 -172 
L 6213 -597 
L 1094 -597 
L 1094 -172 
z
" transform="scale(0.015625)"/>
     </defs>
     <use xlink:href="#MicrosoftYaHei-62"/>
     <use xlink:href="#MicrosoftYaHei-61" transform="translate(62.492188 0)"/>
     <use xlink:href="#MicrosoftYaHei-74" transform="translate(117.765625 0)"/>
     <use xlink:href="#MicrosoftYaHei-63" transform="translate(153.646484 0)"/>
     <use xlink:href="#MicrosoftYaHei-68" transform="translate(203.792969 0)"/>
     <use xlink:href="#MicrosoftYaHei-20" transform="translate(265.365234 0)"/>
     <use xlink:href="#MicrosoftYaHei-5747" transform="translate(294.955078 0)"/>
     <use xlink:href="#MicrosoftYaHei-503c" transform="translate(394.955078 0)"/>
     <use xlink:href="#MicrosoftYaHei-2f" transform="translate(494.955078 0)"/>
     <use xlink:href="#MicrosoftYaHei-65b9" transform="translate(537.679688 0)"/>
     <use xlink:href="#MicrosoftYaHei-5dee" transform="translate(637.679688 0)"/>
    </g>
    <!-- μB / σ²B -->
    <g style="fill: #222222" transform="translate(146.902109 101.741125) scale(0.07 -0.07)">
     <defs>
      <path id="MicrosoftYaHei-3bc" d="M 2947 0 
Q 2869 238 2869 559 
L 2853 559 
Q 2578 -78 1934 -78 
Q 1400 -78 1169 316 
L 1156 316 
L 1156 -1338 
L 547 -1338 
L 547 3456 
L 1156 3456 
L 1156 1359 
Q 1156 941 1379 695 
Q 1603 450 1966 450 
Q 2363 450 2606 734 
Q 2850 1019 2850 1494 
L 2850 3456 
L 3469 3456 
L 3469 913 
Q 3469 259 3581 0 
L 2947 0 
z
" transform="scale(0.015625)"/>
      <path id="MicrosoftYaHei-42" d="M 625 0 
L 625 4841 
L 2047 4841 
Q 2684 4841 3065 4536 
Q 3447 4231 3447 3728 
Q 3447 3328 3220 3022 
Q 2994 2716 2597 2588 
L 2597 2575 
Q 3091 2519 3386 2201 
Q 3681 1884 3681 1397 
Q 3681 772 3232 386 
Q 2784 0 2084 0 
L 625 0 
z
M 1250 4294 
L 1250 2778 
L 1819 2778 
Q 2272 2778 2530 2998 
Q 2788 3219 2788 3609 
Q 2788 4294 1875 4294 
L 1250 4294 
z
M 1250 2234 
L 1250 547 
L 2000 547 
Q 2491 547 2758 773 
Q 3025 1000 3025 1403 
Q 3025 2234 1897 2234 
L 1250 2234 
z
" transform="scale(0.015625)"/>
      <path id="MicrosoftYaHei-3c3" d="M 3925 2972 
L 3075 2972 
Q 3541 2375 3541 1647 
Q 3541 875 3106 397 
Q 2672 -81 1956 -81 
Q 1209 -81 764 409 
Q 319 900 319 1697 
Q 319 3456 2084 3456 
L 3925 3456 
L 3925 2972 
z
M 2141 2972 
Q 947 2972 947 1672 
Q 947 1122 1217 775 
Q 1488 428 1953 428 
Q 2403 428 2659 772 
Q 2916 1116 2916 1691 
Q 2916 2416 2522 2972 
L 2141 2972 
z
" transform="scale(0.015625)"/>
      <path id="MicrosoftYaHei-b2" d="M 2247 1972 
L 356 1972 
L 356 2372 
L 1169 3169 
Q 1503 3497 1597 3664 
Q 1691 3831 1691 4038 
Q 1691 4228 1567 4347 
Q 1444 4466 1238 4466 
Q 850 4466 513 4122 
L 513 4650 
Q 806 4906 1313 4906 
Q 1713 4906 1950 4682 
Q 2188 4459 2188 4091 
Q 2188 3581 1494 2919 
L 963 2419 
L 963 2403 
L 2247 2403 
L 2247 1972 
z
" transform="scale(0.015625)"/>
     </defs>
     <use xlink:href="#MicrosoftYaHei-3bc"/>
     <use xlink:href="#MicrosoftYaHei-42" transform="translate(62.792969 0)"/>
     <use xlink:href="#MicrosoftYaHei-20" transform="translate(125.537109 0)"/>
     <use xlink:href="#MicrosoftYaHei-2f" transform="translate(155.126953 0)"/>
     <use xlink:href="#MicrosoftYaHei-20" transform="translate(197.851562 0)"/>
     <use xlink:href="#MicrosoftYaHei-3c3" transform="translate(227.441406 0)"/>
     <use xlink:href="#MicrosoftYaHei-b2" transform="translate(289.990234 0)"/>
     <use xlink:href="#MicrosoftYaHei-42" transform="translate(330.029297 0)"/>
    </g>
   </g>
   <g id="text_4">
    <!-- 归一化+γ/β -->
    <g style="fill: #222222" transform="translate(247.992578 92.186016) scale(0.07 -0.07)">
     <defs>
      <path id="MicrosoftYaHei-5f52" d="M 2450 272 
L 5419 272 
L 5419 2222 
L 2800 2222 
L 2800 2659 
L 5419 2659 
L 5419 4347 
L 2650 4347 
L 2650 4797 
L 5906 4797 
L 5906 -591 
L 5419 -591 
L 5419 -166 
L 2450 -166 
L 2450 272 
z
M 1800 5284 
L 2294 5284 
L 2294 2741 
Q 2300 103 1219 -866 
Q 1069 -672 844 -447 
Q 1800 453 1800 2541 
L 1800 5284 
z
M 513 4672 
L 1000 4672 
L 1000 641 
L 513 641 
L 513 4672 
z
" transform="scale(0.015625)"/>
      <path id="MicrosoftYaHei-4e00" d="M 100 2703 
L 6313 2703 
L 6313 2153 
L 100 2153 
L 100 2703 
z
" transform="scale(0.015625)"/>
      <path id="MicrosoftYaHei-5316" d="M 1844 1453 
Q 2663 1834 3375 2331 
L 3375 5197 
L 3913 5197 
L 3913 2734 
Q 4869 3506 5613 4516 
L 6069 4184 
Q 5159 2975 3913 2069 
L 3913 303 
Q 3913 -122 4363 -122 
L 5156 -122 
Q 5581 -122 5650 284 
Q 5738 709 5763 1266 
Q 6025 1166 6313 1084 
Q 6263 559 6181 122 
Q 6063 -597 5281 -597 
L 4225 -597 
Q 3375 -597 3375 241 
L 3375 1703 
Q 2791 1328 2144 1016 
Q 2013 1222 1844 1453 
z
M 88 2222 
Q 1175 3666 1688 5291 
L 2231 5134 
Q 1934 4359 1588 3675 
L 1588 -797 
L 1063 -797 
L 1063 2734 
Q 716 2172 325 1678 
Q 219 1947 88 2222 
z
" transform="scale(0.015625)"/>
      <path id="MicrosoftYaHei-2b" d="M 3972 1772 
L 2613 1772 
L 2613 419 
L 2141 419 
L 2141 1772 
L 788 1772 
L 788 2250 
L 2141 2250 
L 2141 3603 
L 2613 3603 
L 2613 2250 
L 3972 2250 
L 3972 1772 
z
" transform="scale(0.015625)"/>
      <path id="MicrosoftYaHei-3b3" d="M 1959 -238 
Q 1959 -1316 1947 -1622 
L 1300 -1622 
Q 1353 -991 1353 50 
Q 1222 756 811 1793 
Q 400 2831 3 3456 
L 706 3456 
Q 1534 1963 1841 531 
L 1853 531 
Q 2791 1919 2791 3013 
Q 2791 3241 2756 3456 
L 3384 3456 
Q 3406 3297 3406 3159 
Q 3406 2569 3197 1908 
Q 2988 1247 1959 -238 
z
" transform="scale(0.015625)"/>
      <path id="MicrosoftYaHei-3b2" d="M 1156 147 
L 1156 -1619 
L 550 -1619 
L 550 3738 
Q 550 4388 929 4780 
Q 1309 5172 1953 5172 
Q 2556 5172 2904 4859 
Q 3253 4547 3253 4003 
Q 3253 3600 2998 3251 
Q 2744 2903 2331 2772 
L 2331 2759 
Q 2925 2659 3256 2300 
Q 3588 1941 3588 1381 
Q 3588 728 3169 322 
Q 2750 -84 2084 -84 
Q 1581 -84 1156 147 
z
M 1703 2472 
L 1703 2950 
Q 2119 3009 2376 3290 
Q 2634 3572 2634 3931 
Q 2634 4659 1944 4659 
Q 1556 4659 1356 4403 
Q 1156 4147 1156 3691 
L 1156 713 
Q 1622 428 2059 428 
Q 2481 428 2722 665 
Q 2963 903 2963 1353 
Q 2963 2350 1703 2472 
z
" transform="scale(0.015625)"/>
     </defs>
     <use xlink:href="#MicrosoftYaHei-5f52"/>
     <use xlink:href="#MicrosoftYaHei-4e00" transform="translate(100 0)"/>
     <use xlink:href="#MicrosoftYaHei-5316" transform="translate(200 0)"/>
     <use xlink:href="#MicrosoftYaHei-2b" transform="translate(300 0)"/>
     <use xlink:href="#MicrosoftYaHei-3b3" transform="translate(374.169922 0)"/>
     <use xlink:href="#MicrosoftYaHei-2f" transform="translate(430.810547 0)"/>
     <use xlink:href="#MicrosoftYaHei-3b2" transform="translate(473.535156 0)"/>
    </g>
    <!-- (x-μ)/σ·γ+β -->
    <g style="fill: #222222" transform="translate(247.636016 101.879703) scale(0.07 -0.07)">
     <defs>
      <path id="MicrosoftYaHei-2d" d="M 2328 1681 
L 488 1681 
L 488 2153 
L 2328 2153 
L 2328 1681 
z
" transform="scale(0.015625)"/>
      <path id="MicrosoftYaHei-b7" d="M 372 2113 
Q 372 2278 490 2395 
Q 609 2513 775 2513 
Q 941 2513 1061 2397 
Q 1181 2281 1181 2113 
Q 1181 1950 1064 1831 
Q 947 1713 772 1713 
Q 600 1713 486 1831 
Q 372 1950 372 2113 
z
" transform="scale(0.015625)"/>
     </defs>
     <use xlink:href="#MicrosoftYaHei-28"/>
     <use xlink:href="#MicrosoftYaHei-78" transform="translate(33.398438 0)"/>
     <use xlink:href="#MicrosoftYaHei-2d" transform="translate(84.082031 0)"/>
     <use xlink:href="#MicrosoftYaHei-3bc" transform="translate(127.34375 0)"/>
     <use xlink:href="#MicrosoftYaHei-29" transform="translate(190.136719 0)"/>
     <use xlink:href="#MicrosoftYaHei-2f" transform="translate(223.535156 0)"/>
     <use xlink:href="#MicrosoftYaHei-3c3" transform="translate(266.259766 0)"/>
     <use xlink:href="#MicrosoftYaHei-b7" transform="translate(328.808594 0)"/>
     <use xlink:href="#MicrosoftYaHei-3b3" transform="translate(352.880859 0)"/>
     <use xlink:href="#MicrosoftYaHei-2b" transform="translate(409.521484 0)"/>
     <use xlink:href="#MicrosoftYaHei-3b2" transform="translate(483.691406 0)"/>
    </g>
   </g>
   <g id="text_5">
    <!-- running 统计 -->
    <g style="fill: #222222" transform="translate(117.159922 171.673422) scale(0.07 -0.07)">
     <defs>
      <path id="MicrosoftYaHei-72" d="M 2400 2850 
Q 2247 2959 1978 2959 
Q 1622 2959 1390 2626 
Q 1159 2294 1159 1750 
L 1159 0 
L 547 0 
L 547 3456 
L 1159 3456 
L 1159 2753 
L 1172 2753 
Q 1434 3516 2078 3516 
Q 2288 3516 2400 3469 
L 2400 2850 
z
" transform="scale(0.015625)"/>
      <path id="MicrosoftYaHei-75" d="M 3400 0 
L 2784 0 
L 2784 544 
L 2772 544 
Q 2425 -81 1706 -81 
Q 478 -81 478 1388 
L 478 3456 
L 1084 3456 
L 1084 1478 
Q 1084 425 1891 425 
Q 2291 425 2537 720 
Q 2784 1016 2784 1466 
L 2784 3456 
L 3400 3456 
L 3400 0 
z
" transform="scale(0.015625)"/>
      <path id="MicrosoftYaHei-6e" d="M 3469 0 
L 2859 0 
L 2859 1966 
Q 2859 3031 2081 3031 
Q 1678 3031 1418 2731 
Q 1159 2431 1159 1972 
L 1159 0 
L 547 0 
L 547 3456 
L 1159 3456 
L 1159 2884 
L 1172 2884 
Q 1563 3538 2306 3538 
Q 2875 3538 3172 3173 
Q 3469 2809 3469 2113 
L 3469 0 
z
" transform="scale(0.015625)"/>
      <path id="MicrosoftYaHei-69" d="M 472 4675 
Q 472 4838 583 4948 
Q 694 5059 856 5059 
Q 1022 5059 1136 4950 
Q 1250 4841 1250 4675 
Q 1250 4513 1136 4405 
Q 1022 4297 856 4297 
Q 691 4297 581 4405 
Q 472 4513 472 4675 
z
M 544 0 
L 544 3456 
L 1156 3456 
L 1156 0 
L 544 0 
z
" transform="scale(0.015625)"/>
      <path id="MicrosoftYaHei-67" d="M 3547 291 
Q 3547 -1628 1684 -1628 
Q 1041 -1628 566 -1388 
L 566 -797 
Q 1144 -1119 1675 -1119 
Q 2934 -1119 2934 206 
L 2934 572 
L 2922 572 
Q 2528 -81 1747 -81 
Q 1097 -81 706 384 
Q 316 850 316 1619 
Q 316 2503 747 3020 
Q 1178 3538 1897 3538 
Q 2588 3538 2922 2988 
L 2934 2988 
L 2934 3456 
L 3547 3456 
L 3547 291 
z
M 2934 2056 
Q 2938 2456 2666 2743 
Q 2394 3031 1997 3031 
Q 1497 3031 1219 2664 
Q 941 2297 941 1656 
Q 941 1106 1209 765 
Q 1478 425 1922 425 
Q 2369 425 2653 750 
Q 2938 1075 2934 1575 
L 2934 2056 
z
" transform="scale(0.015625)"/>
      <path id="MicrosoftYaHei-7edf" d="M 5100 3641 
Q 5625 2934 6175 2047 
Q 5956 1922 5713 1766 
Q 5556 2031 5413 2275 
Q 5122 2256 4813 2241 
L 4813 122 
Q 4813 -259 5094 -259 
L 5400 -259 
Q 5706 -259 5750 53 
Q 5800 428 5813 866 
Q 6019 778 6313 684 
Q 6263 141 6206 -159 
Q 6119 -703 5550 -703 
L 5013 -703 
Q 4331 -703 4331 78 
L 4331 2213 
Q 3981 2194 3606 2169 
Q 3556 809 3256 272 
Q 2900 -416 1925 -866 
Q 1788 -672 1606 -447 
Q 2513 -78 2819 522 
Q 3100 1000 3122 2138 
Q 2994 2128 2863 2122 
Q 2594 2097 2363 2041 
L 2150 2528 
Q 2419 2641 2581 2828 
Q 3050 3388 3463 4047 
L 2100 4047 
L 2100 4491 
L 4094 4491 
Q 3859 4850 3650 5128 
L 4063 5384 
Q 4300 5091 4594 4684 
L 4297 4491 
L 6200 4491 
L 6200 4047 
L 3663 4047 
L 4006 3897 
Q 3488 3197 2988 2609 
Q 4166 2650 5153 2694 
Q 4916 3075 4700 3391 
L 5100 3641 
z
M 894 1534 
Q 1394 1603 2175 1722 
Q 2138 1472 2113 1259 
Q 1331 1153 325 991 
L 225 1441 
Q 616 1841 1153 2744 
Q 503 2700 219 2678 
L 100 3103 
Q 650 3828 1288 5316 
L 1763 5128 
Q 1156 3941 656 3141 
Q 1066 3147 1394 3159 
Q 1581 3494 1788 3884 
L 2256 3678 
Q 1544 2434 894 1534 
z
M 81 222 
Q 1119 422 2225 672 
Q 2200 347 2200 222 
Q 1069 -28 225 -253 
L 81 222 
z
" transform="scale(0.015625)"/>
      <path id="MicrosoftYaHei-8ba1" d="M 2100 3153 
L 3919 3153 
L 3919 5303 
L 4456 5303 
L 4456 3153 
L 6288 3153 
L 6288 2703 
L 4456 2703 
L 4456 -822 
L 3919 -822 
L 3919 2703 
L 2100 2703 
L 2100 3153 
z
M 2675 903 
Q 2694 578 2719 359 
Q 1719 -266 1069 -728 
L 769 -303 
Q 988 -116 988 266 
L 988 2741 
L 100 2741 
L 100 3191 
L 1488 3191 
L 1488 153 
Q 2031 484 2675 903 
z
M 738 5222 
Q 1419 4522 1725 4184 
L 1288 3816 
Q 894 4334 356 4891 
L 738 5222 
z
" transform="scale(0.015625)"/>
     </defs>
     <use xlink:href="#MicrosoftYaHei-72"/>
     <use xlink:href="#MicrosoftYaHei-75" transform="translate(38.183594 0)"/>
     <use xlink:href="#MicrosoftYaHei-6e" transform="translate(99.804688 0)"/>
     <use xlink:href="#MicrosoftYaHei-6e" transform="translate(161.425781 0)"/>
     <use xlink:href="#MicrosoftYaHei-69" transform="translate(223.046875 0)"/>
     <use xlink:href="#MicrosoftYaHei-6e" transform="translate(249.658203 0)"/>
     <use xlink:href="#MicrosoftYaHei-67" transform="translate(311.279297 0)"/>
     <use xlink:href="#MicrosoftYaHei-20" transform="translate(375.244141 0)"/>
     <use xlink:href="#MicrosoftYaHei-7edf" transform="translate(404.833984 0)"/>
     <use xlink:href="#MicrosoftYaHei-8ba1" transform="translate(504.833984 0)"/>
    </g>
    <!-- （缓冲，不反传） -->
    <g style="fill: #222222" transform="translate(110.33 181.287922) scale(0.07 -0.07)">
     <defs>
      <path id="MicrosoftYaHei-ff08" d="M 5288 -1100 
Q 4172 119 4172 1850 
Q 4172 3603 5288 4838 
L 5825 4838 
Q 4716 3572 4716 1856 
Q 4716 166 5819 -1100 
L 5288 -1100 
z
" transform="scale(0.015625)"/>
      <path id="MicrosoftYaHei-7f13" d="M 2150 2566 
L 2981 2566 
Q 3006 2819 3016 3091 
L 2275 3091 
L 2275 3478 
L 4784 3478 
Q 5081 3959 5363 4516 
L 5800 4266 
Q 5478 3778 5263 3478 
L 6138 3478 
L 6138 3091 
L 3447 3091 
Q 3441 2822 3416 2566 
L 6238 2566 
L 6238 2178 
L 3369 2178 
Q 3328 1922 3269 1678 
L 5663 1678 
L 5663 1297 
Q 5244 616 4650 128 
Q 5347 -241 6300 -322 
Q 6175 -572 6069 -791 
Q 5006 -641 4259 -156 
Q 3544 -625 2613 -859 
Q 2506 -666 2375 -447 
Q 3231 -250 3881 122 
Q 3409 528 3097 1100 
Q 2741 106 2013 -603 
Q 1938 -459 1744 -197 
Q 2675 713 2928 2178 
L 2150 2178 
L 2150 2566 
z
M 863 1641 
Q 1481 1716 2100 1803 
Q 2081 1609 2075 1359 
Q 1069 1241 350 1122 
L 244 1566 
Q 625 1975 1184 2934 
Q 503 2900 225 2853 
L 138 3284 
Q 606 3922 1138 5284 
L 1625 5134 
Q 1119 4091 663 3303 
Q 1166 3313 1403 3319 
Q 1619 3706 1856 4166 
L 2294 3966 
Q 1538 2622 863 1641 
z
M 2325 4434 
Q 2288 4647 2238 4878 
Q 4194 4928 5994 5109 
L 6081 4659 
Q 4725 4534 2325 4434 
z
M 5156 1291 
L 3416 1291 
Q 3756 734 4263 369 
Q 4794 756 5156 1291 
z
M 181 259 
Q 894 422 2050 691 
Q 2031 553 2031 228 
Q 994 -16 300 -216 
L 181 259 
z
M 3769 4328 
L 4163 4478 
Q 4338 4153 4506 3703 
L 4081 3547 
Q 3963 3916 3769 4328 
z
M 2519 4203 
L 2881 4397 
Q 3088 4116 3306 3722 
L 2906 3503 
Q 2706 3916 2519 4203 
z
" transform="scale(0.015625)"/>
      <path id="MicrosoftYaHei-51b2" d="M 2138 4084 
L 3781 4084 
L 3781 5309 
L 4281 5309 
L 4281 4084 
L 5925 4084 
L 5925 984 
L 5438 984 
L 5438 1284 
L 4281 1284 
L 4281 -828 
L 3781 -828 
L 3781 1284 
L 2625 1284 
L 2625 984 
L 2138 984 
L 2138 4084 
z
M 5438 3634 
L 4281 3634 
L 4281 1734 
L 5438 1734 
L 5438 3634 
z
M 2625 1734 
L 3781 1734 
L 3781 3634 
L 2625 3634 
L 2625 1734 
z
M 1125 2434 
Q 1388 2259 1631 2153 
Q 1181 928 681 -603 
L 163 -328 
Q 663 803 1125 2434 
z
M 644 5034 
Q 1200 4291 1619 3653 
L 1144 3341 
Q 675 4134 219 4747 
L 644 5034 
z
" transform="scale(0.015625)"/>
      <path id="MicrosoftYaHei-ff0c" d="M 1931 775 
L 1403 -891 
L 966 -891 
L 1350 775 
L 1931 775 
z
" transform="scale(0.015625)"/>
      <path id="MicrosoftYaHei-4e0d" d="M 225 4772 
L 6181 4772 
L 6181 4284 
L 3881 4284 
Q 3581 3766 3081 3053 
L 3444 3053 
L 3444 -866 
L 2906 -866 
L 2906 2859 
Q 1838 1541 388 609 
Q 231 834 38 1059 
Q 2006 2291 3213 4284 
L 225 4284 
L 225 4772 
z
M 4069 2859 
Q 5238 2147 6325 1409 
L 5969 916 
Q 4681 1872 3763 2434 
L 4069 2859 
z
" transform="scale(0.015625)"/>
      <path id="MicrosoftYaHei-53cd" d="M 881 4884 
Q 3369 4903 5738 5191 
L 5919 4691 
Q 3750 4503 1369 4434 
L 1369 3372 
L 5638 3372 
L 5638 2909 
Q 5125 1525 4100 591 
Q 5019 -25 6331 -247 
Q 6106 -534 5938 -803 
Q 4616 -422 3697 253 
Q 2738 -475 1406 -878 
Q 1263 -659 1063 -397 
Q 2366 -44 3278 597 
Q 2256 1525 1859 2909 
L 1369 2909 
L 1369 2553 
Q 1369 334 413 -853 
Q 250 -653 63 -453 
Q 881 559 881 2553 
L 881 4884 
z
M 5050 2909 
L 2366 2909 
Q 2794 1678 3681 909 
Q 4622 1722 5050 2909 
z
" transform="scale(0.015625)"/>
      <path id="MicrosoftYaHei-4f20" d="M 2413 684 
L 2681 1053 
Q 3397 666 4056 278 
L 5269 1472 
L 2606 1472 
L 2606 1916 
Q 2731 2306 2847 2691 
L 1869 2691 
L 1869 3128 
L 2975 3128 
Q 3097 3550 3203 3959 
L 2175 3959 
L 2175 4397 
L 3316 4397 
Q 3425 4831 3519 5253 
L 4056 5253 
Q 3959 4838 3847 4397 
L 6050 4397 
L 6050 3959 
L 3734 3959 
Q 3625 3553 3503 3128 
L 6300 3128 
L 6300 2691 
L 3378 2691 
Q 3266 2306 3144 1909 
L 5906 1909 
L 5906 1453 
L 4481 22 
Q 4869 -209 5238 -447 
L 4913 -872 
Q 3594 34 2413 684 
z
M 88 2241 
Q 963 3528 1469 5297 
L 1975 5147 
Q 1741 4422 1475 3791 
L 1475 -803 
L 981 -803 
L 981 2763 
Q 663 2175 306 1691 
Q 213 1959 88 2241 
z
" transform="scale(0.015625)"/>
      <path id="MicrosoftYaHei-ff09" d="M 1113 -1100 
L 575 -1100 
Q 1684 163 1684 1888 
Q 1684 3581 581 4838 
L 1113 4838 
Q 2222 3628 2222 1888 
Q 2222 128 1113 -1100 
z
" transform="scale(0.015625)"/>
     </defs>
     <use xlink:href="#MicrosoftYaHei-ff08"/>
     <use xlink:href="#MicrosoftYaHei-7f13" transform="translate(100 0)"/>
     <use xlink:href="#MicrosoftYaHei-51b2" transform="translate(200 0)"/>
     <use xlink:href="#MicrosoftYaHei-ff0c" transform="translate(300 0)"/>
     <use xlink:href="#MicrosoftYaHei-4e0d" transform="translate(400 0)"/>
     <use xlink:href="#MicrosoftYaHei-53cd" transform="translate(500 0)"/>
     <use xlink:href="#MicrosoftYaHei-4f20" transform="translate(600 0)"/>
     <use xlink:href="#MicrosoftYaHei-ff09" transform="translate(700 0)"/>
    </g>
   </g>
   <g id="patch_8">
    <path d="M 98.482588 95.026375 
Q 107.641792 95.026375 115.347553 95.026375 
" style="fill: none; stroke: #777777; stroke-width: 1.3; stroke-linecap: round"/>
    <path d="M 111.347553 93.026375 
L 115.347553 95.026375 
L 111.347553 97.026375 
" style="fill: none; stroke: #777777; stroke-width: 1.3; stroke-linecap: round"/>
   </g>
   <g id="patch_9">
    <path d="M 204.502588 95.026375 
Q 213.661792 95.026375 221.367553 95.026375 
" style="fill: none; stroke: #777777; stroke-width: 1.3; stroke-linecap: round"/>
    <path d="M 217.367553 93.026375 
L 221.367553 95.026375 
L 217.367553 97.026375 
" style="fill: none; stroke: #777777; stroke-width: 1.3; stroke-linecap: round"/>
   </g>
   <g id="patch_10">
    <path d="M 145.279797 120.254622 
Q 118.798522 146.624847 93.267921 172.048384 
" style="fill: none; stroke-dasharray: 4.44,1.92; stroke-dashoffset: 0; stroke: #1565c0; stroke-width: 1.2; stroke-linecap: round"/>
    <path d="M 97.513524 170.643088 
L 93.267921 172.048384 
L 94.691046 167.808724 
" style="fill: none; stroke-dasharray: 4.44,1.92; stroke-dashoffset: 0; stroke: #1565c0; stroke-width: 1.2; stroke-linecap: round"/>
   </g>
   <g id="text_6">
    <!-- 动量更新 -->
    <g style="fill: #1565c0" transform="translate(65.79 134.803391) scale(0.065 -0.065)">
     <defs>
      <path id="MicrosoftYaHei-52a8" d="M 2975 4022 
L 3906 4022 
Q 3916 4650 3913 5309 
L 4425 5309 
Q 4422 4656 4409 4022 
L 6094 4022 
Q 6050 1659 5969 216 
Q 5900 -666 5150 -678 
Q 4763 -678 4306 -659 
Q 4263 -397 4206 -109 
Q 4638 -166 4994 -172 
Q 5456 -172 5475 347 
Q 5569 1897 5588 3547 
L 4400 3547 
Q 4394 3278 4388 3016 
Q 4356 553 2900 -872 
Q 2725 -659 2525 -447 
Q 3831 716 3888 3028 
Q 3894 3284 3900 3547 
L 2975 3547 
L 2975 4022 
z
M 2338 1866 
Q 2731 1016 3063 178 
Q 2788 59 2594 -28 
Q 2550 91 2506 209 
Q 1316 97 338 -16 
L 119 491 
Q 394 647 563 997 
Q 869 1613 1200 2559 
L 144 2559 
L 144 3022 
L 3163 3022 
L 3163 2559 
L 1725 2559 
Q 1191 1228 800 491 
Q 1519 544 2347 631 
Q 2138 1163 1906 1672 
L 2338 1866 
z
M 406 4778 
L 2913 4778 
L 2913 4316 
L 406 4316 
L 406 4778 
z
" transform="scale(0.015625)"/>
      <path id="MicrosoftYaHei-91cf" d="M 113 -278 
L 2981 -278 
L 2981 78 
L 475 78 
L 475 403 
L 2981 403 
L 2981 759 
L 1494 759 
L 1494 597 
L 1069 597 
L 1069 2516 
L 5350 2516 
L 5350 597 
L 4925 597 
L 4925 759 
L 3419 759 
L 3419 403 
L 5931 403 
L 5931 78 
L 3419 78 
L 3419 -278 
L 6288 -278 
L 6288 -616 
L 113 -616 
L 113 -278 
z
M 1119 5072 
L 5306 5072 
L 5306 3284 
L 4881 3284 
L 4881 3453 
L 1544 3453 
L 1544 3284 
L 1119 3284 
L 1119 5072 
z
M 163 3153 
L 6263 3153 
L 6263 2816 
L 163 2816 
L 163 3153 
z
M 1544 3778 
L 4881 3778 
L 4881 4116 
L 1544 4116 
L 1544 3778 
z
M 4881 4747 
L 1544 4747 
L 1544 4416 
L 4881 4416 
L 4881 4747 
z
M 3419 1084 
L 4925 1084 
L 4925 1491 
L 3419 1491 
L 3419 1084 
z
M 1494 1084 
L 2981 1084 
L 2981 1491 
L 1494 1491 
L 1494 1084 
z
M 4925 2191 
L 3419 2191 
L 3419 1791 
L 4925 1791 
L 4925 2191 
z
M 1494 1791 
L 2981 1791 
L 2981 2191 
L 1494 2191 
L 1494 1791 
z
" transform="scale(0.015625)"/>
      <path id="MicrosoftYaHei-66f4" d="M 106 -422 
Q 1250 -231 1950 166 
Q 1416 534 981 1134 
L 1309 1384 
L 825 1384 
L 825 4003 
L 3019 4003 
Q 3022 4272 3025 4578 
L 331 4578 
L 331 5016 
L 6069 5016 
L 6069 4578 
L 3506 4578 
Q 3506 4269 3503 4003 
L 5575 4003 
L 5575 1078 
L 5100 1078 
L 5100 1384 
L 3350 1384 
Q 3188 644 2834 244 
Q 4088 -216 6325 -209 
Q 6169 -484 6069 -709 
Q 3588 -641 2422 -100 
Q 1703 -575 394 -866 
Q 269 -647 106 -422 
z
M 1300 2903 
L 3006 2903 
Q 3013 3203 3016 3578 
L 1300 3578 
L 1300 2903 
z
M 3000 2484 
L 1300 2484 
L 1300 1809 
L 2947 1809 
Q 2988 2116 3000 2484 
z
M 3422 1809 
L 5100 1809 
L 5100 2484 
L 3481 2484 
Q 3466 2122 3422 1809 
z
M 5100 3578 
L 3500 3578 
Q 3497 3200 3491 2903 
L 5100 2903 
L 5100 3578 
z
M 2369 453 
Q 2706 744 2866 1384 
L 1334 1384 
Q 1766 784 2369 453 
z
" transform="scale(0.015625)"/>
      <path id="MicrosoftYaHei-65b0" d="M 3594 4797 
Q 4888 4809 5981 5053 
L 6144 4572 
Q 4906 4409 4038 4359 
L 4038 2903 
L 6319 2903 
L 6319 2478 
L 5425 2478 
L 5425 -797 
L 4963 -797 
L 4963 2478 
L 4038 2478 
L 4038 2172 
Q 4038 253 3119 -816 
Q 2969 -622 2788 -416 
Q 3594 466 3594 2191 
L 3594 4797 
z
M 263 1991 
L 1538 1991 
L 1538 2584 
L 1988 2584 
L 1988 1991 
L 3213 1991 
L 3213 1591 
L 1988 1591 
L 1988 -41 
Q 1988 -703 1350 -703 
Q 1081 -703 744 -697 
Q 719 -491 675 -222 
Q 1038 -259 1244 -259 
Q 1538 -259 1538 59 
L 1538 1591 
L 263 1591 
L 263 1991 
z
M 88 3159 
L 1094 3159 
Q 828 3581 594 3884 
L 931 4122 
Q 1138 3872 1463 3416 
L 1109 3159 
L 1934 3159 
Q 2275 3650 2563 4128 
L 3006 3878 
Q 2703 3488 2428 3159 
L 3375 3159 
L 3375 2759 
L 88 2759 
L 88 3159 
z
M 288 4609 
L 1638 4609 
Q 1503 4866 1331 5166 
L 1731 5353 
Q 1925 5034 2094 4709 
L 1884 4609 
L 3213 4609 
L 3213 4209 
L 288 4209 
L 288 4609 
z
M 744 1309 
L 1169 1109 
Q 831 403 500 -166 
Q 319 -53 88 59 
Q 394 534 744 1309 
z
M 2544 1278 
Q 2894 803 3156 403 
L 2756 128 
Q 2481 609 2175 1034 
L 2544 1278 
z
" transform="scale(0.015625)"/>
     </defs>
     <use xlink:href="#MicrosoftYaHei-52a8"/>
     <use xlink:href="#MicrosoftYaHei-91cf" transform="translate(100 0)"/>
     <use xlink:href="#MicrosoftYaHei-66f4" transform="translate(200 0)"/>
     <use xlink:href="#MicrosoftYaHei-65b0" transform="translate(300 0)"/>
    </g>
    <!-- 0.999/0.001 -->
    <g style="fill: #1565c0" transform="translate(65.79 142.654375) scale(0.065 -0.065)">
     <defs>
      <path id="MicrosoftYaHei-30" d="M 284 2325 
Q 284 3606 709 4264 
Q 1134 4922 1941 4922 
Q 3478 4922 3478 2441 
Q 3478 1216 3045 567 
Q 2613 -81 1831 -81 
Q 1094 -81 689 534 
Q 284 1150 284 2325 
z
M 909 2353 
Q 909 425 1888 425 
Q 2850 425 2850 2384 
Q 2850 4413 1906 4413 
Q 909 4413 909 2353 
z
" transform="scale(0.015625)"/>
      <path id="MicrosoftYaHei-2e" d="M 372 322 
Q 372 491 487 606 
Q 603 722 775 722 
Q 950 722 1065 605 
Q 1181 488 1181 322 
Q 1181 159 1065 42 
Q 950 -75 772 -75 
Q 600 -75 486 42 
Q 372 159 372 322 
z
" transform="scale(0.015625)"/>
      <path id="MicrosoftYaHei-39" d="M 578 656 
Q 978 425 1441 425 
Q 2091 425 2448 937 
Q 2806 1450 2806 2394 
Q 2800 2388 2794 2394 
Q 2475 1788 1722 1788 
Q 1113 1788 713 2206 
Q 313 2625 313 3294 
Q 313 4006 750 4464 
Q 1188 4922 1884 4922 
Q 2606 4922 3012 4355 
Q 3419 3788 3419 2703 
Q 3419 1363 2894 641 
Q 2369 -81 1441 -81 
Q 931 -81 578 84 
L 578 656 
z
M 931 3372 
Q 931 2884 1181 2598 
Q 1431 2313 1872 2313 
Q 2253 2313 2512 2573 
Q 2772 2834 2772 3206 
Q 2772 3728 2514 4070 
Q 2256 4413 1834 4413 
Q 1444 4413 1187 4116 
Q 931 3819 931 3372 
z
" transform="scale(0.015625)"/>
      <path id="MicrosoftYaHei-31" d="M 1781 0 
L 1781 4141 
Q 1638 3997 1295 3819 
Q 953 3641 663 3569 
L 663 4169 
Q 1047 4275 1484 4508 
Q 1922 4741 2156 4947 
L 2388 4947 
L 2388 0 
L 1781 0 
z
" transform="scale(0.015625)"/>
     </defs>
     <use xlink:href="#MicrosoftYaHei-30"/>
     <use xlink:href="#MicrosoftYaHei-2e" transform="translate(58.642578 0)"/>
     <use xlink:href="#MicrosoftYaHei-39" transform="translate(82.714844 0)"/>
     <use xlink:href="#MicrosoftYaHei-39" transform="translate(141.357422 0)"/>
     <use xlink:href="#MicrosoftYaHei-39" transform="translate(200 0)"/>
     <use xlink:href="#MicrosoftYaHei-2f" transform="translate(258.642578 0)"/>
     <use xlink:href="#MicrosoftYaHei-30" transform="translate(301.367188 0)"/>
     <use xlink:href="#MicrosoftYaHei-2e" transform="translate(360.009766 0)"/>
     <use xlink:href="#MicrosoftYaHei-30" transform="translate(384.082031 0)"/>
     <use xlink:href="#MicrosoftYaHei-30" transform="translate(442.724609 0)"/>
     <use xlink:href="#MicrosoftYaHei-31" transform="translate(501.367188 0)"/>
    </g>
   </g>
   <g id="text_7">
    <!-- 推理态：直接用 running 统计 -->
    <g style="fill: #1b5e20" transform="translate(378.565313 44.752375) scale(0.09 -0.09)">
     <defs>
      <path id="MicrosoftYaHei-Bold-63a8" d="M 4488 5353 
Q 4863 4822 5081 4459 
L 4650 4234 
L 6175 4234 
L 6175 3559 
L 4988 3559 
L 4988 2891 
L 6125 2891 
L 6125 2247 
L 4988 2247 
L 4988 1572 
L 6125 1572 
L 6125 928 
L 4988 928 
L 4988 253 
L 6250 253 
L 6250 -409 
L 3200 -409 
L 3200 -847 
L 2388 -847 
L 2388 2484 
Q 2319 2384 2256 2284 
Q 2063 2722 1856 3072 
Q 2650 4209 2944 5347 
L 3744 5153 
Q 3575 4703 3356 4234 
L 4306 4234 
Q 4119 4597 3869 5009 
L 4488 5353 
z
M 144 4172 
L 788 4172 
L 788 5303 
L 1613 5303 
L 1613 4172 
L 2031 4172 
L 2031 3372 
L 1613 3372 
L 1613 2484 
Q 1813 2547 2031 2616 
Q 2000 2084 2006 1766 
Q 1806 1703 1613 1634 
L 1613 -59 
Q 1613 -759 1013 -784 
Q 669 -816 319 -822 
Q 256 -447 131 3 
Q 313 -16 581 -16 
Q 788 -16 788 284 
L 788 1366 
Q 456 1253 119 1141 
L 69 2041 
Q 356 2109 788 2234 
L 788 3372 
L 144 3372 
L 144 4172 
z
M 3200 253 
L 4175 253 
L 4175 928 
L 3200 928 
L 3200 253 
z
M 3200 1572 
L 4175 1572 
L 4175 2247 
L 3200 2247 
L 3200 1572 
z
M 3200 2891 
L 4175 2891 
L 4175 3559 
L 3200 3559 
L 3200 2891 
z
" transform="scale(0.015625)"/>
      <path id="MicrosoftYaHei-Bold-7406" d="M 256 -503 
L 81 384 
L 825 553 
L 825 2091 
L 225 2091 
L 225 2866 
L 825 2866 
L 825 4178 
L 200 4178 
L 200 4966 
L 2250 4966 
L 2250 4178 
L 1625 4178 
L 1625 2866 
L 2206 2866 
L 2206 2091 
L 1625 2091 
L 1625 756 
Q 1959 847 2275 941 
Q 2250 497 2269 84 
L 3819 84 
L 3819 628 
L 2394 628 
L 2394 1341 
L 3819 1341 
L 3819 1791 
L 2425 1791 
L 2425 5034 
L 6013 5034 
L 6013 1791 
L 4619 1791 
L 4619 1341 
L 6044 1341 
L 6044 628 
L 4619 628 
L 4619 84 
L 6319 84 
L 6319 -628 
L 2031 -628 
L 2031 31 
Q 1206 -197 256 -503 
z
M 5231 4334 
L 4619 4334 
L 4619 3741 
L 5231 3741 
L 5231 4334 
z
M 3206 3741 
L 3819 3741 
L 3819 4334 
L 3206 4334 
L 3206 3741 
z
M 5231 2491 
L 5231 3091 
L 4619 3091 
L 4619 2491 
L 5231 2491 
z
M 3206 2491 
L 3819 2491 
L 3819 3091 
L 3206 3091 
L 3206 2491 
z
" transform="scale(0.015625)"/>
      <path id="MicrosoftYaHei-Bold-76f4" d="M 113 78 
L 769 78 
L 769 3828 
L 2731 3828 
L 2731 4241 
L 244 4241 
L 244 4922 
L 2731 4922 
L 2731 5341 
L 3619 5341 
L 3619 4922 
L 6175 4922 
L 6175 4241 
L 3619 4241 
L 3619 3828 
L 5650 3828 
L 5650 78 
L 6294 78 
L 6294 -603 
L 113 -603 
L 113 78 
z
M 4813 3166 
L 1613 3166 
L 1613 2797 
L 4813 2797 
L 4813 3166 
z
M 1613 78 
L 4813 78 
L 4813 447 
L 1613 447 
L 1613 78 
z
M 1613 984 
L 4813 984 
L 4813 1353 
L 1613 1353 
L 1613 984 
z
M 1613 1891 
L 4813 1891 
L 4813 2259 
L 1613 2259 
L 1613 1891 
z
" transform="scale(0.015625)"/>
      <path id="MicrosoftYaHei-Bold-63a5" d="M 6106 4059 
L 5156 4059 
L 5738 3828 
L 5344 3303 
L 6300 3303 
L 6300 2603 
L 3475 2603 
L 4150 2409 
L 3975 2097 
L 6238 2097 
L 6238 1397 
L 5609 1397 
Q 5406 831 5000 397 
L 6213 -103 
L 5794 -841 
Q 5016 -441 4353 -128 
Q 3528 -650 2238 -859 
Q 2075 -509 1844 -116 
Q 2806 -3 3463 275 
Q 2825 550 2331 716 
Q 2541 1047 2722 1397 
L 2075 1397 
L 2075 1631 
Q 1859 1600 1625 1556 
L 1625 3 
Q 1625 -359 1467 -556 
Q 1309 -753 1001 -779 
Q 694 -806 281 -816 
Q 225 -409 94 9 
Q 325 -3 503 -3 
Q 694 -3 753 59 
Q 813 122 813 291 
L 813 1403 
L 194 1272 
L 94 2166 
Q 394 2200 813 2259 
L 813 3347 
L 194 3347 
L 194 4147 
L 813 4147 
L 813 5303 
L 1625 5303 
L 1625 4147 
L 2156 4147 
L 2156 3347 
L 1625 3347 
L 1625 2384 
L 2119 2466 
Q 2109 2266 2109 2097 
L 3056 2097 
Q 3163 2344 3259 2603 
L 2081 2603 
L 2081 3303 
L 2969 3303 
Q 2784 3628 2650 3828 
L 3169 4059 
L 2300 4059 
L 2300 4759 
L 3688 4759 
Q 3597 4991 3500 5197 
L 4438 5353 
Q 4547 5091 4653 4759 
L 6106 4759 
L 6106 4059 
z
M 3931 3472 
L 3541 3303 
L 4391 3303 
Q 4700 3781 4850 4059 
L 3525 4059 
Q 3703 3819 3931 3472 
z
M 3375 1034 
L 4200 716 
Q 4544 1009 4709 1397 
L 3581 1397 
L 3375 1034 
z
" transform="scale(0.015625)"/>
      <path id="MicrosoftYaHei-Bold-72" d="M 2663 2541 
Q 2478 2647 2216 2647 
Q 1872 2647 1670 2384 
Q 1469 2122 1469 1663 
L 1469 0 
L 459 0 
L 459 3456 
L 1469 3456 
L 1469 2806 
L 1481 2806 
Q 1731 3516 2391 3516 
Q 2569 3516 2663 3475 
L 2663 2541 
z
" transform="scale(0.015625)"/>
      <path id="MicrosoftYaHei-Bold-75" d="M 3691 0 
L 2688 0 
L 2688 528 
L 2672 528 
Q 2284 -84 1613 -84 
Q 406 -84 406 1372 
L 406 3456 
L 1416 3456 
L 1416 1466 
Q 1416 691 2022 691 
Q 2325 691 2506 903 
Q 2688 1116 2688 1478 
L 2688 3456 
L 3691 3456 
L 3691 0 
z
" transform="scale(0.015625)"/>
      <path id="MicrosoftYaHei-Bold-6e" d="M 3744 0 
L 2741 0 
L 2741 1928 
Q 2741 2766 2138 2766 
Q 1850 2766 1659 2542 
Q 1469 2319 1469 1972 
L 1469 0 
L 459 0 
L 459 3456 
L 1469 3456 
L 1469 2906 
L 1481 2906 
Q 1859 3541 2594 3541 
Q 3744 3541 3744 2116 
L 3744 0 
z
" transform="scale(0.015625)"/>
      <path id="MicrosoftYaHei-Bold-69" d="M 369 4572 
Q 369 4803 533 4948 
Q 697 5094 953 5094 
Q 1216 5094 1378 4945 
Q 1541 4797 1541 4572 
Q 1541 4344 1375 4192 
Q 1209 4041 953 4041 
Q 700 4041 534 4194 
Q 369 4347 369 4572 
z
M 444 0 
L 444 3456 
L 1450 3456 
L 1450 0 
L 444 0 
z
" transform="scale(0.015625)"/>
      <path id="MicrosoftYaHei-Bold-67" d="M 3800 381 
Q 3800 -581 3251 -1101 
Q 2703 -1622 1672 -1622 
Q 972 -1622 559 -1422 
L 559 -559 
Q 1097 -872 1644 -872 
Q 2184 -872 2489 -583 
Q 2794 -294 2794 219 
L 2794 506 
L 2778 506 
Q 2413 -84 1691 -84 
Q 1038 -84 645 381 
Q 253 847 253 1628 
Q 253 2500 686 3020 
Q 1119 3541 1822 3541 
Q 2459 3541 2778 3044 
L 2794 3044 
L 2794 3456 
L 3800 3456 
L 3800 381 
z
M 2803 1950 
Q 2803 2294 2595 2530 
Q 2388 2766 2072 2766 
Q 1703 2766 1489 2477 
Q 1275 2188 1275 1666 
Q 1275 1213 1481 952 
Q 1688 691 2028 691 
Q 2372 691 2587 956 
Q 2803 1222 2803 1647 
L 2803 1950 
z
" transform="scale(0.015625)"/>
     </defs>
     <use xlink:href="#MicrosoftYaHei-Bold-63a8"/>
     <use xlink:href="#MicrosoftYaHei-Bold-7406" transform="translate(100 0)"/>
     <use xlink:href="#MicrosoftYaHei-Bold-6001" transform="translate(200 0)"/>
     <use xlink:href="#MicrosoftYaHei-Bold-ff1a" transform="translate(300 0)"/>
     <use xlink:href="#MicrosoftYaHei-Bold-76f4" transform="translate(400 0)"/>
     <use xlink:href="#MicrosoftYaHei-Bold-63a5" transform="translate(500 0)"/>
     <use xlink:href="#MicrosoftYaHei-Bold-7528" transform="translate(600 0)"/>
     <use xlink:href="#MicrosoftYaHei-Bold-20" transform="translate(700 0)"/>
     <use xlink:href="#MicrosoftYaHei-Bold-72" transform="translate(729.785156 0)"/>
     <use xlink:href="#MicrosoftYaHei-Bold-75" transform="translate(772.417969 0)"/>
     <use xlink:href="#MicrosoftYaHei-Bold-6e" transform="translate(837.212891 0)"/>
     <use xlink:href="#MicrosoftYaHei-Bold-6e" transform="translate(902.007812 0)"/>
     <use xlink:href="#MicrosoftYaHei-Bold-69" transform="translate(966.802734 0)"/>
     <use xlink:href="#MicrosoftYaHei-Bold-6e" transform="translate(996.392578 0)"/>
     <use xlink:href="#MicrosoftYaHei-Bold-67" transform="translate(1061.1875 0)"/>
     <use xlink:href="#MicrosoftYaHei-Bold-20" transform="translate(1127.642578 0)"/>
     <use xlink:href="#MicrosoftYaHei-Bold-7edf" transform="translate(1157.427734 0)"/>
     <use xlink:href="#MicrosoftYaHei-Bold-8ba1" transform="translate(1257.427734 0)"/>
    </g>
   </g>
   <g id="text_8">
    <!-- 输入 x -->
    <g style="fill: #222222" transform="translate(362.880156 92.167094) scale(0.07 -0.07)">
     <use xlink:href="#MicrosoftYaHei-8f93"/>
     <use xlink:href="#MicrosoftYaHei-5165" transform="translate(100 0)"/>
     <use xlink:href="#MicrosoftYaHei-20" transform="translate(200 0)"/>
     <use xlink:href="#MicrosoftYaHei-78" transform="translate(229.589844 0)"/>
    </g>
    <!-- (单个样本) -->
    <g style="fill: #222222" transform="translate(356.351562 101.741125) scale(0.07 -0.07)">
     <defs>
      <path id="MicrosoftYaHei-5355" d="M 125 909 
L 2956 909 
L 2956 1616 
L 1225 1616 
L 1225 1322 
L 750 1322 
L 750 4353 
L 2047 4353 
Q 1747 4703 1400 5072 
L 1756 5366 
Q 2219 4922 2569 4547 
L 2338 4353 
L 3803 4353 
Q 4147 4809 4500 5347 
L 5000 5078 
Q 4678 4688 4378 4353 
L 5656 4353 
L 5656 1322 
L 5181 1322 
L 5181 1616 
L 3444 1616 
L 3444 909 
L 6275 909 
L 6275 459 
L 3444 459 
L 3444 -859 
L 2956 -859 
L 2956 459 
L 125 459 
L 125 909 
z
M 3444 2053 
L 5181 2053 
L 5181 2778 
L 3444 2778 
L 3444 2053 
z
M 1225 2053 
L 2956 2053 
L 2956 2778 
L 1225 2778 
L 1225 2053 
z
M 5181 3916 
L 3444 3916 
L 3444 3203 
L 5181 3203 
L 5181 3916 
z
M 1225 3203 
L 2956 3203 
L 2956 3916 
L 1225 3916 
L 1225 3203 
z
" transform="scale(0.015625)"/>
      <path id="MicrosoftYaHei-4e2a" d="M 2913 3028 
L 3481 3028 
L 3481 -841 
L 2913 -841 
L 2913 3028 
z
M 3600 5178 
L 3506 5034 
Q 4519 3366 6319 2647 
Q 6125 2341 5988 2084 
Q 4150 3047 3206 4566 
Q 2281 3122 400 1997 
Q 263 2222 81 2491 
Q 2031 3572 2981 5178 
L 3600 5178 
z
" transform="scale(0.015625)"/>
      <path id="MicrosoftYaHei-6837" d="M 2150 1197 
L 3981 1197 
L 3981 2222 
L 2619 2222 
L 2619 2659 
L 3981 2659 
L 3981 3641 
L 2475 3641 
L 2475 4078 
L 4406 4078 
Q 4925 4828 5188 5316 
L 5650 5022 
Q 5325 4578 4931 4078 
L 6075 4078 
L 6075 3641 
L 4469 3641 
L 4469 2659 
L 5900 2659 
L 5900 2222 
L 4469 2222 
L 4469 1197 
L 6275 1197 
L 6275 759 
L 4469 759 
L 4469 -872 
L 3981 -872 
L 3981 759 
L 2150 759 
L 2150 1197 
z
M 94 1384 
Q 700 2316 1038 3603 
L 163 3603 
L 163 4022 
L 1088 4022 
L 1088 5259 
L 1544 5259 
L 1544 4022 
L 2275 4022 
L 2275 3603 
L 1544 3603 
L 1544 2622 
L 1794 2847 
Q 2200 2447 2594 2022 
L 2238 1697 
Q 1756 2247 1544 2472 
L 1544 -872 
L 1088 -872 
L 1088 2559 
Q 750 1547 319 841 
Q 225 1109 94 1384 
z
M 2831 5047 
L 3200 5322 
Q 3694 4766 3906 4466 
L 3481 4172 
Q 3113 4703 2831 5047 
z
" transform="scale(0.015625)"/>
      <path id="MicrosoftYaHei-672c" d="M 6281 803 
Q 6119 641 5856 366 
Q 4344 1531 3444 3353 
L 3444 878 
L 4875 878 
L 4875 441 
L 3444 441 
L 3444 -841 
L 2956 -841 
L 2956 441 
L 1475 441 
L 1475 878 
L 2956 878 
L 2956 3353 
Q 2159 1766 513 291 
Q 269 522 100 666 
Q 1878 2125 2759 3753 
L 238 3753 
L 238 4216 
L 2956 4216 
L 2956 5341 
L 3444 5341 
L 3444 4216 
L 6163 4216 
L 6163 3753 
L 3622 3753 
Q 4616 1884 6281 803 
z
" transform="scale(0.015625)"/>
     </defs>
     <use xlink:href="#MicrosoftYaHei-28"/>
     <use xlink:href="#MicrosoftYaHei-5355" transform="translate(33.398438 0)"/>
     <use xlink:href="#MicrosoftYaHei-4e2a" transform="translate(133.398438 0)"/>
     <use xlink:href="#MicrosoftYaHei-6837" transform="translate(233.398438 0)"/>
     <use xlink:href="#MicrosoftYaHei-672c" transform="translate(333.398438 0)"/>
     <use xlink:href="#MicrosoftYaHei-29" transform="translate(433.398438 0)"/>
    </g>
   </g>
   <g id="text_9">
    <!-- running 均值/方差 -->
    <g style="fill: #222222" transform="translate(443.464766 92.243984) scale(0.07 -0.07)">
     <use xlink:href="#MicrosoftYaHei-72"/>
     <use xlink:href="#MicrosoftYaHei-75" transform="translate(38.183594 0)"/>
     <use xlink:href="#MicrosoftYaHei-6e" transform="translate(99.804688 0)"/>
     <use xlink:href="#MicrosoftYaHei-6e" transform="translate(161.425781 0)"/>
     <use xlink:href="#MicrosoftYaHei-69" transform="translate(223.046875 0)"/>
     <use xlink:href="#MicrosoftYaHei-6e" transform="translate(249.658203 0)"/>
     <use xlink:href="#MicrosoftYaHei-67" transform="translate(311.279297 0)"/>
     <use xlink:href="#MicrosoftYaHei-20" transform="translate(375.244141 0)"/>
     <use xlink:href="#MicrosoftYaHei-5747" transform="translate(404.833984 0)"/>
     <use xlink:href="#MicrosoftYaHei-503c" transform="translate(504.833984 0)"/>
     <use xlink:href="#MicrosoftYaHei-2f" transform="translate(604.833984 0)"/>
     <use xlink:href="#MicrosoftYaHei-65b9" transform="translate(647.558594 0)"/>
     <use xlink:href="#MicrosoftYaHei-5dee" transform="translate(747.558594 0)"/>
    </g>
    <!-- + γ/β -->
    <g style="fill: #222222" transform="translate(463.916797 101.944234) scale(0.07 -0.07)">
     <use xlink:href="#MicrosoftYaHei-2b"/>
     <use xlink:href="#MicrosoftYaHei-20" transform="translate(74.169922 0)"/>
     <use xlink:href="#MicrosoftYaHei-3b3" transform="translate(103.759766 0)"/>
     <use xlink:href="#MicrosoftYaHei-2f" transform="translate(160.400391 0)"/>
     <use xlink:href="#MicrosoftYaHei-3b2" transform="translate(203.125 0)"/>
    </g>
   </g>
   <g id="patch_11">
    <path d="M 405.382588 95.026375 
Q 414.541792 95.026375 422.247553 95.026375 
" style="fill: none; stroke: #777777; stroke-width: 1.3; stroke-linecap: round"/>
    <path d="M 418.247553 93.026375 
L 422.247553 95.026375 
L 418.247553 97.026375 
" style="fill: none; stroke: #777777; stroke-width: 1.3; stroke-linecap: round"/>
   </g>
   <g id="text_10">
    <!-- 同一份 running 统计， -->
    <g style="fill: #333333" transform="translate(403.444141 165.911) scale(0.07 -0.07)">
     <defs>
      <path id="MicrosoftYaHei-540c" d="M 1013 -772 
L 531 -772 
L 531 4959 
L 5856 4959 
L 5856 -47 
Q 5856 -741 5125 -741 
Q 4669 -741 4088 -716 
Q 4056 -497 4000 -216 
Q 4619 -272 5025 -272 
Q 5375 -272 5375 78 
L 5375 4497 
L 1013 4497 
L 1013 -772 
z
M 1875 2566 
L 4506 2566 
L 4506 597 
L 2338 597 
L 2338 272 
L 1875 272 
L 1875 2566 
z
M 4044 2116 
L 2338 2116 
L 2338 1047 
L 4044 1047 
L 4044 2116 
z
M 1363 3734 
L 5025 3734 
L 5025 3284 
L 1363 3284 
L 1363 3734 
z
" transform="scale(0.015625)"/>
      <path id="MicrosoftYaHei-4efd" d="M 2269 2653 
L 5394 2653 
Q 5388 2566 5300 366 
Q 5275 -709 4319 -722 
Q 3806 -722 3425 -703 
Q 3394 -416 3331 -184 
Q 3763 -241 4200 -253 
Q 4806 -297 4813 422 
Q 4863 1259 4888 2216 
L 3481 2216 
Q 3463 1222 3181 572 
Q 2844 -172 2019 -822 
Q 1856 -622 1656 -416 
Q 2450 203 2713 772 
Q 2969 1275 2997 2216 
L 2269 2216 
L 2269 2653 
z
M 75 2353 
Q 969 3534 1525 5284 
L 2013 5116 
Q 1709 4284 1350 3559 
L 1350 -809 
L 875 -809 
L 875 2691 
Q 588 2216 275 1797 
Q 181 2066 75 2353 
z
M 4006 5116 
L 4419 5291 
Q 5038 3703 6325 2972 
Q 6088 2697 5969 2516 
Q 4575 3472 4006 5116 
z
M 1588 2741 
Q 2563 3597 3163 5034 
L 3606 4866 
Q 3025 3409 1963 2397 
Q 1738 2628 1588 2741 
z
" transform="scale(0.015625)"/>
     </defs>
     <use xlink:href="#MicrosoftYaHei-540c"/>
     <use xlink:href="#MicrosoftYaHei-4e00" transform="translate(100 0)"/>
     <use xlink:href="#MicrosoftYaHei-4efd" transform="translate(200 0)"/>
     <use xlink:href="#MicrosoftYaHei-20" transform="translate(300 0)"/>
     <use xlink:href="#MicrosoftYaHei-72" transform="translate(329.589844 0)"/>
     <use xlink:href="#MicrosoftYaHei-75" transform="translate(367.773438 0)"/>
     <use xlink:href="#MicrosoftYaHei-6e" transform="translate(429.394531 0)"/>
     <use xlink:href="#MicrosoftYaHei-6e" transform="translate(491.015625 0)"/>
     <use xlink:href="#MicrosoftYaHei-69" transform="translate(552.636719 0)"/>
     <use xlink:href="#MicrosoftYaHei-6e" transform="translate(579.248047 0)"/>
     <use xlink:href="#MicrosoftYaHei-67" transform="translate(640.869141 0)"/>
     <use xlink:href="#MicrosoftYaHei-20" transform="translate(704.833984 0)"/>
     <use xlink:href="#MicrosoftYaHei-7edf" transform="translate(734.423828 0)"/>
     <use xlink:href="#MicrosoftYaHei-8ba1" transform="translate(834.423828 0)"/>
     <use xlink:href="#MicrosoftYaHei-ff0c" transform="translate(934.423828 0)"/>
    </g>
    <!-- 对所有样本行为一致（无 batch 噪声） -->
    <g style="fill: #333333" transform="translate(379.290313 174.406375) scale(0.07 -0.07)">
     <defs>
      <path id="MicrosoftYaHei-5bf9" d="M 694 3691 
Q 1234 2909 1741 2166 
Q 2113 3081 2213 4147 
L 250 4147 
L 250 4622 
L 2725 4622 
L 2725 4166 
Q 2553 2809 2059 1700 
Q 2569 953 3044 247 
L 2594 -53 
Q 2203 563 1803 1181 
Q 1247 163 388 -622 
Q 263 -428 81 -166 
Q 975 638 1500 1647 
Q 919 2538 319 3434 
L 694 3691 
z
M 2975 3941 
L 5056 3941 
L 5056 5278 
L 5563 5278 
L 5563 3941 
L 6325 3941 
L 6325 3466 
L 5563 3466 
L 5563 191 
Q 5563 -716 4669 -716 
Q 4388 -716 3744 -709 
Q 3713 -478 3644 -147 
Q 4263 -197 4588 -197 
Q 5056 -197 5056 278 
L 5056 3466 
L 2975 3466 
L 2975 3941 
z
M 3088 2684 
L 3494 2928 
Q 4000 2184 4388 1484 
L 3919 1216 
Q 3550 1922 3088 2684 
z
" transform="scale(0.015625)"/>
      <path id="MicrosoftYaHei-6240" d="M 638 4853 
Q 1675 4872 2806 5109 
L 2969 4641 
Q 2044 4503 1088 4434 
L 1088 3466 
L 2725 3466 
L 2725 1159 
L 2288 1159 
L 2288 1434 
L 1063 1434 
Q 959 3 406 -834 
Q 238 -628 63 -453 
Q 638 334 638 2134 
L 638 4853 
z
M 3325 4816 
Q 4813 4872 6031 5091 
L 6200 4616 
Q 4638 4441 3788 4391 
L 3788 2997 
L 6319 2997 
L 6319 2566 
L 5350 2566 
L 5350 -809 
L 4881 -809 
L 4881 2566 
L 3788 2566 
L 3788 2216 
Q 3788 247 2694 -878 
Q 2513 -666 2338 -466 
Q 3325 547 3325 2228 
L 3325 4816 
z
M 2288 1847 
L 2288 3053 
L 1088 3053 
Q 1088 2122 1084 1847 
L 2288 1847 
z
" transform="scale(0.015625)"/>
      <path id="MicrosoftYaHei-6709" d="M 1856 -816 
L 1363 -816 
L 1363 2419 
Q 909 1891 363 1403 
Q 231 1622 63 1859 
Q 1269 2869 1947 4097 
L 238 4097 
L 238 4559 
L 2181 4559 
Q 2359 4950 2488 5359 
L 3006 5241 
Q 2881 4894 2731 4559 
L 6263 4559 
L 6263 4097 
L 2506 4097 
Q 2313 3728 2081 3378 
L 5506 3378 
L 5506 41 
Q 5506 -734 4750 -734 
Q 4419 -741 3744 -741 
Q 3713 -528 3650 -228 
Q 4225 -272 4575 -272 
Q 5006 -272 5006 153 
L 5006 597 
L 1856 597 
L 1856 -816 
z
M 1856 1022 
L 5006 1022 
L 5006 1772 
L 1856 1772 
L 1856 1022 
z
M 5006 2941 
L 1856 2941 
L 1856 2197 
L 5006 2197 
L 5006 2941 
z
" transform="scale(0.015625)"/>
      <path id="MicrosoftYaHei-884c" d="M 2363 2978 
L 6319 2978 
L 6319 2509 
L 5106 2509 
L 5106 66 
Q 5106 -709 4325 -709 
Q 3800 -709 3256 -703 
Q 3219 -453 3163 -141 
Q 3650 -191 4144 -191 
Q 4575 -191 4575 234 
L 4575 2509 
L 2363 2509 
L 2363 2978 
z
M 100 1578 
Q 1069 2372 1863 3809 
L 2300 3541 
Q 1978 2984 1619 2500 
L 1619 -809 
L 1100 -809 
L 1100 1856 
Q 725 1431 319 1072 
Q 219 1334 100 1578 
z
M 2725 4866 
L 5969 4866 
L 5969 4397 
L 2725 4397 
L 2725 4866 
z
M 131 3559 
Q 1125 4328 1731 5347 
L 2181 5072 
Q 1456 3959 381 3078 
Q 269 3316 131 3559 
z
" transform="scale(0.015625)"/>
      <path id="MicrosoftYaHei-4e3a" d="M 356 3684 
L 2703 3684 
Q 2794 4450 2794 5341 
L 3331 5341 
Q 3331 4413 3244 3684 
L 5900 3684 
Q 5863 1753 5788 497 
Q 5725 -672 4550 -672 
Q 4063 -672 3394 -641 
Q 3369 -397 3300 -59 
Q 3888 -141 4456 -141 
Q 5206 -141 5244 597 
Q 5331 1822 5356 3197 
L 3175 3197 
Q 2716 441 606 -903 
Q 431 -684 225 -441 
Q 2169 706 2628 3197 
L 356 3197 
L 356 3684 
z
M 3325 2072 
L 3669 2378 
Q 4269 1822 4756 1284 
L 4369 934 
Q 3888 1503 3325 2072 
z
M 800 4922 
L 1138 5234 
Q 1656 4784 2138 4309 
L 1756 3953 
Q 1294 4459 800 4922 
z
" transform="scale(0.015625)"/>
      <path id="MicrosoftYaHei-81f4" d="M 3006 3053 
Q 3606 4109 3994 5366 
L 4450 5209 
Q 4269 4694 4066 4216 
L 6213 4216 
L 6213 3772 
L 5638 3772 
Q 5575 1784 4875 725 
Q 5463 47 6344 -353 
Q 6138 -603 5963 -809 
Q 5088 -306 4572 316 
Q 4044 -306 3025 -872 
Q 2925 -716 2713 -453 
Q 3778 94 4284 697 
Q 3663 1581 3509 3078 
Q 3409 2897 3306 2722 
Q 3194 2859 3006 3053 
z
M 188 4978 
L 3138 4978 
L 3138 4534 
L 1706 4534 
Q 1266 3628 938 3097 
Q 1694 3134 2288 3169 
Q 2116 3544 1931 3909 
L 2325 4097 
Q 2763 3278 3119 2478 
Q 2875 2359 2675 2266 
Q 2575 2516 2469 2763 
Q 1550 2691 856 2622 
Q 606 2578 413 2516 
L 181 2947 
Q 406 3072 556 3297 
Q 863 3791 1191 4534 
L 188 4534 
L 188 4978 
z
M 106 47 
Q 738 106 1388 175 
L 1388 1234 
L 244 1234 
L 244 1678 
L 1388 1678 
L 1388 2459 
L 1875 2459 
L 1875 1678 
L 3063 1678 
L 3063 1234 
L 1875 1234 
L 1875 231 
Q 2488 303 3119 384 
Q 3125 253 3150 -59 
Q 1813 -241 231 -434 
L 106 47 
z
M 4575 1109 
Q 5109 2028 5153 3772 
L 3891 3772 
Q 3978 1997 4575 1109 
z
" transform="scale(0.015625)"/>
      <path id="MicrosoftYaHei-65e0" d="M 200 2878 
L 2650 2878 
Q 2781 3528 2806 4328 
L 675 4328 
L 675 4816 
L 5750 4816 
L 5750 4328 
L 3331 4328 
Q 3288 3528 3169 2878 
L 6225 2878 
L 6225 2391 
L 3063 2391 
Q 2588 278 450 -884 
Q 313 -672 113 -441 
Q 1975 491 2538 2391 
L 200 2391 
L 200 2878 
z
M 3400 1941 
L 3906 1941 
L 3906 297 
Q 3906 -197 4363 -197 
L 5219 -197 
Q 5644 -197 5700 172 
Q 5750 528 5775 1097 
Q 6013 1009 6300 916 
Q 6238 297 6188 -16 
Q 6106 -641 5300 -641 
L 4219 -641 
Q 3400 -641 3400 222 
L 3400 1941 
z
" transform="scale(0.015625)"/>
      <path id="MicrosoftYaHei-566a" d="M 388 4647 
L 1844 4647 
L 1844 616 
L 813 616 
L 813 216 
L 388 216 
L 388 4647 
z
M 2100 1259 
L 3875 1259 
L 3875 1634 
L 4313 1634 
L 4313 1259 
L 6225 1259 
L 6225 853 
L 4638 853 
Q 5256 194 6338 -128 
Q 6163 -372 6044 -603 
Q 4959 -134 4313 709 
L 4313 -822 
L 3875 -822 
L 3875 713 
Q 3069 -106 1863 -653 
Q 1731 -441 1544 -253 
Q 2713 175 3475 853 
L 2100 853 
L 2100 1259 
z
M 2681 5103 
L 5588 5103 
L 5588 3459 
L 5163 3459 
L 5163 3628 
L 3106 3628 
L 3106 3459 
L 2681 3459 
L 2681 5103 
z
M 4369 3222 
L 6000 3222 
L 6000 1647 
L 5600 1647 
L 5600 1841 
L 4769 1841 
L 4769 1703 
L 4369 1703 
L 4369 3222 
z
M 2263 3222 
L 3838 3222 
L 3838 1703 
L 3438 1703 
L 3438 1841 
L 2663 1841 
L 2663 1647 
L 2263 1647 
L 2263 3222 
z
M 1419 1028 
L 1419 4234 
L 813 4234 
L 813 1028 
L 1419 1028 
z
M 5163 4728 
L 3106 4728 
L 3106 4003 
L 5163 4003 
L 5163 4728 
z
M 5600 2847 
L 4769 2847 
L 4769 2216 
L 5600 2216 
L 5600 2847 
z
M 3438 2847 
L 2663 2847 
L 2663 2216 
L 3438 2216 
L 3438 2847 
z
" transform="scale(0.015625)"/>
      <path id="MicrosoftYaHei-58f0" d="M 956 2666 
L 5581 2666 
L 5581 628 
L 5094 628 
L 5094 916 
L 1400 916 
Q 1275 -84 438 -853 
Q 275 -653 100 -428 
Q 956 234 956 1603 
L 956 2666 
z
M 756 3609 
L 3025 3609 
L 3025 4228 
L 231 4228 
L 231 4659 
L 3025 4659 
L 3025 5316 
L 3531 5316 
L 3531 4659 
L 6294 4659 
L 6294 4228 
L 3531 4228 
L 3531 3609 
L 5788 3609 
L 5788 3178 
L 756 3178 
L 756 3609 
z
M 5094 2247 
L 3513 2247 
L 3513 1334 
L 5094 1334 
L 5094 2247 
z
M 1450 2247 
L 1450 1334 
L 3025 1334 
L 3025 2247 
L 1450 2247 
z
" transform="scale(0.015625)"/>
     </defs>
     <use xlink:href="#MicrosoftYaHei-5bf9"/>
     <use xlink:href="#MicrosoftYaHei-6240" transform="translate(100 0)"/>
     <use xlink:href="#MicrosoftYaHei-6709" transform="translate(200 0)"/>
     <use xlink:href="#MicrosoftYaHei-6837" transform="translate(300 0)"/>
     <use xlink:href="#MicrosoftYaHei-672c" transform="translate(400 0)"/>
     <use xlink:href="#MicrosoftYaHei-884c" transform="translate(500 0)"/>
     <use xlink:href="#MicrosoftYaHei-4e3a" transform="translate(600 0)"/>
     <use xlink:href="#MicrosoftYaHei-4e00" transform="translate(700 0)"/>
     <use xlink:href="#MicrosoftYaHei-81f4" transform="translate(800 0)"/>
     <use xlink:href="#MicrosoftYaHei-ff08" transform="translate(900 0)"/>
     <use xlink:href="#MicrosoftYaHei-65e0" transform="translate(1000 0)"/>
     <use xlink:href="#MicrosoftYaHei-20" transform="translate(1100 0)"/>
     <use xlink:href="#MicrosoftYaHei-62" transform="translate(1129.589844 0)"/>
     <use xlink:href="#MicrosoftYaHei-61" transform="translate(1192.082031 0)"/>
     <use xlink:href="#MicrosoftYaHei-74" transform="translate(1247.355469 0)"/>
     <use xlink:href="#MicrosoftYaHei-63" transform="translate(1283.236328 0)"/>
     <use xlink:href="#MicrosoftYaHei-68" transform="translate(1333.382812 0)"/>
     <use xlink:href="#MicrosoftYaHei-20" transform="translate(1394.955078 0)"/>
     <use xlink:href="#MicrosoftYaHei-566a" transform="translate(1424.544922 0)"/>
     <use xlink:href="#MicrosoftYaHei-58f0" transform="translate(1524.544922 0)"/>
     <use xlink:href="#MicrosoftYaHei-ff09" transform="translate(1624.544922 0)"/>
    </g>
   </g>
   <g id="text_11">
    <!-- BatchNorm 双路径：训练用 batch 统计（含噪声），推理用 running 统计 -->
    <g transform="translate(116.113281 15.584375) scale(0.1 -0.1)">
     <defs>
      <path id="MicrosoftYaHei-Bold-42" d="M 559 0 
L 559 4841 
L 2278 4841 
Q 3069 4841 3497 4541 
Q 3925 4241 3925 3709 
Q 3925 3316 3659 3019 
Q 3394 2722 2991 2609 
L 2991 2597 
Q 3497 2534 3808 2221 
Q 4119 1909 4119 1438 
Q 4119 778 3650 389 
Q 3181 0 2369 0 
L 559 0 
z
M 1591 4072 
L 1591 2875 
L 2081 2875 
Q 2434 2875 2637 3044 
Q 2841 3213 2841 3516 
Q 2841 4072 2028 4072 
L 1591 4072 
z
M 1591 2097 
L 1591 769 
L 2203 769 
Q 2594 769 2814 950 
Q 3034 1131 3034 1453 
Q 3034 1759 2815 1928 
Q 2597 2097 2194 2097 
L 1591 2097 
z
" transform="scale(0.015625)"/>
      <path id="MicrosoftYaHei-Bold-4e" d="M 4863 0 
L 3806 0 
L 1756 3131 
Q 1597 3375 1525 3525 
L 1509 3525 
Q 1538 3275 1538 2753 
L 1538 0 
L 559 0 
L 559 4841 
L 1684 4841 
L 3659 1797 
Q 3856 1494 3900 1413 
L 3916 1413 
Q 3884 1588 3884 2081 
L 3884 4841 
L 4863 4841 
L 4863 0 
z
" transform="scale(0.015625)"/>
      <path id="MicrosoftYaHei-Bold-6f" d="M 253 1713 
Q 253 2566 764 3053 
Q 1275 3541 2138 3541 
Q 2972 3541 3462 3061 
Q 3953 2581 3953 1772 
Q 3953 922 3450 419 
Q 2947 -84 2088 -84 
Q 1244 -84 748 398 
Q 253 881 253 1713 
z
M 1275 1725 
Q 1275 691 2119 691 
Q 2928 691 2928 1753 
Q 2928 2766 2113 2766 
Q 1716 2766 1495 2494 
Q 1275 2222 1275 1725 
z
" transform="scale(0.015625)"/>
      <path id="MicrosoftYaHei-Bold-6d" d="M 5881 0 
L 4875 0 
L 4875 1972 
Q 4875 2766 4297 2766 
Q 4028 2766 3850 2525 
Q 3672 2284 3672 1938 
L 3672 0 
L 2666 0 
L 2666 1997 
Q 2666 2766 2094 2766 
Q 1809 2766 1639 2536 
Q 1469 2306 1469 1928 
L 1469 0 
L 459 0 
L 459 3456 
L 1469 3456 
L 1469 2916 
L 1481 2916 
Q 1663 3213 1963 3377 
Q 2263 3541 2594 3541 
Q 3322 3541 3591 2888 
Q 3991 3541 4753 3541 
Q 5881 3541 5881 2147 
L 5881 0 
z
" transform="scale(0.015625)"/>
      <path id="MicrosoftYaHei-Bold-53cc" d="M 6050 4903 
Q 6006 2691 5013 1119 
Q 5559 422 6338 -84 
Q 6269 -172 5638 -859 
Q 4931 -331 4409 325 
Q 3813 -344 3000 -866 
Q 2713 -441 2425 -97 
Q 3284 431 3875 1119 
Q 3259 2194 3038 3553 
L 3863 3728 
Q 4053 2756 4466 1969 
Q 4988 2906 5113 4078 
L 2919 4078 
L 2919 4903 
L 6050 4903 
z
M 844 3897 
L 1672 2622 
Q 1872 3300 1944 4078 
L 175 4078 
L 175 4903 
L 2831 4903 
Q 2838 3091 2278 1681 
L 2950 641 
Q 2556 384 2181 103 
L 1806 731 
Q 1297 -119 531 -791 
Q 313 -366 75 41 
Q 822 713 1278 1619 
L 163 3453 
L 844 3897 
z
" transform="scale(0.015625)"/>
      <path id="MicrosoftYaHei-Bold-8def" d="M 438 4966 
L 2613 4966 
L 2613 3916 
Q 3234 4569 3581 5359 
L 4475 5253 
Q 4341 4978 4188 4722 
L 6050 4722 
L 6050 4016 
Q 5734 3316 5156 2813 
Q 5663 2619 6313 2541 
Q 6194 2209 6075 1734 
Q 5106 1916 4409 2306 
Q 3700 1928 2738 1741 
Q 2600 2109 2419 2459 
Q 3153 2588 3703 2816 
Q 3416 3084 3203 3413 
Q 3063 3259 2913 3116 
Q 2834 3244 2613 3556 
L 2613 2816 
L 2063 2816 
L 2063 2066 
L 2550 2066 
L 2550 1341 
L 2063 1341 
L 2063 447 
L 2763 534 
Q 2744 378 2738 -303 
L 200 -653 
L 106 222 
L 313 244 
L 313 2416 
L 938 2416 
L 938 313 
L 1288 353 
L 1288 2816 
L 438 2816 
L 438 4966 
z
M 1213 3516 
L 1838 3516 
L 1838 4166 
L 1213 4166 
L 1213 3516 
z
M 4416 3213 
Q 4863 3538 5088 3978 
L 3728 3978 
Q 3988 3525 4416 3213 
z
M 2975 -853 
L 2975 1722 
L 5900 1722 
L 5900 -841 
L 5113 -841 
L 5113 -516 
L 3763 -516 
L 3763 -853 
L 2975 -853 
z
M 5113 947 
L 3763 947 
L 3763 259 
L 5113 259 
L 5113 947 
z
" transform="scale(0.015625)"/>
      <path id="MicrosoftYaHei-Bold-5f84" d="M 1450 5366 
L 2144 4797 
Q 1400 3816 444 2947 
Q 344 3328 131 3909 
Q 913 4597 1450 5366 
z
M 1588 -784 
L 781 -784 
L 781 1309 
Q 556 1075 331 866 
Q 250 1253 69 1841 
Q 850 2553 1575 3609 
L 2256 3153 
Q 2141 2984 2025 2825 
Q 3756 3381 4744 4259 
L 2325 4259 
L 2325 5009 
L 5788 5009 
L 5788 4272 
Q 5416 3819 4916 3419 
Q 5747 3056 6350 2772 
L 5863 2034 
Q 5006 2519 4209 2922 
Q 3409 2428 2369 2034 
Q 2188 2381 1966 2741 
Q 1775 2484 1588 2244 
L 1588 -784 
z
M 1913 128 
L 3663 128 
L 3663 1216 
L 2225 1216 
L 2225 1966 
L 6000 1966 
L 6000 1216 
L 4556 1216 
L 4556 128 
L 6300 128 
L 6300 -622 
L 1913 -622 
L 1913 128 
z
" transform="scale(0.015625)"/>
      <path id="MicrosoftYaHei-Bold-ff08" d="M 5197 -1088 
Q 4056 184 4056 1881 
Q 4056 3616 5203 4838 
L 6034 4838 
Q 4922 3503 4922 1888 
Q 4922 266 6028 -1088 
L 5197 -1088 
z
" transform="scale(0.015625)"/>
      <path id="MicrosoftYaHei-Bold-542b" d="M 2531 3691 
L 3419 3941 
Q 3606 3516 3769 3053 
L 3181 2909 
L 5188 2909 
L 5188 2216 
L 4475 1616 
L 5588 1616 
L 5588 -809 
L 4688 -809 
L 4688 -584 
L 1713 -584 
L 1713 -828 
L 813 -828 
L 813 1616 
L 3313 1616 
L 3988 2209 
L 1088 2209 
L 1088 2909 
L 2819 2909 
Q 2675 3347 2531 3691 
z
M 3944 5303 
L 3756 5072 
Q 4794 3978 6319 3647 
Q 6131 3359 5813 2803 
Q 4313 3284 3206 4459 
Q 2200 3416 594 2791 
Q 331 3247 75 3603 
Q 1975 4178 2813 5303 
L 3944 5303 
z
M 4688 891 
L 1713 891 
L 1713 141 
L 4688 141 
L 4688 891 
z
" transform="scale(0.015625)"/>
      <path id="MicrosoftYaHei-Bold-566a" d="M 2444 5122 
L 5744 5122 
L 5744 3584 
L 2444 3584 
L 2444 5122 
z
M 4950 4178 
L 4950 4534 
L 3244 4534 
L 3244 4178 
L 4950 4178 
z
M 338 4866 
L 1925 4866 
L 1925 259 
L 975 259 
L 975 -216 
L 338 -216 
L 338 4866 
z
M 1306 916 
L 1306 4209 
L 975 4209 
L 975 916 
L 1306 916 
z
M 4238 3303 
L 6050 3303 
L 6050 1797 
L 4238 1797 
L 4238 3303 
z
M 5400 2328 
L 5400 2772 
L 4888 2772 
L 4888 2328 
L 5400 2328 
z
M 2131 3303 
L 3931 3303 
L 3931 1797 
L 2131 1797 
L 2131 3303 
z
M 3275 2328 
L 3275 2772 
L 2775 2772 
L 2775 2328 
L 3275 2328 
z
M 2006 1416 
L 3669 1416 
L 3669 1709 
L 4475 1709 
L 4475 1416 
L 6213 1416 
L 6213 772 
L 4853 772 
Q 5409 266 6325 -3 
Q 6069 -366 5888 -653 
Q 5013 -250 4475 403 
L 4475 -822 
L 3669 -822 
L 3669 406 
Q 3006 -284 2250 -697 
Q 2038 -453 1719 -109 
Q 2606 241 3222 772 
L 2006 772 
L 2006 1416 
z
" transform="scale(0.015625)"/>
      <path id="MicrosoftYaHei-Bold-58f0" d="M 613 3791 
L 2750 3791 
L 2750 4153 
L 200 4153 
L 200 4891 
L 2750 4891 
L 2750 5341 
L 3663 5341 
L 3663 4891 
L 6163 4891 
L 6163 4153 
L 3663 4153 
L 3663 3791 
L 5750 3791 
L 5750 3103 
L 613 3103 
L 613 3791 
z
M 713 2766 
L 5738 2766 
L 5738 491 
L 4900 491 
L 4900 766 
L 1484 766 
Q 1306 -272 650 -872 
L 63 -184 
Q 713 372 713 1591 
L 713 2766 
z
M 1550 2078 
L 1550 1491 
L 2800 1491 
L 2800 2078 
L 1550 2078 
z
M 4900 2078 
L 3650 2078 
L 3650 1491 
L 4900 1491 
L 4900 2078 
z
" transform="scale(0.015625)"/>
      <path id="MicrosoftYaHei-Bold-ff09" d="M 1191 -1088 
L 359 -1088 
Q 1472 238 1472 1863 
Q 1472 3478 366 4838 
L 1197 4838 
Q 2338 3572 2338 1863 
Q 2338 125 1191 -1088 
z
" transform="scale(0.015625)"/>
      <path id="MicrosoftYaHei-Bold-ff0c" d="M 2075 831 
L 1569 -863 
L 831 -863 
L 1191 831 
L 2075 831 
z
" transform="scale(0.015625)"/>
     </defs>
     <use xlink:href="#MicrosoftYaHei-Bold-42"/>
     <use xlink:href="#MicrosoftYaHei-Bold-61" transform="translate(68.359375 0)"/>
     <use xlink:href="#MicrosoftYaHei-Bold-74" transform="translate(126.123047 0)"/>
     <use xlink:href="#MicrosoftYaHei-Bold-63" transform="translate(167.029297 0)"/>
     <use xlink:href="#MicrosoftYaHei-Bold-68" transform="translate(218.689453 0)"/>
     <use xlink:href="#MicrosoftYaHei-Bold-4e" transform="translate(283.240234 0)"/>
     <use xlink:href="#MicrosoftYaHei-Bold-6f" transform="translate(368.054688 0)"/>
     <use xlink:href="#MicrosoftYaHei-Bold-72" transform="translate(433.777344 0)"/>
     <use xlink:href="#MicrosoftYaHei-Bold-6d" transform="translate(476.410156 0)"/>
     <use xlink:href="#MicrosoftYaHei-Bold-20" transform="translate(574.603516 0)"/>
     <use xlink:href="#MicrosoftYaHei-Bold-53cc" transform="translate(604.388672 0)"/>
     <use xlink:href="#MicrosoftYaHei-Bold-8def" transform="translate(704.388672 0)"/>
     <use xlink:href="#MicrosoftYaHei-Bold-5f84" transform="translate(804.388672 0)"/>
     <use xlink:href="#MicrosoftYaHei-Bold-ff1a" transform="translate(904.388672 0)"/>
     <use xlink:href="#MicrosoftYaHei-Bold-8bad" transform="translate(1004.388672 0)"/>
     <use xlink:href="#MicrosoftYaHei-Bold-7ec3" transform="translate(1104.388672 0)"/>
     <use xlink:href="#MicrosoftYaHei-Bold-7528" transform="translate(1204.388672 0)"/>
     <use xlink:href="#MicrosoftYaHei-Bold-20" transform="translate(1304.388672 0)"/>
     <use xlink:href="#MicrosoftYaHei-Bold-62" transform="translate(1334.173828 0)"/>
     <use xlink:href="#MicrosoftYaHei-Bold-61" transform="translate(1399.650391 0)"/>
     <use xlink:href="#MicrosoftYaHei-Bold-74" transform="translate(1457.414062 0)"/>
     <use xlink:href="#MicrosoftYaHei-Bold-63" transform="translate(1498.320312 0)"/>
     <use xlink:href="#MicrosoftYaHei-Bold-68" transform="translate(1549.980469 0)"/>
     <use xlink:href="#MicrosoftYaHei-Bold-20" transform="translate(1614.53125 0)"/>
     <use xlink:href="#MicrosoftYaHei-Bold-7edf" transform="translate(1644.316406 0)"/>
     <use xlink:href="#MicrosoftYaHei-Bold-8ba1" transform="translate(1744.316406 0)"/>
     <use xlink:href="#MicrosoftYaHei-Bold-ff08" transform="translate(1844.316406 0)"/>
     <use xlink:href="#MicrosoftYaHei-Bold-542b" transform="translate(1944.316406 0)"/>
     <use xlink:href="#MicrosoftYaHei-Bold-566a" transform="translate(2044.316406 0)"/>
     <use xlink:href="#MicrosoftYaHei-Bold-58f0" transform="translate(2144.316406 0)"/>
     <use xlink:href="#MicrosoftYaHei-Bold-ff09" transform="translate(2244.316406 0)"/>
     <use xlink:href="#MicrosoftYaHei-Bold-ff0c" transform="translate(2344.316406 0)"/>
     <use xlink:href="#MicrosoftYaHei-Bold-63a8" transform="translate(2444.316406 0)"/>
     <use xlink:href="#MicrosoftYaHei-Bold-7406" transform="translate(2544.316406 0)"/>
     <use xlink:href="#MicrosoftYaHei-Bold-7528" transform="translate(2644.316406 0)"/>
     <use xlink:href="#MicrosoftYaHei-Bold-20" transform="translate(2744.316406 0)"/>
     <use xlink:href="#MicrosoftYaHei-Bold-72" transform="translate(2774.101562 0)"/>
     <use xlink:href="#MicrosoftYaHei-Bold-75" transform="translate(2816.734375 0)"/>
     <use xlink:href="#MicrosoftYaHei-Bold-6e" transform="translate(2881.529297 0)"/>
     <use xlink:href="#MicrosoftYaHei-Bold-6e" transform="translate(2946.324219 0)"/>
     <use xlink:href="#MicrosoftYaHei-Bold-69" transform="translate(3011.119141 0)"/>
     <use xlink:href="#MicrosoftYaHei-Bold-6e" transform="translate(3040.708984 0)"/>
     <use xlink:href="#MicrosoftYaHei-Bold-67" transform="translate(3105.503906 0)"/>
     <use xlink:href="#MicrosoftYaHei-Bold-20" transform="translate(3171.958984 0)"/>
     <use xlink:href="#MicrosoftYaHei-Bold-7edf" transform="translate(3201.744141 0)"/>
     <use xlink:href="#MicrosoftYaHei-Bold-8ba1" transform="translate(3301.744141 0)"/>
    </g>
   </g>
  </g>
 </g>
 <defs>
  <clipPath id="pd316404a10">
   <rect x="7.2" y="23.584375" width="558" height="232.848"/>
  </clipPath>
 </defs>
</svg>
